Canarina-Fleje.ufo
<glyph name="exclam" format="2">
  <advance width="260"/>
  <unicode hex="0021"/>
  <outline>
    <contour>
      <point x="69" y="216" type="line"/>
      <point x="186" y="226" type="line"/>
      <point x="210" y="700" type="line"/>
      <point x="50" y="700" type="line"/>
    </contour>
    <contour>
      <point x="51" y="0" type="line"/>
      <point x="199" y="0" type="line"/>
      <point x="196" y="154" type="line"/>
      <point x="56" y="144" type="line"/>
    </contour>
  </outline>
</glyph>
<glyph name="quotedbl" format="2">
  <advance width="355"/>
  <unicode hex="0022"/>
  <outline>
    <contour>
      <point x="13" y="448" type="line"/>
      <point x="133" y="448" type="line"/>
      <point x="170" y="573" type="line"/>
      <point x="139" y="700" type="line"/>
      <point x="11" y="690" type="line"/>
      <point x="5" y="675" type="line"/>
      <point x="38" y="560" type="line"/>
    </contour>
    <contour>
      <point x="193" y="448" type="line"/>
      <point x="313" y="448" type="line"/>
      <point x="350" y="573" type="line"/>
      <point x="329" y="700" type="line"/>
      <point x="201" y="690" type="line"/>
      <point x="195" y="675" type="line"/>
      <point x="218" y="560" type="line"/>
    </contour>
  </outline>
</glyph>
<glyph name="numbersign" format="2">
  <advance width="777"/>
  <unicode hex="0023"/>
  <outline>
    <contour>
      <point x="345" y="0" type="line"/>
      <point x="498" y="0" type="line"/>
      <point x="600" y="339" type="line"/>
      <point x="713" y="700" type="line"/>
      <point x="564" y="700" type="line"/>
      <point x="456" y="353" type="line"/>
    </contour>
    <contour>
      <point x="26" y="104" type="line"/>
      <point x="113" y="106"/>
      <point x="266" y="115"/>
      <point x="343" y="115" type="curve" smooth="yes"/>
      <point x="416" y="115"/>
      <point x="562" y="106"/>
      <point x="635" y="104" type="curve"/>
      <point x="687" y="209" type="line"/>
      <point x="678" y="255" type="line"/>
      <point x="597" y="253"/>
      <point x="444" y="248"/>
      <point x="363" y="248" type="curve" smooth="yes"/>
      <point x="288" y="248"/>
      <point x="147" y="254"/>
      <point x="72" y="258" type="curve"/>
      <point x="20" y="161" type="line"/>
    </contour>
    <contour>
      <point x="85" y="0" type="line"/>
      <point x="238" y="0" type="line"/>
      <point x="340" y="339" type="line"/>
      <point x="453" y="700" type="line"/>
      <point x="304" y="700" type="line"/>
      <point x="196" y="353" type="line"/>
    </contour>
    <contour>
      <point x="96" y="404" type="line"/>
      <point x="183" y="406"/>
      <point x="326" y="415"/>
      <point x="413" y="415" type="curve" smooth="yes"/>
      <point x="486" y="415"/>
      <point x="632" y="406"/>
      <point x="705" y="404" type="curve"/>
      <point x="757" y="509" type="line"/>
      <point x="748" y="555" type="line"/>
      <point x="667" y="553"/>
      <point x="514" y="548"/>
      <point x="433" y="548" type="curve" smooth="yes"/>
      <point x="358" y="548"/>
      <point x="217" y="554"/>
      <point x="142" y="558" type="curve"/>
      <point x="90" y="461" type="line"/>
    </contour>
  </outline>
</glyph>
<glyph name="dollar" format="2">
  <advance width="492"/>
  <unicode hex="0024"/>
  <outline>
    <contour>
      <point x="210" y="0" type="curve" smooth="yes"/>
      <point x="263" y="0"/>
      <point x="339" y="7"/>
      <point x="379" y="20" type="curve"/>
      <point x="408" y="52"/>
      <point x="462" y="132"/>
      <point x="472" y="162" type="curve"/>
      <point x="472" y="237"/>
      <point x="458" y="308"/>
      <point x="441" y="351" type="curve"/>
      <point x="402" y="378"/>
      <point x="314" y="403"/>
      <point x="265" y="420" type="curve" smooth="yes"/>
      <point x="215" y="437"/>
      <point x="202" y="441"/>
      <point x="172" y="462" type="curve"/>
      <point x="166" y="485"/>
      <point x="165" y="504"/>
      <point x="165" y="518" type="curve"/>
      <point x="172" y="541"/>
      <point x="183" y="557"/>
      <point x="197" y="565" type="curve"/>
      <point x="209" y="569"/>
      <point x="222" y="571"/>
      <point x="237" y="571" type="curve" smooth="yes"/>
      <point x="252" y="571"/>
      <point x="276" y="567"/>
      <point x="292" y="558" type="curve"/>
      <point x="291" y="488" type="line"/>
      <point x="428" y="518" type="line"/>
      <point x="418" y="659" type="line"/>
      <point x="383" y="669"/>
      <point x="333" y="683"/>
      <point x="247" y="690" type="curve"/>
      <point x="179" y="685"/>
      <point x="121" y="678"/>
      <point x="92" y="659" type="curve"/>
      <point x="52" y="598"/>
      <point x="36" y="570"/>
      <point x="20" y="490" type="curve"/>
      <point x="24" y="441"/>
      <point x="32" y="411"/>
      <point x="55" y="372" type="curve"/>
      <point x="107" y="336"/>
      <point x="192" y="299"/>
      <point x="223" y="284" type="curve" smooth="yes"/>
      <point x="257" y="268"/>
      <point x="289" y="260"/>
      <point x="318" y="239" type="curve"/>
      <point x="327" y="220"/>
      <point x="332" y="200"/>
      <point x="332" y="187" type="curve"/>
      <point x="321" y="159"/>
      <point x="310" y="145"/>
      <point x="298" y="134" type="curve"/>
      <point x="268" y="123"/>
      <point x="235" y="117"/>
      <point x="210" y="117" type="curve" smooth="yes"/>
      <point x="189" y="117"/>
      <point x="176" y="123"/>
      <point x="156" y="134" type="curve"/>
      <point x="161" y="172"/>
      <point x="169" y="201"/>
      <point x="186" y="239" type="curve"/>
      <point x="47" y="274" type="line"/>
      <point x="31" y="225"/>
      <point x="21" y="170"/>
      <point x="21" y="139" type="curve" smooth="yes"/>
      <point x="21" y="108"/>
      <point x="27" y="49"/>
      <point x="47" y="20" type="curve"/>
      <point x="106" y="7"/>
      <point x="153" y="0"/>
    </contour>
    <contour>
      <point x="171" y="-70" type="curve"/>
      <point x="318" y="-70" type="line"/>
      <point x="316" y="-27"/>
      <point x="315" y="14"/>
      <point x="314" y="55" type="curve"/>
      <point x="175" y="55" type="line"/>
      <point x="174" y="15"/>
      <point x="173" y="-27"/>
    </contour>
    <contour>
      <point x="177" y="580" type="curve"/>
      <point x="311" y="580" type="line"/>
      <point x="312" y="637"/>
      <point x="315" y="693"/>
      <point x="318" y="750" type="curve"/>
      <point x="171" y="750" type="line"/>
      <point x="174" y="691"/>
      <point x="176" y="636"/>
    </contour>
  </outline>
</glyph>
<glyph name="percent" format="2">
  <advance width="692"/>
  <unicode hex="0025"/>
  <outline>
    <contour>
      <point x="59" y="0" type="curve"/>
      <point x="259" y="0" type="line"/>
      <point x="438" y="387" type="line"/>
      <point x="644" y="700" type="line"/>
      <point x="437" y="700" type="line"/>
      <point x="380" y="568"/>
      <point x="343" y="482"/>
      <point x="290" y="384" type="curve" smooth="yes"/>
      <point x="229" y="272"/>
      <point x="149" y="158"/>
    </contour>
    <component base="_part.ya" xOffset="348" yOffset="-1"/>
    <component base="_part.ya" xOffset="-4" yOffset="450"/>
  </outline>
</glyph>
<glyph name="ampersand" format="2">
  <advance width="740"/>
  <unicode hex="0026"/>
  <outline>
    <contour>
      <point x="260" y="-26" type="curve" smooth="yes"/>
      <point x="355" y="-26"/>
      <point x="424" y="3"/>
      <point x="480" y="50" type="curve" smooth="yes"/>
      <point x="551" y="109"/>
      <point x="654" y="241"/>
      <point x="715" y="352" type="curve"/>
      <point x="695" y="369"/>
      <point x="663" y="386"/>
      <point x="637" y="393" type="curve"/>
      <point x="565" y="386" type="line"/>
      <point x="484" y="259"/>
      <point x="464" y="232"/>
      <point x="405" y="173" type="curve" smooth="yes"/>
      <point x="370" y="138"/>
      <point x="325" y="105"/>
      <point x="270" y="105" type="curve" smooth="yes"/>
      <point x="219" y="105"/>
      <point x="179" y="129"/>
      <point x="179" y="177" type="curve" smooth="yes"/>
      <point x="179" y="242"/>
      <point x="253" y="283"/>
      <point x="332" y="329" type="curve" smooth="yes"/>
      <point x="478" y="414"/>
      <point x="566" y="480"/>
      <point x="566" y="561" type="curve" smooth="yes"/>
      <point x="566" y="644"/>
      <point x="474" y="734"/>
      <point x="338" y="734" type="curve"/>
      <point x="338" y="610" type="line"/>
      <point x="367" y="610"/>
      <point x="411" y="590"/>
      <point x="411" y="554" type="curve" smooth="yes"/>
      <point x="411" y="524"/>
      <point x="378" y="500"/>
      <point x="306" y="456" type="curve" smooth="yes"/>
      <point x="258" y="427"/>
      <point x="132" y="371"/>
      <point x="84" y="314" type="curve" smooth="yes"/>
      <point x="45" y="268"/>
      <point x="25" y="214"/>
      <point x="25" y="162" type="curve" smooth="yes"/>
      <point x="25" y="39"/>
      <point x="120" y="-26"/>
    </contour>
    <contour>
      <point x="593" y="-20" type="curve"/>
      <point x="709" y="79" type="line"/>
      <point x="609" y="146"/>
      <point x="556" y="188"/>
      <point x="460" y="283" type="curve" smooth="yes"/>
      <point x="382" y="361"/>
      <point x="263" y="485"/>
      <point x="263" y="544" type="curve" smooth="yes"/>
      <point x="263" y="582"/>
      <point x="283" y="610"/>
      <point x="338" y="610" type="curve"/>
      <point x="338" y="734" type="line"/>
      <point x="213" y="734"/>
      <point x="119" y="658"/>
      <point x="119" y="554" type="curve" smooth="yes"/>
      <point x="119" y="466"/>
      <point x="186" y="356"/>
      <point x="306" y="230" type="curve" smooth="yes"/>
      <point x="431" y="99"/>
      <point x="522" y="34"/>
    </contour>
  </outline>
</glyph>
<glyph name="quotesingle" format="2">
  <advance width="175"/>
  <unicode hex="0027"/>
  <outline>
    <contour>
      <point x="13" y="448" type="line"/>
      <point x="133" y="448" type="line"/>
      <point x="170" y="573" type="line"/>
      <point x="139" y="700" type="line"/>
      <point x="11" y="690" type="line"/>
      <point x="5" y="675" type="line"/>
      <point x="38" y="560" type="line"/>
    </contour>
  </outline>
</glyph>
<glyph name="parenleft" format="2">
  <advance width="291"/>
  <unicode hex="0028"/>
  <outline>
    <contour>
      <point x="158" y="-47" type="curve"/>
      <point x="250" y="-10" type="line"/>
      <point x="198" y="136"/>
      <point x="179" y="237"/>
      <point x="179" y="340" type="curve" smooth="yes"/>
      <point x="179" y="445"/>
      <point x="198" y="587"/>
      <point x="271" y="710" type="curve"/>
      <point x="174" y="747" type="line"/>
      <point x="92" y="676"/>
      <point x="10" y="517"/>
      <point x="10" y="340" type="curve" smooth="yes"/>
      <point x="10" y="151"/>
      <point x="92" y="18"/>
    </contour>
  </outline>
</glyph>
<glyph name="parenright" format="2">
  <advance width="301"/>
  <unicode hex="0029"/>
  <outline>
    <contour>
      <point x="41" y="-10" type="curve"/>
      <point x="133" y="-47" type="line"/>
      <point x="199" y="18"/>
      <point x="281" y="151"/>
      <point x="281" y="340" type="curve" smooth="yes"/>
      <point x="281" y="517"/>
      <point x="199" y="676"/>
      <point x="117" y="747" type="curve"/>
      <point x="20" y="710" type="line"/>
      <point x="93" y="587"/>
      <point x="112" y="445"/>
      <point x="112" y="340" type="curve" smooth="yes"/>
      <point x="112" y="237"/>
      <point x="93" y="136"/>
    </contour>
  </outline>
</glyph>
<glyph name="asterisk" format="2">
  <advance width="353"/>
  <unicode hex="002A"/>
  <outline>
    <contour>
      <point x="122" y="365" type="line"/>
      <point x="230" y="365" type="line"/>
      <point x="217" y="556" type="line"/>
      <point x="230" y="715" type="line"/>
      <point x="122" y="715" type="line"/>
      <point x="133" y="556" type="line"/>
    </contour>
    <contour>
      <point x="-5" y="483" type="curve"/>
      <point x="58" y="399" type="line"/>
      <point x="91" y="442"/>
      <point x="146" y="473"/>
      <point x="205" y="500" type="curve"/>
      <point x="167" y="561" type="line"/>
      <point x="131" y="561" type="line"/>
      <point x="83" y="536"/>
      <point x="48" y="526"/>
    </contour>
    <contour>
      <point x="131" y="509" type="curve"/>
      <point x="167" y="509" type="line"/>
      <point x="205" y="570" type="line"/>
      <point x="146" y="597"/>
      <point x="101" y="628"/>
      <point x="58" y="671" type="curve"/>
      <point x="-5" y="587" type="line"/>
      <point x="48" y="544"/>
      <point x="83" y="534"/>
    </contour>
    <contour>
      <point x="295" y="399" type="curve"/>
      <point x="358" y="483" type="line"/>
      <point x="305" y="526"/>
      <point x="270" y="536"/>
      <point x="222" y="561" type="curve"/>
      <point x="186" y="561" type="line"/>
      <point x="158" y="500" type="line"/>
      <point x="217" y="473"/>
      <point x="252" y="442"/>
    </contour>
    <contour>
      <point x="158" y="570" type="curve"/>
      <point x="186" y="509" type="line"/>
      <point x="222" y="509" type="line"/>
      <point x="270" y="534"/>
      <point x="305" y="544"/>
      <point x="358" y="587" type="curve"/>
      <point x="295" y="671" type="line"/>
      <point x="252" y="628"/>
      <point x="217" y="597"/>
    </contour>
  </outline>
</glyph>
<glyph name="plus" format="2">
  <advance width="494"/>
  <unicode hex="002B"/>
  <outline>
    <contour>
      <point x="176" y="41" type="line"/>
      <point x="314" y="41" type="line"/>
      <point x="301" y="256" type="line"/>
      <point x="314" y="510" type="line"/>
      <point x="176" y="510" type="line"/>
      <point x="187" y="256" type="line"/>
    </contour>
    <contour>
      <point x="25" y="204" type="curve"/>
      <point x="247" y="214" type="line"/>
      <point x="247" y="333" type="line"/>
      <point x="53" y="343" type="line"/>
      <point x="15" y="244" type="line"/>
      <point x="15" y="228"/>
      <point x="20" y="216"/>
    </contour>
    <contour>
      <point x="409" y="204" type="line"/>
      <point x="441" y="204" type="line"/>
      <point x="479" y="303" type="line"/>
      <point x="479" y="319"/>
      <point x="474" y="331"/>
      <point x="469" y="343" type="curve"/>
      <point x="247" y="333" type="line"/>
      <point x="247" y="214" type="line"/>
    </contour>
  </outline>
</glyph>
<glyph name="comma" format="2">
  <advance width="194"/>
  <unicode hex="002C"/>
  <outline>
    <contour>
      <point x="105" y="-103" type="line"/>
      <point x="174" y="13" type="line"/>
      <point x="150" y="124" type="line"/>
      <point x="131" y="124" type="line"/>
      <point x="27" y="95" type="line"/>
      <point x="57" y="-1" type="line"/>
      <point x="20" y="-97" type="line"/>
    </contour>
  </outline>
</glyph>
<glyph name="hyphen" format="2">
  <advance width="365"/>
  <unicode hex="002D"/>
  <outline>
    <contour>
      <point x="26" y="198" type="curve"/>
      <point x="182" y="203" type="line"/>
      <point x="307" y="198" type="line"/>
      <point x="321" y="225"/>
      <point x="335" y="273"/>
      <point x="340" y="304" type="curve"/>
      <point x="332" y="340" type="line"/>
      <point x="68" y="337" type="line"/>
      <point x="53" y="314"/>
      <point x="36" y="275"/>
      <point x="27" y="254" type="curve"/>
      <point x="24" y="242"/>
      <point x="25" y="209"/>
    </contour>
  </outline>
</glyph>
<glyph name="period" format="2">
  <advance width="229"/>
  <unicode hex="002E"/>
  <outline>
    <contour>
      <point x="35" y="0" type="line"/>
      <point x="194" y="0" type="line"/>
      <point x="192" y="164" type="line"/>
      <point x="35" y="154" type="line"/>
    </contour>
  </outline>
</glyph>
<glyph name="slash" format="2">
  <advance width="456"/>
  <unicode hex="002F"/>
  <outline>
    <contour>
      <point x="45" y="0" type="curve"/>
      <point x="223" y="0" type="line"/>
      <point x="246" y="108"/>
      <point x="274" y="225"/>
      <point x="306" y="345" type="curve" smooth="yes"/>
      <point x="337" y="461"/>
      <point x="371" y="581"/>
      <point x="411" y="700" type="curve"/>
      <point x="237" y="700" type="line"/>
      <point x="219" y="615"/>
      <point x="191" y="494"/>
      <point x="156" y="367" type="curve" smooth="yes"/>
      <point x="122" y="242"/>
      <point x="82" y="109"/>
    </contour>
  </outline>
</glyph>
<glyph name="zero" format="2">
  <advance width="544"/>
  <unicode hex="0030"/>
  <outline>
    <contour>
      <point x="277" y="-5" type="curve" smooth="yes"/>
      <point x="332" y="-5"/>
      <point x="351" y="-1"/>
      <point x="372" y="5" type="curve"/>
      <point x="409" y="152" type="line"/>
      <point x="351" y="137"/>
      <point x="309" y="135"/>
      <point x="277" y="135" type="curve" smooth="yes"/>
      <point x="235" y="135"/>
      <point x="192" y="143"/>
      <point x="155" y="169" type="curve"/>
      <point x="254" y="48" type="line"/>
      <point x="208" y="116"/>
      <point x="178" y="210"/>
      <point x="164" y="298" type="curve"/>
      <point x="180" y="418"/>
      <point x="194" y="499"/>
      <point x="229" y="561" type="curve"/>
      <point x="241" y="568"/>
      <point x="266" y="571"/>
      <point x="277" y="571" type="curve" smooth="yes"/>
      <point x="294" y="571"/>
      <point x="317" y="567"/>
      <point x="336" y="561" type="curve"/>
      <point x="430" y="683" type="line"/>
      <point x="377" y="700"/>
      <point x="315" y="710"/>
      <point x="277" y="710" type="curve" smooth="yes"/>
      <point x="219" y="710"/>
      <point x="166" y="703"/>
      <point x="128" y="683" type="curve"/>
      <point x="64" y="594"/>
      <point x="27" y="434"/>
      <point x="20" y="298" type="curve"/>
      <point x="32" y="184"/>
      <point x="68" y="73"/>
      <point x="125" y="5" type="curve"/>
      <point x="153" y="-1"/>
      <point x="237" y="-5"/>
    </contour>
    <contour>
      <point x="287" y="-5" type="line"/>
      <point x="313" y="-5"/>
      <point x="385" y="-1"/>
      <point x="421" y="5" type="curve"/>
      <point x="474" y="76"/>
      <point x="512" y="187"/>
      <point x="524" y="298" type="curve"/>
      <point x="515" y="422"/>
      <point x="481" y="582"/>
      <point x="430" y="683" type="curve"/>
      <point x="346" y="683" type="line"/>
      <point x="306" y="611" type="line"/>
      <point x="337" y="546"/>
      <point x="363" y="414"/>
      <point x="378" y="298" type="curve"/>
      <point x="368" y="208"/>
      <point x="343" y="126"/>
      <point x="309" y="79" type="curve"/>
      <point x="295" y="79" type="line"/>
    </contour>
  </outline>
</glyph>
<glyph name="two" format="2">
  <advance width="478"/>
  <unicode hex="0032"/>
  <outline>
    <contour>
      <point x="39" y="163" type="curve"/>
      <point x="48" y="0" type="line"/>
      <point x="72" y="0" type="line"/>
      <point x="212" y="145"/>
      <point x="419" y="363"/>
      <point x="437" y="437" type="curve"/>
      <point x="439" y="457"/>
      <point x="441" y="500"/>
      <point x="441" y="525" type="curve" smooth="yes"/>
      <point x="441" y="563"/>
      <point x="436" y="605"/>
      <point x="419" y="653" type="curve"/>
      <point x="387" y="695"/>
      <point x="283" y="713"/>
      <point x="230" y="713" type="curve" smooth="yes"/>
      <point x="158" y="713"/>
      <point x="96" y="680"/>
      <point x="40" y="633" type="curve"/>
      <point x="114" y="538" type="line"/>
      <point x="141" y="556"/>
      <point x="189" y="579"/>
      <point x="230" y="579" type="curve" smooth="yes"/>
      <point x="278" y="579"/>
      <point x="326" y="557"/>
      <point x="360" y="531" type="curve"/>
      <point x="282" y="636" type="line"/>
      <point x="304" y="577"/>
      <point x="302" y="528"/>
      <point x="294" y="482" type="curve"/>
      <point x="276" y="411"/>
      <point x="193" y="339"/>
    </contour>
    <contour>
      <point x="271" y="0" type="line"/>
      <point x="417" y="0" type="line"/>
      <point x="436" y="31"/>
      <point x="449" y="60"/>
      <point x="458" y="101" type="curve"/>
      <point x="458" y="211" type="line"/>
      <point x="320" y="176" type="line"/>
      <point x="320" y="79" type="line"/>
      <point x="271" y="79" type="line"/>
    </contour>
    <contour>
      <point x="48" y="0" type="line"/>
      <point x="409" y="0" type="line"/>
      <point x="419" y="17"/>
      <point x="427" y="38"/>
      <point x="431" y="65" type="curve"/>
      <point x="417" y="132" type="line"/>
      <point x="48" y="117" type="line"/>
    </contour>
    <contour>
      <point x="147" y="443" type="line"/>
      <point x="145" y="629" type="line"/>
      <point x="40" y="633" type="line"/>
      <point x="20" y="478" type="line"/>
    </contour>
  </outline>
</glyph>
<glyph name="three" format="2">
  <advance width="508"/>
  <unicode hex="0033"/>
  <outline>
    <contour>
      <point x="251" y="-10" type="curve"/>
      <point x="387" y="0"/>
      <point x="478" y="91"/>
      <point x="488" y="223" type="curve"/>
      <point x="480" y="330"/>
      <point x="397" y="440"/>
      <point x="251" y="450" type="curve"/>
      <point x="202" y="347" type="line"/>
      <point x="317" y="342"/>
      <point x="336" y="310"/>
      <point x="344" y="223" type="curve"/>
      <point x="335" y="164"/>
      <point x="294" y="117"/>
      <point x="251" y="117" type="curve"/>
      <point x="228" y="117"/>
      <point x="193" y="138"/>
      <point x="163" y="174" type="curve"/>
      <point x="166" y="255" type="line"/>
      <point x="25" y="219" type="line"/>
      <point x="31" y="93" type="line"/>
      <point x="75" y="29"/>
      <point x="132" y="0"/>
    </contour>
    <contour>
      <point x="153" y="411" type="curve"/>
      <point x="153" y="347" type="line"/>
      <point x="270" y="347" type="line"/>
      <point x="327" y="444"/>
      <point x="379" y="519"/>
      <point x="465" y="641" type="curve"/>
      <point x="464" y="683" type="line"/>
      <point x="373" y="700" type="line"/>
      <point x="296" y="649" type="line"/>
      <point x="255" y="562"/>
      <point x="208" y="486"/>
    </contour>
    <contour>
      <point x="34" y="558" type="curve"/>
      <point x="369" y="568" type="line"/>
      <point x="373" y="700" type="line"/>
      <point x="42" y="700" type="line"/>
      <point x="32" y="677"/>
      <point x="24" y="652"/>
      <point x="20" y="615" type="curve"/>
      <point x="23" y="594"/>
      <point x="28" y="575"/>
    </contour>
  </outline>
</glyph>
<glyph name="four" format="2">
  <advance width="579"/>
  <unicode hex="0034"/>
  <outline>
    <contour>
      <point x="119" y="123" type="curve"/>
      <point x="510" y="120" type="line"/>
      <point x="520" y="138"/>
      <point x="534" y="166"/>
      <point x="544" y="204" type="curve"/>
      <point x="544" y="217"/>
      <point x="541" y="244"/>
      <point x="535" y="262" type="curve"/>
      <point x="490" y="257"/>
      <point x="414" y="254"/>
      <point x="349" y="254" type="curve" smooth="yes"/>
      <point x="313" y="254"/>
      <point x="247" y="257"/>
      <point x="192" y="267" type="curve"/>
      <point x="183" y="281" type="line"/>
      <point x="193" y="390"/>
      <point x="205" y="503"/>
      <point x="266" y="700" type="curve"/>
      <point x="116" y="700" type="line"/>
      <point x="64" y="526"/>
      <point x="36" y="376"/>
      <point x="20" y="209" type="curve"/>
      <point x="45" y="184"/>
      <point x="75" y="156"/>
    </contour>
    <component base="_part.barra" xOffset="250"/>
  </outline>
</glyph>
<glyph name="five" format="2">
  <advance width="488"/>
  <unicode hex="0035"/>
  <outline>
    <contour>
      <point x="248" y="-10" type="curve"/>
      <point x="369" y="13"/>
      <point x="441" y="95"/>
      <point x="458" y="233" type="curve"/>
      <point x="450" y="359"/>
      <point x="412" y="428"/>
      <point x="288" y="470" type="curve"/>
      <point x="221" y="470"/>
      <point x="105" y="439"/>
      <point x="73" y="412" type="curve"/>
      <point x="38" y="362" type="line"/>
      <point x="92" y="314" type="line"/>
      <point x="134" y="334"/>
      <point x="207" y="349"/>
      <point x="258" y="349" type="curve"/>
      <point x="307" y="319"/>
      <point x="315" y="283"/>
      <point x="322" y="223" type="curve"/>
      <point x="311" y="167"/>
      <point x="288" y="140"/>
      <point x="248" y="110" type="curve"/>
      <point x="216" y="118"/>
      <point x="187" y="128"/>
      <point x="172" y="144" type="curve"/>
      <point x="175" y="245" type="line"/>
      <point x="35" y="209" type="line"/>
      <point x="35" y="93" type="line"/>
      <point x="89" y="19"/>
      <point x="144" y="0"/>
    </contour>
    <contour>
      <point x="38" y="362" type="curve"/>
      <point x="173" y="399" type="line"/>
      <point x="167" y="513"/>
      <point x="180" y="633"/>
      <point x="209" y="700" type="curve"/>
      <point x="66" y="683" type="line"/>
      <point x="35" y="595"/>
      <point x="20" y="466"/>
    </contour>
    <contour>
      <point x="436" y="558" type="line"/>
      <point x="446" y="585"/>
      <point x="455" y="623"/>
      <point x="458" y="653" type="curve"/>
      <point x="455" y="673"/>
      <point x="451" y="685"/>
      <point x="444" y="700" type="curve"/>
      <point x="213" y="700" type="line"/>
      <point x="68" y="568" type="line"/>
    </contour>
  </outline>
</glyph>
<glyph name="six" format="2">
  <advance width="518"/>
  <unicode hex="0036"/>
  <outline>
    <contour>
      <point x="273" y="-10" type="curve"/>
      <point x="339" y="-7"/>
      <point x="367" y="8"/>
      <point x="403" y="41" type="curve"/>
      <point x="472" y="117"/>
      <point x="489" y="174"/>
      <point x="499" y="261" type="curve"/>
      <point x="479" y="386"/>
      <point x="402" y="440"/>
      <point x="318" y="460" type="curve"/>
      <point x="195" y="439"/>
      <point x="113" y="383"/>
      <point x="52" y="335" type="curve"/>
      <point x="111" y="251" type="line"/>
      <point x="141" y="284"/>
      <point x="191" y="328"/>
      <point x="281" y="346" type="curve"/>
      <point x="327" y="326"/>
      <point x="358" y="286"/>
      <point x="358" y="255" type="curve" smooth="yes"/>
      <point x="358" y="228"/>
      <point x="355" y="190"/>
      <point x="317" y="142" type="curve"/>
      <point x="308" y="136"/>
      <point x="280" y="132"/>
      <point x="264" y="130" type="curve"/>
      <point x="239" y="135"/>
      <point x="220" y="143"/>
      <point x="202" y="150" type="curve"/>
      <point x="188" y="192"/>
      <point x="172" y="224"/>
      <point x="172" y="310" type="curve" smooth="yes"/>
      <point x="172" y="482"/>
      <point x="188" y="493"/>
      <point x="223" y="565" type="curve"/>
      <point x="244" y="576"/>
      <point x="265" y="578"/>
      <point x="275" y="578" type="curve" smooth="yes"/>
      <point x="292" y="578"/>
      <point x="300" y="575"/>
      <point x="320" y="563" type="curve"/>
      <point x="320" y="497" type="line"/>
      <point x="459" y="513" type="line"/>
      <point x="460" y="529"/>
      <point x="462" y="542"/>
      <point x="462" y="564" type="curve" smooth="yes"/>
      <point x="462" y="594"/>
      <point x="460" y="606"/>
      <point x="449" y="638" type="curve"/>
      <point x="395" y="686"/>
      <point x="357" y="709"/>
      <point x="296" y="709" type="curve" smooth="yes"/>
      <point x="241" y="709"/>
      <point x="154" y="695"/>
      <point x="100" y="669" type="curve"/>
      <point x="54" y="612"/>
      <point x="15" y="386"/>
      <point x="15" y="309" type="curve" smooth="yes"/>
      <point x="15" y="242"/>
      <point x="47" y="131"/>
      <point x="85" y="41" type="curve"/>
      <point x="131" y="4"/>
      <point x="183" y="-7"/>
    </contour>
  </outline>
</glyph>
<glyph name="seven" format="2">
  <advance width="508"/>
  <unicode hex="0037"/>
  <outline>
    <contour>
      <point x="84" y="0" type="curve"/>
      <point x="278" y="0" type="line"/>
      <point x="324" y="247"/>
      <point x="385" y="414"/>
      <point x="488" y="671" type="curve"/>
      <point x="487" y="693" type="line"/>
      <point x="386" y="700" type="line"/>
      <point x="299" y="647" type="line"/>
      <point x="236" y="414"/>
      <point x="174" y="247"/>
    </contour>
    <contour>
      <point x="86" y="270" type="curve"/>
      <point x="263" y="279" type="line"/>
      <point x="326" y="279" type="line"/>
      <point x="429" y="270" type="line"/>
      <point x="439" y="277"/>
      <point x="452" y="294"/>
      <point x="459" y="307" type="curve"/>
      <point x="459" y="357"/>
      <point x="457" y="383"/>
      <point x="449" y="408" type="curve"/>
      <point x="92" y="408" type="line"/>
      <point x="86" y="394"/>
      <point x="78" y="353"/>
      <point x="74" y="317" type="curve"/>
      <point x="77" y="299"/>
      <point x="81" y="281"/>
    </contour>
    <contour>
      <point x="34" y="558" type="curve"/>
      <point x="369" y="568" type="line"/>
      <point x="386" y="700" type="line"/>
      <point x="42" y="700" type="line"/>
      <point x="32" y="677"/>
      <point x="24" y="652"/>
      <point x="20" y="615" type="curve"/>
      <point x="23" y="594"/>
      <point x="28" y="575"/>
    </contour>
  </outline>
</glyph>
<glyph name="eight" format="2">
  <advance width="556"/>
  <unicode hex="0038"/>
  <outline>
    <contour>
      <point x="276" y="-10" type="curve" smooth="yes"/>
      <point x="304" y="-10"/>
      <point x="339" y="-6"/>
      <point x="363" y="0" type="curve"/>
      <point x="418" y="17"/>
      <point x="463" y="51"/>
      <point x="511" y="120" type="curve"/>
      <point x="522" y="155"/>
      <point x="527" y="208"/>
      <point x="511" y="251" type="curve"/>
      <point x="463" y="307"/>
      <point x="404" y="341"/>
      <point x="326" y="383" type="curve" smooth="yes"/>
      <point x="231" y="434" type="line" smooth="yes"/>
      <point x="207" y="447"/>
      <point x="197" y="462"/>
      <point x="187" y="476" type="curve"/>
      <point x="182" y="490"/>
      <point x="186" y="548"/>
      <point x="196" y="560" type="curve"/>
      <point x="218" y="578"/>
      <point x="250" y="592"/>
      <point x="282" y="592" type="curve" smooth="yes"/>
      <point x="319" y="592"/>
      <point x="351" y="578"/>
      <point x="371" y="560" type="curve"/>
      <point x="376" y="540"/>
      <point x="376" y="518"/>
      <point x="372" y="496" type="curve"/>
      <point x="339" y="451"/>
      <point x="282" y="404"/>
      <point x="231" y="379" type="curve"/>
      <point x="322" y="298" type="line"/>
      <point x="346" y="314"/>
      <point x="466" y="396"/>
      <point x="487" y="421" type="curve"/>
      <point x="516" y="491"/>
      <point x="516" y="546"/>
      <point x="483" y="626" type="curve"/>
      <point x="467" y="645"/>
      <point x="403" y="685"/>
      <point x="351" y="700" type="curve"/>
      <point x="328" y="706"/>
      <point x="310" y="710"/>
      <point x="280" y="710" type="curve" smooth="yes"/>
      <point x="248" y="710"/>
      <point x="227" y="706"/>
      <point x="201" y="700" type="curve"/>
      <point x="149" y="685"/>
      <point x="104" y="650"/>
      <point x="67" y="601" type="curve"/>
      <point x="50" y="566"/>
      <point x="41" y="501"/>
      <point x="57" y="446" type="curve"/>
      <point x="78" y="410"/>
      <point x="165" y="368"/>
      <point x="186" y="352" type="curve"/>
      <point x="209" y="337"/>
      <point x="237" y="318"/>
      <point x="262" y="309" type="curve"/>
      <point x="313" y="272"/>
      <point x="349" y="249"/>
      <point x="366" y="223" type="curve"/>
      <point x="372" y="194"/>
      <point x="372" y="186"/>
      <point x="369" y="169" type="curve"/>
      <point x="354" y="147"/>
      <point x="341" y="135"/>
      <point x="319" y="125" type="curve"/>
      <point x="301" y="118"/>
      <point x="287" y="115"/>
      <point x="267" y="115" type="curve" smooth="yes"/>
      <point x="244" y="115"/>
      <point x="228" y="119"/>
      <point x="202" y="129" type="curve"/>
      <point x="191" y="141"/>
      <point x="180" y="159"/>
      <point x="178" y="169" type="curve"/>
      <point x="172" y="178"/>
      <point x="172" y="185"/>
      <point x="178" y="203" type="curve"/>
      <point x="200" y="242"/>
      <point x="260" y="290"/>
      <point x="328" y="321" type="curve"/>
      <point x="221" y="401" type="line"/>
      <point x="150" y="363"/>
      <point x="73" y="296"/>
      <point x="44" y="251" type="curve"/>
      <point x="34" y="218"/>
      <point x="30" y="138"/>
      <point x="44" y="100" type="curve"/>
      <point x="80" y="44"/>
      <point x="131" y="9"/>
      <point x="188" y="0" type="curve"/>
      <point x="208" y="-6"/>
      <point x="243" y="-10"/>
    </contour>
  </outline>
</glyph>
<glyph name="nine" format="2">
  <advance width="518"/>
  <unicode hex="0039"/>
  <outline>
    <contour>
      <point x="222" y="-9" type="curve" smooth="yes"/>
      <point x="297" y="-9"/>
      <point x="376" y="5"/>
      <point x="418" y="25" type="curve"/>
      <point x="469" y="153"/>
      <point x="503" y="302"/>
      <point x="503" y="391" type="curve"/>
      <point x="503" y="458"/>
      <point x="471" y="569"/>
      <point x="433" y="659" type="curve"/>
      <point x="387" y="696"/>
      <point x="335" y="707"/>
      <point x="245" y="710" type="curve"/>
      <point x="179" y="707"/>
      <point x="151" y="692"/>
      <point x="115" y="659" type="curve"/>
      <point x="46" y="583"/>
      <point x="29" y="526"/>
      <point x="19" y="439" type="curve"/>
      <point x="39" y="314"/>
      <point x="116" y="260"/>
      <point x="200" y="240" type="curve"/>
      <point x="323" y="261"/>
      <point x="405" y="317"/>
      <point x="466" y="365" type="curve"/>
      <point x="407" y="449" type="line"/>
      <point x="377" y="416"/>
      <point x="327" y="372"/>
      <point x="237" y="354" type="curve"/>
      <point x="191" y="374"/>
      <point x="160" y="414"/>
      <point x="160" y="445" type="curve" smooth="yes"/>
      <point x="160" y="472"/>
      <point x="163" y="510"/>
      <point x="201" y="558" type="curve"/>
      <point x="210" y="564"/>
      <point x="238" y="568"/>
      <point x="254" y="570" type="curve"/>
      <point x="279" y="565"/>
      <point x="298" y="557"/>
      <point x="316" y="550" type="curve"/>
      <point x="330" y="508"/>
      <point x="346" y="476"/>
      <point x="346" y="390" type="curve"/>
      <point x="346" y="271"/>
      <point x="332" y="170"/>
      <point x="311" y="135" type="curve"/>
      <point x="290" y="124"/>
      <point x="273" y="122"/>
      <point x="263" y="122" type="curve" smooth="yes"/>
      <point x="246" y="122"/>
      <point x="218" y="125"/>
      <point x="198" y="137" type="curve"/>
      <point x="198" y="203" type="line"/>
      <point x="59" y="187" type="line"/>
      <point x="58" y="171"/>
      <point x="56" y="158"/>
      <point x="56" y="136" type="curve" smooth="yes"/>
      <point x="56" y="106"/>
      <point x="58" y="88"/>
      <point x="69" y="56" type="curve"/>
      <point x="123" y="8"/>
      <point x="161" y="-9"/>
    </contour>
  </outline>
</glyph>
<glyph name="less" format="2">
  <advance width="391"/>
  <unicode hex="003C"/>
  <outline>
    <contour>
      <point x="371" y="406" type="curve"/>
      <point x="253" y="530" type="line"/>
      <point x="186" y="438"/>
      <point x="96" y="349"/>
      <point x="11" y="287" type="curve"/>
      <point x="11" y="203" type="line"/>
      <point x="141" y="200" type="line"/>
      <point x="189" y="271"/>
      <point x="260" y="339"/>
    </contour>
    <contour>
      <point x="253" y="-10" type="curve"/>
      <point x="371" y="114" type="line"/>
      <point x="260" y="181"/>
      <point x="189" y="229"/>
      <point x="141" y="290" type="curve"/>
      <point x="11" y="287" type="line"/>
      <point x="11" y="203" type="line"/>
      <point x="96" y="131"/>
      <point x="186" y="52"/>
    </contour>
  </outline>
</glyph>
<glyph name="equal" format="2">
  <advance width="414"/>
  <unicode hex="003D"/>
  <outline>
    <contour>
      <point x="25" y="341" type="curve"/>
      <point x="35" y="301" type="line"/>
      <point x="187" y="311" type="line"/>
      <point x="351" y="301" type="line"/>
      <point x="374" y="331"/>
      <point x="386" y="360"/>
      <point x="389" y="390" type="curve"/>
      <point x="379" y="430" type="line"/>
      <point x="63" y="430" type="line"/>
      <point x="45" y="400"/>
      <point x="33" y="371"/>
    </contour>
    <contour>
      <point x="25" y="132" type="curve"/>
      <point x="35" y="92" type="line"/>
      <point x="187" y="102" type="line"/>
      <point x="351" y="92" type="line"/>
      <point x="374" y="122"/>
      <point x="386" y="151"/>
      <point x="389" y="181" type="curve"/>
      <point x="379" y="221" type="line"/>
      <point x="63" y="221" type="line"/>
      <point x="45" y="191"/>
      <point x="33" y="162"/>
    </contour>
  </outline>
</glyph>
<glyph name="greater" format="2">
  <advance width="400"/>
  <unicode hex="003E"/>
  <outline>
    <contour>
      <point x="138" y="530" type="curve"/>
      <point x="20" y="406" type="line"/>
      <point x="131" y="339"/>
      <point x="202" y="271"/>
      <point x="250" y="200" type="curve"/>
      <point x="380" y="203" type="line"/>
      <point x="380" y="287" type="line"/>
      <point x="295" y="349"/>
      <point x="205" y="438"/>
    </contour>
    <contour>
      <point x="20" y="114" type="curve"/>
      <point x="138" y="-10" type="line"/>
      <point x="205" y="52"/>
      <point x="295" y="131"/>
      <point x="380" y="203" type="curve"/>
      <point x="380" y="287" type="line"/>
      <point x="250" y="290" type="line"/>
      <point x="202" y="229"/>
      <point x="131" y="181"/>
    </contour>
  </outline>
</glyph>
<glyph name="question" format="2">
  <advance width="471"/>
  <unicode hex="003F"/>
  <outline>
    <contour>
      <point x="154" y="342" type="curve"/>
      <point x="151" y="202" type="line"/>
      <point x="306" y="212" type="line"/>
      <point x="299" y="295" type="line"/>
      <point x="352" y="317"/>
      <point x="386" y="333"/>
      <point x="415" y="379" type="curve"/>
      <point x="432" y="422"/>
      <point x="446" y="463"/>
      <point x="446" y="538" type="curve"/>
      <point x="439" y="605"/>
      <point x="432" y="633"/>
      <point x="413" y="680" type="curve"/>
      <point x="373" y="693"/>
      <point x="277" y="710"/>
      <point x="234" y="710" type="curve" smooth="yes"/>
      <point x="188" y="710"/>
      <point x="90" y="699"/>
      <point x="15" y="643" type="curve"/>
      <point x="130" y="556" type="line"/>
      <point x="150" y="567"/>
      <point x="203" y="573"/>
      <point x="234" y="573" type="curve" smooth="yes"/>
      <point x="259" y="573"/>
      <point x="267" y="567"/>
      <point x="297" y="556" type="curve"/>
      <point x="309" y="498"/>
      <point x="302" y="476"/>
      <point x="292" y="431" type="curve"/>
      <point x="263" y="410"/>
      <point x="225" y="372"/>
    </contour>
    <contour>
      <point x="150" y="0" type="line"/>
      <point x="309" y="0" type="line"/>
      <point x="307" y="164" type="line"/>
      <point x="150" y="154" type="line"/>
    </contour>
    <contour>
      <point x="143" y="470" type="line"/>
      <point x="141" y="636" type="line"/>
      <point x="15" y="643" type="line"/>
      <point x="5" y="505" type="line"/>
    </contour>
  </outline>
</glyph>
<glyph name="at" format="2">
  <advance width="743"/>
  <unicode hex="0040"/>
  <outline>
    <contour>
      <point x="201" y="0" type="curve"/>
      <point x="597" y="0" type="line"/>
      <point x="717" y="63" type="line"/>
      <point x="661" y="169" type="line"/>
      <point x="573" y="115" type="line"/>
      <point x="487" y="101"/>
      <point x="352" y="100"/>
      <point x="258" y="114" type="curve"/>
      <point x="185" y="202"/>
      <point x="149" y="268"/>
      <point x="146" y="377" type="curve"/>
      <point x="187" y="480"/>
      <point x="245" y="565"/>
      <point x="309" y="631" type="curve"/>
      <point x="422" y="629"/>
      <point x="518" y="604"/>
      <point x="610" y="555" type="curve"/>
      <point x="604" y="454"/>
      <point x="588" y="364"/>
      <point x="548" y="258" type="curve"/>
      <point x="470" y="239" type="line"/>
      <point x="423" y="175" type="line"/>
      <point x="560" y="175" type="line"/>
      <point x="661" y="231" type="line"/>
      <point x="708" y="372"/>
      <point x="726" y="502"/>
      <point x="733" y="643" type="curve"/>
      <point x="624" y="694"/>
      <point x="464" y="726"/>
      <point x="335" y="737" type="curve"/>
      <point x="201" y="694" type="line"/>
      <point x="131" y="615"/>
      <point x="64" y="511"/>
      <point x="10" y="382" type="curve"/>
      <point x="27" y="245"/>
      <point x="94" y="107"/>
    </contour>
    <contour>
      <point x="289" y="175" type="curve"/>
      <point x="373" y="175" type="line"/>
      <point x="396" y="213"/>
      <point x="420" y="288"/>
      <point x="432" y="360" type="curve"/>
      <point x="433" y="448" type="line"/>
      <point x="421" y="448" type="line"/>
      <point x="398" y="364"/>
      <point x="355" y="252"/>
      <point x="319" y="201" type="curve"/>
      <point x="372" y="224" type="line"/>
      <point x="309" y="281" type="line"/>
      <point x="319" y="335"/>
      <point x="331" y="393"/>
      <point x="361" y="453" type="curve"/>
      <point x="387" y="460"/>
      <point x="424" y="458"/>
      <point x="453" y="448" type="curve"/>
      <point x="520" y="531" type="line"/>
      <point x="473" y="534"/>
      <point x="427" y="535"/>
      <point x="406" y="535" type="curve" smooth="yes"/>
      <point x="384" y="535"/>
      <point x="340" y="534"/>
      <point x="320" y="531" type="curve"/>
      <point x="278" y="497" type="line"/>
      <point x="247" y="433"/>
      <point x="221" y="341"/>
      <point x="208" y="245" type="curve"/>
      <point x="230" y="217"/>
      <point x="262" y="190"/>
    </contour>
    <contour>
      <point x="413" y="175" type="curve"/>
      <point x="523" y="175" type="line"/>
      <point x="518" y="251"/>
      <point x="516" y="306"/>
      <point x="516" y="344" type="curve" smooth="yes"/>
      <point x="516" y="381"/>
      <point x="518" y="467"/>
      <point x="520" y="531" type="curve"/>
      <point x="417" y="531" type="line"/>
      <point x="419" y="467"/>
      <point x="420" y="381"/>
      <point x="420" y="344" type="curve" smooth="yes"/>
      <point x="420" y="306"/>
      <point x="419" y="251"/>
    </contour>
  </outline>
</glyph>
<glyph name="A" format="2">
  <advance width="573"/>
  <unicode hex="0041"/>
  <anchor x="282" y="0" name="bottom"/>
  <anchor x="485" y="0" name="ogonek"/>
  <anchor x="282" y="700" name="top"/>
  <outline>
    <contour>
      <point x="411" y="165" type="line"/>
      <point x="410" y="283" type="line"/>
      <point x="142" y="283" type="line"/>
      <point x="142" y="172" type="line"/>
    </contour>
    <component base="V" xScale="-1" yScale="-1" xOffset="573" yOffset="700"/>
  </outline>
</glyph>
<glyph name="B" format="2">
  <advance width="538"/>
  <unicode hex="0042"/>
  <anchor x="255" y="0" name="bottom"/>
  <anchor x="255" y="700" name="top"/>
  <outline>
    <contour>
      <point x="85" y="328" type="line"/>
      <point x="292" y="339" type="line"/>
      <point x="360" y="339"/>
      <point x="441" y="438"/>
      <point x="471" y="510" type="curve"/>
      <point x="461" y="578"/>
      <point x="430" y="653"/>
      <point x="394" y="698" type="curve"/>
      <point x="307" y="717"/>
      <point x="127" y="713"/>
      <point x="35" y="700" type="curve"/>
      <point x="50" y="557" type="line"/>
      <point x="131" y="585"/>
      <point x="234" y="594"/>
      <point x="306" y="582" type="curve"/>
      <point x="316" y="562"/>
      <point x="324" y="540"/>
      <point x="329" y="519" type="curve"/>
      <point x="323" y="484"/>
      <point x="306" y="453"/>
      <point x="292" y="437" type="curve"/>
      <point x="77" y="445" type="line"/>
    </contour>
    <contour>
      <point x="114" y="188" type="curve"/>
      <point x="113" y="0" type="line"/>
      <point x="297" y="0" type="line" smooth="yes"/>
      <point x="341" y="0"/>
      <point x="389" y="8"/>
      <point x="416" y="19" type="curve"/>
      <point x="446" y="44"/>
      <point x="461" y="65"/>
      <point x="475" y="91" type="curve" smooth="yes"/>
      <point x="490" y="117"/>
      <point x="518" y="180"/>
      <point x="518" y="264" type="curve"/>
      <point x="508" y="303"/>
      <point x="492" y="329"/>
      <point x="458" y="349" type="curve" smooth="yes"/>
      <point x="391" y="389"/>
      <point x="319" y="402"/>
      <point x="261" y="396" type="curve"/>
      <point x="223" y="338" type="line"/>
      <point x="289" y="338"/>
      <point x="338" y="304"/>
      <point x="367" y="253" type="curve"/>
      <point x="367" y="225"/>
      <point x="358" y="190"/>
      <point x="351" y="172" type="curve" smooth="yes"/>
      <point x="342" y="149"/>
      <point x="329" y="136"/>
      <point x="318" y="129" type="curve"/>
      <point x="227" y="125"/>
      <point x="150" y="155"/>
    </contour>
    <component base="_part.barra" xOffset="-25"/>
  </outline>
</glyph>
<glyph name="C" format="2">
  <advance width="504"/>
  <unicode hex="0043"/>
  <anchor x="258" y="0" name="bottom"/>
  <anchor x="281" y="710" name="top"/>
  <outline>
    <contour>
      <point x="314" y="-5" type="curve" smooth="yes"/>
      <point x="354" y="-5"/>
      <point x="402" y="5"/>
      <point x="434" y="20" type="curve"/>
      <point x="434" y="140" type="line"/>
      <point x="386" y="130"/>
      <point x="340" y="120"/>
      <point x="314" y="120" type="curve" smooth="yes"/>
      <point x="264" y="120"/>
      <point x="204" y="130"/>
      <point x="163" y="146" type="curve"/>
      <point x="297" y="63" type="line"/>
      <point x="233" y="113"/>
      <point x="185" y="206"/>
      <point x="176" y="294" type="curve"/>
      <point x="189" y="401"/>
      <point x="220" y="512"/>
      <point x="256" y="571" type="curve"/>
      <point x="267" y="576"/>
      <point x="283" y="579"/>
      <point x="301" y="579" type="curve" smooth="yes"/>
      <point x="319" y="579"/>
      <point x="337" y="576"/>
      <point x="351" y="571" type="curve"/>
      <point x="445" y="683" type="line"/>
      <point x="392" y="700"/>
      <point x="350" y="710"/>
      <point x="310" y="710" type="curve" smooth="yes"/>
      <point x="250" y="710"/>
      <point x="189" y="699"/>
      <point x="158" y="683" type="curve"/>
      <point x="94" y="610"/>
      <point x="20" y="375"/>
      <point x="20" y="279" type="curve"/>
      <point x="20" y="209"/>
      <point x="75" y="60"/>
      <point x="135" y="10" type="curve"/>
      <point x="177" y="1"/>
      <point x="220" y="-5"/>
    </contour>
    <contour>
      <point x="336" y="72" type="curve"/>
      <point x="434" y="20" type="line"/>
      <point x="465" y="53"/>
      <point x="483" y="93"/>
      <point x="489" y="135" type="curve"/>
      <point x="487" y="177"/>
      <point x="485" y="218"/>
      <point x="482" y="236" type="curve"/>
      <point x="331" y="200" type="line"/>
      <point x="346" y="153"/>
      <point x="348" y="102"/>
    </contour>
    <contour>
      <point x="338" y="493" type="line"/>
      <point x="465" y="523" type="line"/>
      <point x="445" y="683" type="line"/>
      <point x="340" y="679" type="line"/>
    </contour>
  </outline>
</glyph>
<glyph name="D" format="2">
  <advance width="522"/>
  <unicode hex="0044"/>
  <anchor x="236" y="0" name="bottom"/>
  <anchor x="127" y="350" name="center"/>
  <anchor x="193" y="700" name="top"/>
  <outline>
    <contour>
      <point x="88" y="138" type="curve"/>
      <point x="85" y="0" type="line"/>
      <point x="296" y="0" type="line"/>
      <point x="344" y="10"/>
      <point x="379" y="29"/>
      <point x="403" y="56" type="curve"/>
      <point x="443" y="120"/>
      <point x="507" y="288"/>
      <point x="507" y="392" type="curve" smooth="yes"/>
      <point x="507" y="481"/>
      <point x="443" y="602"/>
      <point x="346" y="694" type="curve"/>
      <point x="321" y="706"/>
      <point x="280" y="712"/>
      <point x="220" y="712" type="curve" smooth="yes"/>
      <point x="171" y="712"/>
      <point x="110" y="708"/>
      <point x="35" y="700" type="curve"/>
      <point x="59" y="577" type="line"/>
      <point x="127" y="592"/>
      <point x="243" y="595"/>
      <point x="347" y="586" type="curve"/>
      <point x="216" y="619" type="line"/>
      <point x="282" y="591"/>
      <point x="318" y="534"/>
      <point x="356" y="412" type="curve"/>
      <point x="356" y="306"/>
      <point x="323" y="173"/>
      <point x="249" y="40" type="curve"/>
      <point x="336" y="128" type="line"/>
      <point x="241" y="128"/>
      <point x="142" y="132"/>
    </contour>
    <component base="_part.barra" xOffset="-25"/>
  </outline>
</glyph>
<glyph name="E" format="2">
  <advance width="491"/>
  <unicode hex="0045"/>
  <guideline x="382" y="363" angle="90"/>
  <anchor x="246" y="0" name="bottom"/>
  <anchor x="369" y="0" name="ogonek"/>
  <anchor x="246" y="700" name="top"/>
  <anchor x="20" y="700" name="topleft"/>
  <outline>
    <contour>
      <point x="454" y="558" type="line"/>
      <point x="464" y="585"/>
      <point x="472" y="616"/>
      <point x="476" y="653" type="curve"/>
      <point x="462" y="700" type="line"/>
      <point x="104" y="700" type="line"/>
      <point x="102" y="578" type="line"/>
    </contour>
    <contour>
      <point x="107" y="0" type="line"/>
      <point x="442" y="0" type="line"/>
      <point x="452" y="17"/>
      <point x="460" y="48"/>
      <point x="464" y="85" type="curve"/>
      <point x="461" y="105"/>
      <point x="456" y="124"/>
      <point x="450" y="142" type="curve"/>
      <point x="107" y="122" type="line"/>
    </contour>
    <contour>
      <point x="354" y="274" type="line"/>
      <point x="373" y="299"/>
      <point x="385" y="330"/>
      <point x="392" y="363" type="curve"/>
      <point x="382" y="413" type="line"/>
      <point x="107" y="403" type="line"/>
      <point x="107" y="284" type="line"/>
    </contour>
    <component base="_part.barra" xOffset="-25"/>
  </outline>
</glyph>
<glyph name="F" format="2">
  <advance width="481"/>
  <unicode hex="0046"/>
  <anchor x="251" y="0" name="bottom"/>
  <anchor x="251" y="700" name="top"/>
  <outline>
    <contour>
      <point x="444" y="558" type="line"/>
      <point x="454" y="585"/>
      <point x="462" y="616"/>
      <point x="466" y="653" type="curve"/>
      <point x="452" y="700" type="line"/>
      <point x="104" y="700" type="line"/>
      <point x="102" y="578" type="line"/>
    </contour>
    <contour>
      <point x="354" y="244" type="line"/>
      <point x="373" y="274"/>
      <point x="385" y="305"/>
      <point x="392" y="333" type="curve"/>
      <point x="382" y="383" type="line"/>
      <point x="107" y="373" type="line"/>
      <point x="107" y="254" type="line"/>
    </contour>
    <component base="_part.barra" xOffset="-25"/>
  </outline>
</glyph>
<glyph name="G" format="2">
  <advance width="530"/>
  <unicode hex="0047"/>
  <anchor x="265" y="0" name="bottom"/>
  <anchor x="265" y="700" name="top"/>
  <outline>
    <contour>
      <point x="324" y="-5" type="curve" smooth="yes"/>
      <point x="376" y="-5"/>
      <point x="403" y="1"/>
      <point x="434" y="10" type="curve"/>
      <point x="434" y="140" type="line"/>
      <point x="386" y="130"/>
      <point x="340" y="120"/>
      <point x="314" y="120" type="curve" smooth="yes"/>
      <point x="290" y="120"/>
      <point x="264" y="122"/>
      <point x="239" y="126" type="curve"/>
      <point x="205" y="175"/>
      <point x="182" y="236"/>
      <point x="176" y="294" type="curve"/>
      <point x="189" y="401"/>
      <point x="220" y="512"/>
      <point x="256" y="571" type="curve"/>
      <point x="267" y="576"/>
      <point x="283" y="579"/>
      <point x="301" y="579" type="curve" smooth="yes"/>
      <point x="319" y="579"/>
      <point x="337" y="576"/>
      <point x="351" y="571" type="curve"/>
      <point x="445" y="683" type="line"/>
      <point x="392" y="700"/>
      <point x="350" y="710"/>
      <point x="310" y="710" type="curve" smooth="yes"/>
      <point x="250" y="710"/>
      <point x="189" y="699"/>
      <point x="158" y="683" type="curve"/>
      <point x="94" y="610"/>
      <point x="20" y="375"/>
      <point x="20" y="279" type="curve"/>
      <point x="20" y="209"/>
      <point x="75" y="60"/>
      <point x="135" y="10" type="curve"/>
      <point x="177" y="1"/>
      <point x="230" y="-5"/>
    </contour>
    <contour>
      <point x="434" y="10" type="line"/>
      <point x="469" y="42"/>
      <point x="497" y="86"/>
      <point x="505" y="121" type="curve"/>
      <point x="505" y="251"/>
      <point x="499" y="342"/>
      <point x="491" y="375" type="curve"/>
      <point x="256" y="375" type="line"/>
      <point x="250" y="361"/>
      <point x="246" y="337"/>
      <point x="246" y="315" type="curve"/>
      <point x="264" y="236" type="line"/>
      <point x="429" y="244" type="line"/>
      <point x="383" y="279" type="line"/>
      <point x="385" y="238"/>
      <point x="383" y="145"/>
      <point x="379" y="84" type="curve"/>
      <point x="335" y="35" type="line"/>
    </contour>
    <contour>
      <point x="339" y="493" type="line"/>
      <point x="466" y="523" type="line"/>
      <point x="446" y="683" type="line"/>
      <point x="341" y="679" type="line"/>
    </contour>
  </outline>
</glyph>
<glyph name="H" format="2">
  <advance width="587"/>
  <unicode hex="0048"/>
  <anchor x="295" y="0" name="bottom"/>
  <anchor x="295" y="350" name="center"/>
  <anchor x="295" y="700" name="top"/>
  <anchor x="-5" y="700" name="topleft"/>
  <outline>
    <contour>
      <point x="103" y="263" type="line"/>
      <point x="295" y="276" type="line"/>
      <point x="487" y="263" type="line"/>
      <point x="493" y="415" type="line"/>
      <point x="295" y="404" type="line"/>
      <point x="95" y="415" type="line"/>
    </contour>
    <component base="_part.barra" xOffset="-25"/>
    <component base="_part.barra" xOffset="325"/>
  </outline>
</glyph>
<glyph name="J" format="2">
  <advance width="560"/>
  <unicode hex="004A"/>
  <anchor x="281" y="0" name="bottom"/>
  <anchor x="381" y="700" name="top"/>
  <outline>
    <contour>
      <point x="274" y="-20" type="curve" smooth="yes"/>
      <point x="327" y="-20"/>
      <point x="375" y="-16"/>
      <point x="422" y="0" type="curve"/>
      <point x="463" y="23"/>
      <point x="482" y="61"/>
      <point x="503" y="97" type="curve"/>
      <point x="513" y="133"/>
      <point x="519" y="173"/>
      <point x="519" y="215" type="curve" smooth="yes"/>
      <point x="519" y="368"/>
      <point x="494" y="548"/>
      <point x="473" y="660" type="curve"/>
      <point x="325" y="660" type="line"/>
      <point x="355" y="528"/>
      <point x="370" y="384"/>
      <point x="370" y="184" type="curve"/>
      <point x="356" y="155"/>
      <point x="345" y="138"/>
      <point x="330" y="124" type="curve"/>
      <point x="314" y="114"/>
      <point x="298" y="108"/>
      <point x="274" y="108" type="curve" smooth="yes"/>
      <point x="262" y="108"/>
      <point x="238" y="113"/>
      <point x="220" y="120" type="curve"/>
      <point x="199" y="134"/>
      <point x="181" y="155"/>
      <point x="163" y="184" type="curve"/>
      <point x="174" y="238"/>
      <point x="193" y="263"/>
      <point x="224" y="329" type="curve"/>
      <point x="83" y="368" type="line"/>
      <point x="48" y="300"/>
      <point x="32" y="249"/>
      <point x="18" y="180" type="curve" smooth="yes"/>
      <point x="17" y="175"/>
      <point x="15" y="154"/>
      <point x="15" y="145" type="curve"/>
      <point x="18" y="136"/>
      <point x="21" y="130"/>
      <point x="26" y="122" type="curve" smooth="yes"/>
      <point x="60" y="69"/>
      <point x="101" y="27"/>
      <point x="139" y="-1" type="curve"/>
      <point x="179" y="-16"/>
      <point x="240" y="-20"/>
    </contour>
    <contour>
      <point x="78" y="558" type="curve"/>
      <point x="523" y="568" type="line"/>
      <point x="534" y="591"/>
      <point x="542" y="622"/>
      <point x="545" y="653" type="curve"/>
      <point x="543" y="671"/>
      <point x="538" y="687"/>
      <point x="531" y="700" type="curve"/>
      <point x="86" y="700" type="line"/>
      <point x="78" y="683"/>
      <point x="65" y="642"/>
      <point x="64" y="605" type="curve"/>
      <point x="67" y="575"/>
      <point x="72" y="566"/>
    </contour>
  </outline>
</glyph>
<glyph name="K" format="2">
  <advance width="565"/>
  <unicode hex="004B"/>
  <anchor x="273" y="0" name="bottom"/>
  <anchor x="274" y="700" name="top"/>
  <outline>
    <contour>
      <point x="104" y="335" type="curve"/>
      <point x="101" y="204" type="line"/>
      <point x="205" y="214"/>
      <point x="328" y="245"/>
      <point x="391" y="291" type="curve"/>
      <point x="460" y="402"/>
      <point x="484" y="576"/>
      <point x="495" y="700" type="curve"/>
      <point x="330" y="700" type="line"/>
      <point x="330" y="591"/>
      <point x="318" y="470"/>
      <point x="276" y="376" type="curve"/>
      <point x="215" y="342"/>
      <point x="175" y="340"/>
    </contour>
    <contour>
      <point x="410" y="-20" type="curve"/>
      <point x="550" y="81" type="line"/>
      <point x="463" y="127"/>
      <point x="382" y="197"/>
      <point x="356" y="309" type="curve"/>
      <point x="231" y="301" type="line"/>
      <point x="252" y="190"/>
      <point x="335" y="27"/>
    </contour>
    <component base="_part.barra" xOffset="-15"/>
  </outline>
</glyph>
<glyph name="L" format="2">
  <advance width="429"/>
  <unicode hex="004C"/>
  <anchor x="215" y="0" name="bottom"/>
  <anchor x="119" y="350" name="center"/>
  <anchor x="119" y="700" name="top"/>
  <anchor x="301" y="500" name="topright"/>
  <outline>
    <contour>
      <point x="57" y="0" type="line"/>
      <point x="392" y="0" type="line"/>
      <point x="402" y="17"/>
      <point x="410" y="48"/>
      <point x="414" y="85" type="curve"/>
      <point x="411" y="105"/>
      <point x="406" y="124"/>
      <point x="400" y="142" type="curve"/>
      <point x="57" y="112" type="line"/>
    </contour>
    <component base="_part.barra" xOffset="-25"/>
  </outline>
</glyph>
<glyph name="M" format="2">
  <advance width="755"/>
  <unicode hex="004D"/>
  <anchor x="378" y="0" name="bottom"/>
  <anchor x="378" y="700" name="top"/>
  <outline>
    <contour>
      <point x="321" y="145" type="curve"/>
      <point x="444" y="186" type="line"/>
      <point x="352" y="428" type="line"/>
      <point x="264" y="700" type="line"/>
      <point x="152" y="676" type="line"/>
      <point x="242" y="434"/>
      <point x="270" y="308"/>
    </contour>
    <contour>
      <point x="20" y="0" type="curve"/>
      <point x="185" y="0" type="line"/>
      <point x="190" y="83"/>
      <point x="200" y="210"/>
      <point x="211" y="328" type="curve" smooth="yes"/>
      <point x="222" y="447"/>
      <point x="234" y="587"/>
      <point x="242" y="631" type="curve"/>
      <point x="264" y="700" type="line"/>
      <point x="109" y="700" type="line"/>
      <point x="98" y="589"/>
      <point x="83" y="461"/>
      <point x="67" y="339" type="curve" smooth="yes"/>
      <point x="50" y="209"/>
      <point x="33" y="87"/>
    </contour>
    <contour>
      <point x="444" y="186" type="line"/>
      <point x="484" y="322"/>
      <point x="534" y="509"/>
      <point x="603" y="676" type="curve"/>
      <point x="491" y="700" type="line"/>
      <point x="403" y="428" type="line"/>
      <point x="326" y="236" type="line"/>
    </contour>
    <contour>
      <point x="570" y="0" type="curve"/>
      <point x="735" y="0" type="line"/>
      <point x="722" y="87"/>
      <point x="705" y="209"/>
      <point x="688" y="339" type="curve" smooth="yes"/>
      <point x="672" y="461"/>
      <point x="657" y="589"/>
      <point x="646" y="700" type="curve"/>
      <point x="491" y="700" type="line"/>
      <point x="513" y="631" type="line"/>
      <point x="521" y="587"/>
      <point x="532" y="447"/>
      <point x="544" y="328" type="curve" smooth="yes"/>
      <point x="556" y="210"/>
      <point x="565" y="83"/>
    </contour>
  </outline>
</glyph>
<glyph name="N" format="2">
  <advance width="588"/>
  <unicode hex="004E"/>
  <anchor x="302" y="0" name="bottom"/>
  <anchor x="302" y="700" name="top"/>
  <outline>
    <contour>
      <point x="386" y="0" type="line"/>
      <point x="543" y="0" type="line"/>
      <point x="344" y="382" type="line"/>
      <point x="202" y="700" type="line"/>
      <point x="58" y="662" type="line"/>
      <point x="251" y="293" type="line"/>
    </contour>
    <component base="_part.barra" xOffset="-25"/>
    <component base="_part.barra" xOffset="326"/>
  </outline>
</glyph>
<glyph name="O" format="2">
  <advance width="590"/>
  <unicode hex="004F"/>
  <guideline x="301" y="645" angle="270"/>
  <anchor x="296" y="0" name="bottom"/>
  <anchor x="290" y="350" name="center"/>
  <anchor x="385" y="10" name="ogonek"/>
  <anchor x="296" y="700" name="top"/>
  <anchor x="16" y="700" name="topleft"/>
  <anchor x="575" y="700" name="topright"/>
  <outline>
    <contour>
      <point x="301" y="-15" type="curve" smooth="yes"/>
      <point x="350" y="-15"/>
      <point x="409" y="-9"/>
      <point x="454" y="0" type="curve"/>
      <point x="529" y="107"/>
      <point x="570" y="224"/>
      <point x="570" y="286" type="curve" smooth="yes"/>
      <point x="570" y="396"/>
      <point x="519" y="555"/>
      <point x="445" y="683" type="curve"/>
      <point x="392" y="700"/>
      <point x="341" y="710"/>
      <point x="301" y="710" type="curve" smooth="yes"/>
      <point x="241" y="710"/>
      <point x="189" y="699"/>
      <point x="158" y="683" type="curve"/>
      <point x="94" y="610"/>
      <point x="20" y="375"/>
      <point x="20" y="279" type="curve" smooth="yes"/>
      <point x="20" y="209"/>
      <point x="80" y="50"/>
      <point x="140" y="0" type="curve"/>
      <point x="182" y="-9"/>
      <point x="243" y="-15"/>
    </contour>
    <contour>
      <point x="301" y="110" type="curve" smooth="yes"/>
      <point x="281" y="110"/>
      <point x="260" y="112"/>
      <point x="241" y="115" type="curve"/>
      <point x="207" y="166"/>
      <point x="182" y="235"/>
      <point x="176" y="294" type="curve"/>
      <point x="189" y="401"/>
      <point x="220" y="511"/>
      <point x="256" y="570" type="curve"/>
      <point x="267" y="575"/>
      <point x="283" y="579"/>
      <point x="301" y="579" type="curve" smooth="yes"/>
      <point x="313" y="579"/>
      <point x="329" y="574"/>
      <point x="340" y="571" type="curve"/>
      <point x="378" y="494"/>
      <point x="405" y="389"/>
      <point x="419" y="288" type="curve"/>
      <point x="414" y="240"/>
      <point x="386" y="171"/>
      <point x="353" y="115" type="curve"/>
      <point x="334" y="112"/>
      <point x="324" y="110"/>
    </contour>
  </outline>
</glyph>
<glyph name="P" format="2">
  <advance width="512"/>
  <unicode hex="0050"/>
  <outline>
    <contour>
      <point x="106" y="301" type="curve"/>
      <point x="106" y="157" type="line"/>
      <point x="224" y="157"/>
      <point x="321" y="179"/>
      <point x="378" y="199" type="curve"/>
      <point x="409" y="232"/>
      <point x="446" y="285"/>
      <point x="462" y="319" type="curve" smooth="yes"/>
      <point x="479" y="353"/>
      <point x="492" y="432"/>
      <point x="492" y="500" type="curve" smooth="yes"/>
      <point x="492" y="544"/>
      <point x="451" y="625"/>
      <point x="389" y="698" type="curve"/>
      <point x="347" y="707"/>
      <point x="284" y="711"/>
      <point x="220" y="711" type="curve" smooth="yes"/>
      <point x="152" y="711"/>
      <point x="82" y="707"/>
      <point x="35" y="700" type="curve"/>
      <point x="65" y="557" type="line"/>
      <point x="200" y="587"/>
      <point x="319" y="597"/>
      <point x="363" y="582" type="curve"/>
      <point x="256" y="655" type="line"/>
      <point x="295" y="599"/>
      <point x="334" y="530"/>
      <point x="344" y="492" type="curve"/>
      <point x="339" y="412"/>
      <point x="332" y="383"/>
      <point x="316" y="338" type="curve"/>
      <point x="305" y="326"/>
      <point x="288" y="315"/>
      <point x="270" y="309" type="curve"/>
      <point x="224" y="302"/>
      <point x="151" y="297"/>
    </contour>
    <component base="_part.barra" xOffset="-25"/>
  </outline>
</glyph>
<glyph name="Q" format="2">
  <advance width="590"/>
  <unicode hex="0051"/>
  <outline>
    <contour>
      <point x="446" y="-103" type="curve"/>
      <point x="559" y="2" type="line"/>
      <point x="514" y="17"/>
      <point x="464" y="36"/>
      <point x="439" y="70" type="curve"/>
      <point x="414" y="104"/>
      <point x="386" y="151"/>
      <point x="374" y="242" type="curve"/>
      <point x="259" y="221" type="line"/>
      <point x="264" y="152"/>
      <point x="278" y="115"/>
      <point x="312" y="47" type="curve" smooth="yes"/>
      <point x="338" y="-6"/>
      <point x="366" y="-52"/>
    </contour>
    <component base="O"/>
  </outline>
</glyph>
<glyph name="R" format="2">
  <advance width="530"/>
  <unicode hex="0052"/>
  <anchor x="215" y="0" name="bottom"/>
  <anchor x="215" y="700" name="top"/>
  <outline>
    <contour>
      <point x="115" y="331" type="curve"/>
      <point x="115" y="193" type="line"/>
      <point x="176" y="193"/>
      <point x="295" y="210"/>
      <point x="352" y="230" type="curve"/>
      <point x="401" y="261"/>
      <point x="447" y="318"/>
      <point x="467" y="359" type="curve" smooth="yes"/>
      <point x="478" y="381"/>
      <point x="497" y="495"/>
      <point x="497" y="520" type="curve" smooth="yes"/>
      <point x="497" y="552"/>
      <point x="455" y="623"/>
      <point x="393" y="698" type="curve"/>
      <point x="306" y="717"/>
      <point x="136" y="713"/>
      <point x="44" y="700" type="curve"/>
      <point x="64" y="557" type="line"/>
      <point x="180" y="583"/>
      <point x="301" y="593"/>
      <point x="367" y="582" type="curve"/>
      <point x="270" y="655" type="line"/>
      <point x="299" y="599"/>
      <point x="338" y="550"/>
      <point x="348" y="512" type="curve"/>
      <point x="342" y="452"/>
      <point x="335" y="413"/>
      <point x="319" y="368" type="curve"/>
      <point x="311" y="359"/>
      <point x="293" y="347"/>
      <point x="274" y="339" type="curve"/>
      <point x="228" y="332"/>
      <point x="160" y="327"/>
    </contour>
    <contour>
      <point x="390" y="-20" type="curve"/>
      <point x="510" y="85" type="line"/>
      <point x="423" y="131"/>
      <point x="342" y="221"/>
      <point x="316" y="333" type="curve"/>
      <point x="211" y="301" type="line"/>
      <point x="232" y="190"/>
      <point x="315" y="27"/>
    </contour>
    <component base="_part.barra" xOffset="-16"/>
  </outline>
</glyph>
<glyph name="S" format="2">
  <advance width="492"/>
  <unicode hex="0053"/>
  <anchor x="230" y="-10" name="bottom"/>
  <anchor x="246" y="700" name="top"/>
  <outline>
    <contour>
      <point x="210" y="-20" type="curve" smooth="yes"/>
      <point x="263" y="-20"/>
      <point x="339" y="-13"/>
      <point x="379" y="0" type="curve"/>
      <point x="408" y="32"/>
      <point x="462" y="112"/>
      <point x="472" y="142" type="curve"/>
      <point x="472" y="217"/>
      <point x="458" y="308"/>
      <point x="441" y="351" type="curve"/>
      <point x="402" y="378"/>
      <point x="314" y="403"/>
      <point x="265" y="420" type="curve" smooth="yes"/>
      <point x="215" y="437"/>
      <point x="202" y="451"/>
      <point x="172" y="472" type="curve"/>
      <point x="166" y="495"/>
      <point x="165" y="514"/>
      <point x="165" y="528" type="curve"/>
      <point x="172" y="551"/>
      <point x="183" y="567"/>
      <point x="197" y="585" type="curve"/>
      <point x="209" y="589"/>
      <point x="222" y="591"/>
      <point x="237" y="591" type="curve" smooth="yes"/>
      <point x="252" y="591"/>
      <point x="276" y="587"/>
      <point x="292" y="578" type="curve"/>
      <point x="291" y="508" type="line"/>
      <point x="428" y="538" type="line"/>
      <point x="418" y="679" type="line"/>
      <point x="383" y="689"/>
      <point x="333" y="703"/>
      <point x="247" y="710" type="curve"/>
      <point x="179" y="705"/>
      <point x="121" y="698"/>
      <point x="92" y="679" type="curve"/>
      <point x="52" y="618"/>
      <point x="36" y="580"/>
      <point x="20" y="500" type="curve"/>
      <point x="24" y="451"/>
      <point x="32" y="411"/>
      <point x="55" y="372" type="curve"/>
      <point x="107" y="336"/>
      <point x="192" y="299"/>
      <point x="223" y="284" type="curve" smooth="yes"/>
      <point x="257" y="268"/>
      <point x="289" y="260"/>
      <point x="318" y="239" type="curve"/>
      <point x="327" y="220"/>
      <point x="332" y="200"/>
      <point x="332" y="187" type="curve"/>
      <point x="321" y="159"/>
      <point x="310" y="135"/>
      <point x="298" y="114" type="curve"/>
      <point x="268" y="103"/>
      <point x="235" y="97"/>
      <point x="210" y="97" type="curve" smooth="yes"/>
      <point x="189" y="97"/>
      <point x="176" y="103"/>
      <point x="156" y="114" type="curve"/>
      <point x="161" y="152"/>
      <point x="169" y="181"/>
      <point x="186" y="219" type="curve"/>
      <point x="47" y="254" type="line"/>
      <point x="31" y="205"/>
      <point x="21" y="150"/>
      <point x="21" y="119" type="curve" smooth="yes"/>
      <point x="21" y="88"/>
      <point x="27" y="29"/>
      <point x="47" y="0" type="curve"/>
      <point x="106" y="-13"/>
      <point x="153" y="-20"/>
    </contour>
  </outline>
</glyph>
<glyph name="T" format="2">
  <advance width="510"/>
  <unicode hex="0054"/>
  <anchor x="255" y="0" name="bottom"/>
  <anchor x="255" y="350" name="center"/>
  <anchor x="255" y="700" name="top"/>
  <outline>
    <contour>
      <point x="24" y="558" type="curve"/>
      <point x="255" y="568" type="line"/>
      <point x="478" y="558" type="line"/>
      <point x="488" y="585"/>
      <point x="497" y="623"/>
      <point x="500" y="653" type="curve"/>
      <point x="497" y="673"/>
      <point x="493" y="685"/>
      <point x="486" y="700" type="curve"/>
      <point x="32" y="700" type="line"/>
      <point x="22" y="677"/>
      <point x="14" y="652"/>
      <point x="10" y="615" type="curve"/>
      <point x="13" y="594"/>
      <point x="18" y="575"/>
    </contour>
    <component base="_part.barra" xOffset="112"/>
  </outline>
</glyph>
<glyph name="U" format="2">
  <advance width="560"/>
  <unicode hex="0055"/>
  <anchor x="291" y="0" name="bottom"/>
  <anchor x="467" y="0" name="ogonek"/>
  <anchor x="291" y="700" name="top"/>
  <anchor x="532" y="700" name="topright"/>
  <outline>
    <contour>
      <point x="330" y="-5" type="curve" smooth="yes"/>
      <point x="376" y="-5"/>
      <point x="436" y="-3"/>
      <point x="500" y="0" type="curve"/>
      <point x="440" y="123" type="line"/>
      <point x="429" y="118"/>
      <point x="379" y="113"/>
      <point x="330" y="113" type="curve" smooth="yes"/>
      <point x="308" y="113"/>
      <point x="272" y="115"/>
      <point x="235" y="125" type="curve"/>
      <point x="207" y="153"/>
      <point x="188" y="184"/>
      <point x="168" y="238" type="curve"/>
      <point x="173" y="362"/>
      <point x="194" y="500"/>
      <point x="250" y="700" type="curve"/>
      <point x="96" y="700" type="line"/>
      <point x="53" y="526"/>
      <point x="39" y="429"/>
      <point x="24" y="291" type="curve" smooth="yes"/>
      <point x="21" y="265"/>
      <point x="20" y="244"/>
      <point x="20" y="228" type="curve"/>
      <point x="30" y="154"/>
      <point x="87" y="55"/>
      <point x="149" y="4" type="curve"/>
      <point x="217" y="-3"/>
      <point x="276" y="-5"/>
    </contour>
    <contour>
      <point x="491" y="0" type="line"/>
      <point x="540" y="0" type="line"/>
      <point x="540" y="146" type="line"/>
      <point x="430" y="123" type="line"/>
    </contour>
    <component base="_part.barra" xOffset="265"/>
  </outline>
</glyph>
<glyph name="V" format="2">
  <advance width="573"/>
  <unicode hex="0056"/>
  <outline>
    <contour>
      <point x="264" y="0" type="curve"/>
      <point x="404" y="0" type="line"/>
      <point x="458" y="298"/>
      <point x="520" y="578"/>
      <point x="558" y="700" type="curve"/>
      <point x="387" y="700" type="line"/>
      <point x="347" y="418"/>
      <point x="298" y="136"/>
    </contour>
    <contour>
      <point x="169" y="0" type="curve"/>
      <point x="307" y="0" type="line"/>
      <point x="277" y="136"/>
      <point x="229" y="413"/>
      <point x="189" y="700" type="curve"/>
      <point x="15" y="700" type="line"/>
      <point x="51" y="588"/>
      <point x="112" y="308"/>
    </contour>
  </outline>
</glyph>
<glyph name="W" format="2">
  <advance width="793"/>
  <unicode hex="0057"/>
  <anchor x="441" y="0" name="bottom"/>
  <anchor x="441" y="700" name="top"/>
  <outline>
    <contour>
      <point x="189" y="0" type="curve"/>
      <point x="317" y="0" type="line"/>
      <point x="241" y="323"/>
      <point x="202" y="603"/>
      <point x="189" y="700" type="curve"/>
      <point x="15" y="700" type="line"/>
      <point x="90" y="443"/>
      <point x="160" y="163"/>
    </contour>
    <contour>
      <point x="249" y="0" type="curve"/>
      <point x="357" y="0" type="line"/>
      <point x="406" y="273"/>
      <point x="472" y="553"/>
      <point x="515" y="700" type="curve"/>
      <point x="355" y="700" type="line"/>
      <point x="338" y="492"/>
      <point x="299" y="212"/>
    </contour>
    <contour>
      <point x="437" y="0" type="curve"/>
      <point x="545" y="0" type="line"/>
      <point x="484" y="259"/>
      <point x="437" y="484"/>
      <point x="426" y="561" type="curve"/>
      <point x="357" y="415" type="line"/>
      <point x="389" y="273"/>
      <point x="421" y="107"/>
    </contour>
    <contour>
      <point x="480" y="0" type="curve"/>
      <point x="604" y="0" type="line"/>
      <point x="633" y="163"/>
      <point x="703" y="443"/>
      <point x="778" y="700" type="curve"/>
      <point x="608" y="700" type="line"/>
      <point x="595" y="603"/>
      <point x="556" y="323"/>
    </contour>
  </outline>
</glyph>
<glyph name="X" format="2">
  <advance width="614"/>
  <unicode hex="0058"/>
  <anchor x="307" y="0" name="bottom"/>
  <anchor x="307" y="700" name="top"/>
  <outline>
    <contour>
      <point x="411" y="0" type="line"/>
      <point x="599" y="0" type="line"/>
      <point x="360" y="400" type="line"/>
      <point x="204" y="700" type="line"/>
      <point x="15" y="700" type="line"/>
      <point x="269" y="305" type="line"/>
    </contour>
    <contour>
      <point x="25" y="0" type="line"/>
      <point x="213" y="0" type="line"/>
      <point x="341" y="301" type="line"/>
      <point x="248" y="396" type="line"/>
    </contour>
    <contour>
      <point x="371" y="331" type="line"/>
      <point x="589" y="700" type="line"/>
      <point x="400" y="700" type="line"/>
      <point x="278" y="426" type="line"/>
    </contour>
  </outline>
</glyph>
<glyph name="Y" format="2">
  <advance width="562"/>
  <unicode hex="0059"/>
  <anchor x="326" y="0" name="bottom"/>
  <anchor x="296" y="700" name="top"/>
  <anchor x="40" y="700" name="topleft"/>
  <outline>
    <contour>
      <point x="224" y="161" type="curve"/>
      <point x="342" y="160" type="line"/>
      <point x="383" y="291"/>
      <point x="465" y="537"/>
      <point x="547" y="700" type="curve"/>
      <point x="374" y="700" type="line"/>
      <point x="352" y="575"/>
      <point x="318" y="446"/>
      <point x="272" y="313" type="curve"/>
      <point x="296" y="313" type="line"/>
      <point x="249" y="449"/>
      <point x="215" y="575"/>
      <point x="194" y="700" type="curve"/>
      <point x="15" y="700" type="line"/>
      <point x="106" y="512"/>
      <point x="189" y="266"/>
    </contour>
    <contour>
      <point x="205" y="0" type="curve"/>
      <point x="362" y="0" type="line"/>
      <point x="358" y="104"/>
      <point x="355" y="201"/>
      <point x="354" y="295" type="curve"/>
      <point x="212" y="295" type="line"/>
      <point x="211" y="204"/>
      <point x="209" y="108"/>
    </contour>
  </outline>
</glyph>
<glyph name="Z" format="2">
  <advance width="536"/>
  <unicode hex="005A"/>
  <anchor x="268" y="0" name="bottom"/>
  <anchor x="268" y="350" name="center"/>
  <anchor x="268" y="700" name="top"/>
  <outline>
    <contour>
      <point x="20" y="39" type="curve"/>
      <point x="37" y="0" type="line"/>
      <point x="201" y="0" type="line"/>
      <point x="246" y="128"/>
      <point x="289" y="225"/>
      <point x="337" y="322" type="curve" smooth="yes"/>
      <point x="387" y="423"/>
      <point x="437" y="526"/>
      <point x="516" y="661" type="curve"/>
      <point x="515" y="683" type="line"/>
      <point x="394" y="700" type="line"/>
      <point x="317" y="647" type="line"/>
      <point x="286" y="549"/>
      <point x="246" y="461"/>
      <point x="197" y="365" type="curve" smooth="yes"/>
      <point x="149" y="270"/>
      <point x="96" y="167"/>
    </contour>
    <contour>
      <point x="90" y="0" type="line"/>
      <point x="469" y="0" type="line"/>
      <point x="480" y="28"/>
      <point x="486" y="53"/>
      <point x="491" y="95" type="curve"/>
      <point x="477" y="142" type="line"/>
      <point x="90" y="87" type="line"/>
    </contour>
    <contour>
      <point x="55" y="558" type="curve"/>
      <point x="420" y="578" type="line"/>
      <point x="394" y="700" type="line"/>
      <point x="47" y="700" type="line"/>
      <point x="33" y="653" type="line"/>
      <point x="35" y="618"/>
      <point x="42" y="590"/>
    </contour>
  </outline>
</glyph>
<glyph name="bracketleft" format="2">
  <advance width="321"/>
  <unicode hex="005B"/>
  <outline>
    <contour>
      <point x="276" y="0" type="line"/>
      <point x="301" y="33" type="line"/>
      <point x="301" y="139" type="line"/>
      <point x="197" y="123" type="line"/>
      <point x="170" y="123" type="line"/>
      <point x="170" y="573" type="line"/>
      <point x="197" y="573" type="line"/>
      <point x="281" y="560" type="line"/>
      <point x="297" y="700" type="line"/>
      <point x="20" y="700" type="line"/>
      <point x="20" y="33" type="line"/>
      <point x="50" y="0" type="line"/>
    </contour>
  </outline>
</glyph>
<glyph name="backslash" format="2">
  <advance width="456"/>
  <unicode hex="005C"/>
  <outline>
    <contour>
      <point x="233" y="0" type="curve"/>
      <point x="411" y="0" type="line"/>
      <point x="374" y="109"/>
      <point x="334" y="242"/>
      <point x="300" y="367" type="curve" smooth="yes"/>
      <point x="265" y="494"/>
      <point x="237" y="615"/>
      <point x="219" y="700" type="curve"/>
      <point x="45" y="700" type="line"/>
      <point x="85" y="581"/>
      <point x="119" y="461"/>
      <point x="150" y="345" type="curve" smooth="yes"/>
      <point x="182" y="225"/>
      <point x="210" y="108"/>
    </contour>
  </outline>
</glyph>
<glyph name="bracketright" format="2">
  <advance width="321"/>
  <unicode hex="005D"/>
  <outline>
    <contour>
      <point x="45" y="0" type="line"/>
      <point x="271" y="0" type="line"/>
      <point x="301" y="33" type="line"/>
      <point x="301" y="700" type="line"/>
      <point x="24" y="700" type="line"/>
      <point x="40" y="560" type="line"/>
      <point x="124" y="573" type="line"/>
      <point x="151" y="573" type="line"/>
      <point x="151" y="123" type="line"/>
      <point x="124" y="123" type="line"/>
      <point x="20" y="139" type="line"/>
      <point x="20" y="33" type="line"/>
    </contour>
  </outline>
</glyph>
<glyph name="asciicircum" format="2">
  <advance width="600"/>
  <unicode hex="005E"/>
  <outline>
    <contour>
      <point x="295" y="387" type="curve"/>
      <point x="420" y="403" type="line"/>
      <point x="408" y="493"/>
      <point x="352" y="637"/>
      <point x="307" y="700" type="curve"/>
      <point x="173" y="700" type="line"/>
      <point x="226" y="609"/>
      <point x="265" y="511"/>
    </contour>
    <contour>
      <point x="20" y="403" type="curve"/>
      <point x="145" y="385" type="line"/>
      <point x="175" y="509"/>
      <point x="211" y="609"/>
      <point x="257" y="700" type="curve"/>
      <point x="133" y="700" type="line"/>
      <point x="95" y="647"/>
      <point x="39" y="503"/>
    </contour>
  </outline>
</glyph>
<glyph name="underscore" format="2">
  <advance width="462"/>
  <unicode hex="005F"/>
  <outline>
    <contour>
      <point x="21" y="-25" type="curve"/>
      <point x="230" y="-20" type="line"/>
      <point x="409" y="-25" type="line"/>
      <point x="424" y="2"/>
      <point x="437" y="44"/>
      <point x="442" y="81" type="curve"/>
      <point x="434" y="117" type="line"/>
      <point x="63" y="114" type="line"/>
      <point x="48" y="102"/>
      <point x="29" y="47"/>
      <point x="22" y="31" type="curve"/>
      <point x="19" y="20"/>
      <point x="19" y="-2"/>
    </contour>
  </outline>
</glyph>
<glyph name="a" format="2">
  <advance width="496"/>
  <unicode hex="0061"/>
  <anchor x="190" y="0" name="bottom"/>
  <anchor x="398" y="0" name="ogonek"/>
  <anchor x="290" y="500" name="top"/>
  <outline>
    <contour>
      <point x="131" y="0" type="curve"/>
      <point x="253" y="0" type="line"/>
      <point x="287" y="56"/>
      <point x="322" y="163"/>
      <point x="340" y="268" type="curve"/>
      <point x="341" y="379" type="line"/>
      <point x="323" y="379" type="line"/>
      <point x="290" y="258"/>
      <point x="229" y="112"/>
      <point x="176" y="39" type="curve"/>
      <point x="252" y="71" type="line"/>
      <point x="162" y="154" type="line"/>
      <point x="176" y="231"/>
      <point x="194" y="300"/>
      <point x="236" y="387" type="curve"/>
      <point x="275" y="396"/>
      <point x="328" y="393"/>
      <point x="370" y="379" type="curve"/>
      <point x="466" y="500" type="line"/>
      <point x="398" y="504"/>
      <point x="332" y="506"/>
      <point x="301" y="506" type="curve" smooth="yes"/>
      <point x="269" y="506"/>
      <point x="206" y="504"/>
      <point x="178" y="500" type="curve"/>
      <point x="116" y="451" type="line"/>
      <point x="71" y="358"/>
      <point x="33" y="242"/>
      <point x="15" y="102" type="curve"/>
      <point x="46" y="61"/>
      <point x="93" y="23"/>
    </contour>
    <contour>
      <point x="313" y="0" type="curve"/>
      <point x="471" y="0" type="line"/>
      <point x="463" y="110"/>
      <point x="462" y="191"/>
      <point x="462" y="245" type="curve" smooth="yes"/>
      <point x="462" y="298"/>
      <point x="463" y="407"/>
      <point x="466" y="500" type="curve"/>
      <point x="318" y="500" type="line"/>
      <point x="321" y="407"/>
      <point x="322" y="298"/>
      <point x="322" y="245" type="curve" smooth="yes"/>
      <point x="322" y="191"/>
      <point x="321" y="110"/>
    </contour>
  </outline>
</glyph>
<glyph name="b" format="2">
  <advance width="475"/>
  <unicode hex="0062"/>
  <outline>
    <component base="_part.arcobp" xOffset="55" identifier="1D3C5495"/>
    <contour>
      <point x="26" y="0" type="curve"/>
      <point x="159" y="0" type="line"/>
      <point x="159" y="119" type="line"/>
      <point x="173" y="119" type="line"/>
      <point x="170" y="197"/>
      <point x="169" y="314"/>
      <point x="169" y="380" type="curve" smooth="yes"/>
      <point x="169" y="502"/>
      <point x="172" y="612"/>
      <point x="178" y="730" type="curve"/>
      <point x="25" y="730" type="line"/>
      <point x="31" y="612"/>
      <point x="34" y="502"/>
      <point x="34" y="380" type="curve" smooth="yes"/>
      <point x="34" y="282"/>
      <point x="31" y="133"/>
    </contour>
  </outline>
</glyph>
<glyph name="c" format="2">
  <advance width="403"/>
  <unicode hex="0063"/>
  <guideline x="430" y="105" angle="0"/>
  <anchor x="209" y="0" name="bottom"/>
  <anchor x="269" y="500" name="top"/>
  <outline>
    <contour>
      <point x="219" y="-10" type="curve" smooth="yes"/>
      <point x="254" y="-10"/>
      <point x="308" y="-5"/>
      <point x="331" y="0" type="curve"/>
      <point x="351" y="17"/>
      <point x="374" y="41"/>
      <point x="383" y="70" type="curve"/>
      <point x="383" y="198" type="line"/>
      <point x="248" y="168" type="line"/>
      <point x="248" y="38" type="line"/>
      <point x="283" y="123" type="line"/>
      <point x="259" y="112"/>
      <point x="248" y="105"/>
      <point x="219" y="105" type="curve" smooth="yes"/>
      <point x="190" y="105"/>
      <point x="142" y="114"/>
      <point x="113" y="136" type="curve"/>
      <point x="208" y="63" type="line"/>
      <point x="178" y="107"/>
      <point x="168" y="132"/>
      <point x="158" y="202" type="curve"/>
      <point x="166" y="289"/>
      <point x="176" y="329"/>
      <point x="211" y="426" type="curve"/>
      <point x="154" y="370" type="line"/>
      <point x="178" y="380"/>
      <point x="196" y="385"/>
      <point x="219" y="385" type="curve" smooth="yes"/>
      <point x="236" y="385"/>
      <point x="290" y="382"/>
      <point x="340" y="361" type="curve"/>
      <point x="247" y="440" type="line"/>
      <point x="247" y="319" type="line"/>
      <point x="378" y="347" type="line"/>
      <point x="378" y="495" type="line"/>
      <point x="348" y="504"/>
      <point x="277" y="510"/>
      <point x="229" y="510" type="curve" smooth="yes"/>
      <point x="182" y="510"/>
      <point x="129" y="503"/>
      <point x="90" y="492" type="curve"/>
      <point x="48" y="386"/>
      <point x="33" y="335"/>
      <point x="16" y="239" type="curve"/>
      <point x="17" y="159"/>
      <point x="39" y="81"/>
      <point x="81" y="10" type="curve"/>
      <point x="110" y="-2"/>
      <point x="150" y="-10"/>
    </contour>
  </outline>
</glyph>
<glyph name="e" format="2">
  <advance width="447"/>
  <unicode hex="0065"/>
  <guideline x="224" y="105" angle="0"/>
  <anchor x="244" y="0" name="bottom"/>
  <anchor x="288" y="18" name="ogonek"/>
  <anchor x="237" y="510" name="top"/>
  <outline>
    <contour>
      <point x="224" y="-11" type="curve" smooth="yes"/>
      <point x="277" y="-11"/>
      <point x="321" y="-2"/>
      <point x="361" y="18" type="curve"/>
      <point x="387" y="55"/>
      <point x="402" y="119"/>
      <point x="403" y="175" type="curve"/>
      <point x="271" y="157" type="line"/>
      <point x="271" y="120"/>
      <point x="261" y="93"/>
      <point x="242" y="65" type="curve"/>
      <point x="323" y="122" type="line"/>
      <point x="289" y="108"/>
      <point x="252" y="105"/>
      <point x="224" y="105" type="curve" smooth="yes"/>
      <point x="195" y="105"/>
      <point x="174" y="108"/>
      <point x="144" y="121" type="curve"/>
      <point x="221" y="63" type="line"/>
      <point x="187" y="93"/>
      <point x="160" y="150"/>
      <point x="160" y="225" type="curve" smooth="yes"/>
      <point x="160" y="292"/>
      <point x="170" y="356"/>
      <point x="215" y="412" type="curve"/>
      <point x="244" y="406"/>
      <point x="262" y="399"/>
      <point x="279" y="390" type="curve"/>
      <point x="287" y="377"/>
      <point x="294" y="358"/>
      <point x="299" y="339" type="curve"/>
      <point x="295" y="325"/>
      <point x="289" y="311"/>
      <point x="279" y="297" type="curve"/>
      <point x="257" y="293"/>
      <point x="240" y="291"/>
      <point x="208" y="291" type="curve" smooth="yes"/>
      <point x="182" y="291"/>
      <point x="145" y="293"/>
      <point x="115" y="297" type="curve"/>
      <point x="107" y="215" type="line"/>
      <point x="138" y="202"/>
      <point x="188" y="198"/>
      <point x="218" y="198" type="curve" smooth="yes"/>
      <point x="258" y="198"/>
      <point x="312" y="202"/>
      <point x="356" y="210" type="curve"/>
      <point x="392" y="240"/>
      <point x="422" y="290"/>
      <point x="431" y="324" type="curve"/>
      <point x="426" y="365"/>
      <point x="419" y="404"/>
      <point x="401" y="435" type="curve"/>
      <point x="364" y="477"/>
      <point x="261" y="513"/>
      <point x="206" y="520" type="curve"/>
      <point x="87" y="485" type="line"/>
      <point x="36" y="402"/>
      <point x="26" y="306"/>
      <point x="16" y="225" type="curve"/>
      <point x="26" y="135"/>
      <point x="46" y="53"/>
      <point x="100" y="8" type="curve"/>
      <point x="135" y="-3"/>
      <point x="173" y="-11"/>
    </contour>
  </outline>
</glyph>
<glyph name="f" format="2">
  <advance width="409"/>
  <unicode hex="0066"/>
  <outline>
    <contour>
      <point x="98" y="0" type="curve"/>
      <point x="252" y="0" type="line"/>
      <point x="246" y="85"/>
      <point x="241" y="171"/>
      <point x="241" y="261" type="curve" smooth="yes"/>
      <point x="241" y="301"/>
      <point x="244" y="499"/>
      <point x="252" y="580" type="curve"/>
      <point x="287" y="588"/>
      <point x="322" y="592"/>
      <point x="365" y="592" type="curve"/>
      <point x="393" y="609" type="line"/>
      <point x="394" y="746" type="line"/>
      <point x="297" y="733"/>
      <point x="261" y="720"/>
      <point x="135" y="698" type="curve"/>
      <point x="108" y="582"/>
      <point x="97" y="264"/>
      <point x="97" y="95" type="curve" smooth="yes"/>
      <point x="97" y="60"/>
      <point x="97" y="28"/>
    </contour>
    <contour>
      <point x="27" y="359" type="curve"/>
      <point x="111" y="371" type="line"/>
      <point x="234" y="371" type="line"/>
      <point x="351" y="359" type="line"/>
      <point x="381" y="399" type="line"/>
      <point x="379" y="441"/>
      <point x="375" y="481"/>
      <point x="371" y="500" type="curve"/>
      <point x="33" y="500" type="line"/>
      <point x="29" y="491"/>
      <point x="22" y="455"/>
      <point x="15" y="409" type="curve"/>
      <point x="24" y="376"/>
      <point x="29" y="356"/>
    </contour>
  </outline>
</glyph>
<glyph name="g" format="2">
  <advance width="488"/>
  <unicode hex="0067"/>
  <anchor x="236" y="-200" name="bottom"/>
  <anchor x="276" y="500" name="top"/>
  <outline>
    <contour>
      <point x="235" y="-235" type="curve"/>
      <point x="283" y="-228"/>
      <point x="325" y="-210"/>
      <point x="368" y="-160" type="curve" smooth="yes"/>
      <point x="423" y="-97"/>
      <point x="449" y="-45"/>
      <point x="449" y="0" type="curve"/>
      <point x="405" y="19" type="line"/>
      <point x="315" y="0" type="line"/>
      <point x="309" y="-20"/>
      <point x="298" y="-54"/>
      <point x="275" y="-84" type="curve" smooth="yes"/>
      <point x="249" y="-118"/>
      <point x="224" y="-140"/>
      <point x="183" y="-140" type="curve" smooth="yes"/>
      <point x="164" y="-140"/>
      <point x="142" y="-137"/>
      <point x="118" y="-132" type="curve"/>
      <point x="118" y="-212" type="line"/>
      <point x="138" y="-222"/>
      <point x="192" y="-228"/>
    </contour>
    <contour>
      <point x="117" y="-212" type="line"/>
      <point x="201" y="-176" type="line"/>
      <point x="211" y="-62" type="line"/>
      <point x="73" y="-32" type="line"/>
      <point x="69" y="-141" type="line"/>
    </contour>
    <contour>
      <point x="315" y="0" type="curve"/>
      <point x="449" y="0" type="line"/>
      <point x="451" y="146"/>
      <point x="458" y="348"/>
      <point x="463" y="500" type="curve"/>
      <point x="318" y="500" type="line"/>
      <point x="319" y="461"/>
      <point x="322" y="386"/>
      <point x="322" y="340" type="curve" smooth="yes"/>
      <point x="322" y="220"/>
      <point x="317" y="86"/>
    </contour>
    <component base="_part.arcoq" xOffset="19"/>
  </outline>
</glyph>
<glyph name="j" format="2">
  <advance width="232"/>
  <unicode hex="006A"/>
  <outline>
    <contour>
      <point x="-65" y="-116" type="curve"/>
      <point x="60" y="-200" type="line"/>
      <point x="113" y="-150"/>
      <point x="174" y="-79"/>
      <point x="202" y="0" type="curve"/>
      <point x="198" y="92"/>
      <point x="197" y="191"/>
      <point x="197" y="245" type="curve" smooth="yes"/>
      <point x="197" y="298"/>
      <point x="198" y="407"/>
      <point x="201" y="500" type="curve"/>
      <point x="58" y="500" type="line"/>
      <point x="61" y="407"/>
      <point x="62" y="298"/>
      <point x="62" y="245" type="curve" smooth="yes"/>
      <point x="62" y="191"/>
      <point x="61" y="86"/>
      <point x="57" y="0" type="curve"/>
      <point x="29" y="-44"/>
      <point x="-11" y="-79"/>
    </contour>
    <component base="uni0307" xOffset="29"/>
  </outline>
</glyph>
<glyph name="k" format="2">
  <advance width="461"/>
  <unicode hex="006B"/>
  <anchor x="235" y="0" name="bottom"/>
  <anchor x="235" y="700" name="top"/>
  <outline>
    <contour>
      <point x="92" y="255" type="curve"/>
      <point x="140" y="158" type="line"/>
      <point x="183" y="167"/>
      <point x="305" y="199"/>
      <point x="369" y="276" type="curve" smooth="yes"/>
      <point x="405" y="320"/>
      <point x="431" y="390"/>
      <point x="433" y="450" type="curve"/>
      <point x="287" y="494" type="line"/>
      <point x="284" y="420"/>
      <point x="264" y="340"/>
      <point x="237" y="296" type="curve"/>
      <point x="196" y="277"/>
      <point x="144" y="260"/>
    </contour>
    <contour>
      <point x="342" y="-12" type="curve"/>
      <point x="456" y="66" type="line"/>
      <point x="413" y="93"/>
      <point x="380" y="120"/>
      <point x="352" y="151" type="curve" smooth="yes"/>
      <point x="320" y="187"/>
      <point x="293" y="239"/>
      <point x="284" y="280" type="curve"/>
      <point x="184" y="234" type="line"/>
      <point x="196" y="181"/>
      <point x="217" y="133"/>
      <point x="249" y="90" type="curve" smooth="yes"/>
      <point x="275" y="53"/>
      <point x="306" y="19"/>
    </contour>
    <component base="_part.barramin"/>
  </outline>
</glyph>
<glyph name="l" format="2">
  <advance width="285"/>
  <unicode hex="006C"/>
  <guideline x="167" y="680" angle="0"/>
  <anchor x="145" y="0" name="bottom"/>
  <anchor x="143" y="400" name="center"/>
  <anchor x="100" y="730" name="top"/>
  <anchor x="216" y="520" name="topright"/>
  <outline>
    <contour>
      <point x="155" y="-16" type="curve" smooth="yes"/>
      <point x="196" y="-16"/>
      <point x="243" y="-2"/>
      <point x="280" y="28" type="curve"/>
      <point x="220" y="143" type="line"/>
      <point x="206" y="127"/>
      <point x="191" y="115"/>
      <point x="175" y="108" type="curve"/>
      <point x="108" y="148" type="line"/>
      <point x="167" y="44" type="line"/>
      <point x="166" y="76"/>
      <point x="164" y="169"/>
      <point x="164" y="204" type="curve" smooth="yes"/>
      <point x="164" y="338"/>
      <point x="166" y="602"/>
      <point x="171" y="730" type="curve"/>
      <point x="21" y="730" type="line"/>
      <point x="23" y="592"/>
      <point x="24" y="388"/>
      <point x="25" y="297" type="curve" smooth="yes"/>
      <point x="26" y="222"/>
      <point x="23" y="131"/>
      <point x="20" y="61" type="curve"/>
      <point x="38" y="32"/>
      <point x="113" y="-16"/>
    </contour>
  </outline>
</glyph>
<glyph name="m" format="2">
  <advance width="743"/>
  <unicode hex="006D"/>
  <anchor x="369" y="0" name="bottom"/>
  <anchor x="369" y="500" name="top"/>
  <outline>
    <contour>
      <point x="558" y="0" type="curve"/>
      <point x="713" y="0" type="line"/>
      <point x="708" y="58"/>
      <point x="706" y="161"/>
      <point x="706" y="216" type="curve" smooth="yes"/>
      <point x="706" y="282"/>
      <point x="708" y="351"/>
      <point x="708" y="430" type="curve"/>
      <point x="603" y="510" type="line"/>
      <point x="499" y="500" type="line"/>
      <point x="454" y="409"/>
      <point x="381" y="200"/>
      <point x="401" y="47" type="curve"/>
      <point x="445" y="47" type="line"/>
      <point x="441" y="119"/>
      <point x="447" y="154"/>
      <point x="451" y="192" type="curve"/>
      <point x="472" y="268"/>
      <point x="494" y="318"/>
      <point x="535" y="374" type="curve"/>
      <point x="543" y="373"/>
      <point x="553" y="369"/>
      <point x="561" y="362" type="curve"/>
      <point x="565" y="327"/>
      <point x="566" y="277"/>
      <point x="566" y="233" type="curve" smooth="yes"/>
      <point x="566" y="144"/>
      <point x="561" y="51"/>
    </contour>
    <contour>
      <point x="293" y="0" type="curve"/>
      <point x="448" y="0" type="line"/>
      <point x="443" y="58"/>
      <point x="441" y="161"/>
      <point x="441" y="216" type="curve" smooth="yes"/>
      <point x="441" y="282"/>
      <point x="443" y="371"/>
      <point x="443" y="450" type="curve"/>
      <point x="338" y="510" type="line"/>
      <point x="234" y="500" type="line"/>
      <point x="206" y="444"/>
      <point x="151" y="343"/>
      <point x="131" y="239" type="curve"/>
      <point x="131" y="47" type="line"/>
      <point x="185" y="47" type="line"/>
      <point x="181" y="119"/>
      <point x="187" y="154"/>
      <point x="191" y="192" type="curve"/>
      <point x="212" y="268"/>
      <point x="229" y="318"/>
      <point x="270" y="374" type="curve"/>
      <point x="278" y="373"/>
      <point x="288" y="369"/>
      <point x="296" y="362" type="curve"/>
      <point x="300" y="327"/>
      <point x="301" y="277"/>
      <point x="301" y="233" type="curve" smooth="yes"/>
      <point x="301" y="144"/>
      <point x="296" y="51"/>
    </contour>
    <component base="_part.barrai" xOffset="-10"/>
  </outline>
</glyph>
<glyph name="o" format="2">
  <advance width="461"/>
  <unicode hex="006F"/>
  <guideline x="235" y="510" angle="0"/>
  <anchor x="235" y="-10" name="bottom"/>
  <anchor x="224" y="250" name="center"/>
  <anchor x="418" y="10" name="ogonek"/>
  <anchor x="235" y="510" name="top"/>
  <anchor x="446" y="500" name="topright"/>
  <outline>
    <contour>
      <point x="235" y="-10" type="curve" smooth="yes"/>
      <point x="265" y="-10"/>
      <point x="327" y="-3"/>
      <point x="361" y="10" type="curve"/>
      <point x="406" y="76"/>
      <point x="436" y="145"/>
      <point x="445" y="207" type="curve"/>
      <point x="437" y="299"/>
      <point x="401" y="420"/>
      <point x="361" y="486" type="curve"/>
      <point x="345" y="502"/>
      <point x="268" y="510"/>
      <point x="235" y="510" type="curve" smooth="yes"/>
      <point x="202" y="510"/>
      <point x="121" y="502"/>
      <point x="100" y="486" type="curve"/>
      <point x="49" y="403"/>
      <point x="21" y="291"/>
      <point x="16" y="207" type="curve"/>
      <point x="27" y="139"/>
      <point x="63" y="45"/>
      <point x="100" y="8" type="curve"/>
      <point x="135" y="-3"/>
      <point x="200" y="-10"/>
    </contour>
    <contour>
      <point x="237" y="110" type="curve" smooth="yes"/>
      <point x="223" y="110"/>
      <point x="205" y="112"/>
      <point x="194" y="115" type="curve"/>
      <point x="169" y="140"/>
      <point x="151" y="177"/>
      <point x="149" y="223" type="curve"/>
      <point x="158" y="282"/>
      <point x="177" y="341"/>
      <point x="197" y="387" type="curve"/>
      <point x="207" y="389"/>
      <point x="218" y="390"/>
      <point x="235" y="390" type="curve" smooth="yes"/>
      <point x="251" y="390"/>
      <point x="261" y="389"/>
      <point x="271" y="387" type="curve"/>
      <point x="286" y="347"/>
      <point x="303" y="287"/>
      <point x="313" y="223" type="curve"/>
      <point x="306" y="178"/>
      <point x="288" y="141"/>
      <point x="268" y="115" type="curve"/>
      <point x="258" y="112"/>
      <point x="248" y="110"/>
    </contour>
  </outline>
</glyph>
<glyph name="r" format="2">
  <advance width="361"/>
  <unicode hex="0072"/>
  <anchor x="117" y="0" name="bottom"/>
  <anchor x="216" y="500" name="top"/>
  <outline>
    <contour>
      <point x="118" y="201" type="curve"/>
      <point x="178" y="187" type="line"/>
      <point x="191" y="258"/>
      <point x="225" y="339"/>
      <point x="255" y="372" type="curve"/>
      <point x="273" y="368"/>
      <point x="301" y="354"/>
      <point x="319" y="340" type="curve"/>
      <point x="349" y="480" type="line"/>
      <point x="317" y="500"/>
      <point x="282" y="512"/>
      <point x="238" y="518" type="curve"/>
      <point x="198" y="437"/>
      <point x="133" y="298"/>
    </contour>
    <component base="_part.barrai" xOffset="-10"/>
  </outline>
</glyph>
<glyph name="s" format="2">
  <advance width="451"/>
  <unicode hex="0073"/>
  <anchor x="219" y="0" name="bottom"/>
  <anchor x="229" y="510" name="top"/>
  <outline>
    <contour>
      <point x="219" y="-10" type="curve" smooth="yes"/>
      <point x="257" y="-10"/>
      <point x="363" y="11"/>
      <point x="388" y="30" type="curve"/>
      <point x="409" y="72"/>
      <point x="420" y="92"/>
      <point x="431" y="151" type="curve"/>
      <point x="420" y="197"/>
      <point x="406" y="243"/>
      <point x="385" y="273" type="curve"/>
      <point x="317" y="286"/>
      <point x="189" y="315"/>
      <point x="127" y="338" type="curve"/>
      <point x="199" y="270" type="line"/>
      <point x="179" y="293"/>
      <point x="164" y="327"/>
      <point x="161" y="338" type="curve"/>
      <point x="168" y="368"/>
      <point x="195" y="409"/>
      <point x="222" y="431" type="curve"/>
      <point x="180" y="408" type="line"/>
      <point x="220" y="411"/>
      <point x="273" y="389"/>
      <point x="300" y="354" type="curve"/>
      <point x="279" y="419" type="line"/>
      <point x="279" y="324" type="line"/>
      <point x="410" y="352" type="line"/>
      <point x="412" y="454" type="line"/>
      <point x="370" y="481"/>
      <point x="300" y="507"/>
      <point x="237" y="519" type="curve"/>
      <point x="207" y="516"/>
      <point x="108" y="501"/>
      <point x="89" y="495" type="curve"/>
      <point x="60" y="458"/>
      <point x="29" y="368"/>
      <point x="23" y="318" type="curve"/>
      <point x="34" y="283"/>
      <point x="59" y="239"/>
      <point x="88" y="209" type="curve"/>
      <point x="153" y="199"/>
      <point x="243" y="176"/>
      <point x="314" y="153" type="curve"/>
      <point x="274" y="221" type="line"/>
      <point x="292" y="144" type="line"/>
      <point x="266" y="47" type="line"/>
      <point x="314" y="129" type="line"/>
      <point x="289" y="118"/>
      <point x="254" y="105"/>
      <point x="219" y="105" type="curve" smooth="yes"/>
      <point x="185" y="105"/>
      <point x="143" y="116"/>
      <point x="120" y="133" type="curve"/>
      <point x="155" y="45" type="line"/>
      <point x="157" y="159" type="line"/>
      <point x="27" y="192" type="line"/>
      <point x="23" y="157"/>
      <point x="20" y="118"/>
      <point x="20" y="94" type="curve" smooth="yes"/>
      <point x="20" y="70"/>
      <point x="36" y="48"/>
      <point x="50" y="25" type="curve"/>
      <point x="80" y="7"/>
      <point x="173" y="-10"/>
    </contour>
  </outline>
</glyph>
<glyph name="t" format="2">
  <advance width="414"/>
  <unicode hex="0074"/>
  <anchor x="236" y="0" name="bottom"/>
  <anchor x="170" y="250" name="center"/>
  <anchor x="168" y="600" name="top"/>
  <anchor x="286" y="560" name="topright"/>
  <outline>
    <contour>
      <point x="250" y="-10" type="curve" smooth="yes"/>
      <point x="267" y="-10"/>
      <point x="297" y="-5"/>
      <point x="315" y="2" type="curve" smooth="yes"/>
      <point x="349" y="16"/>
      <point x="378" y="40"/>
      <point x="408" y="80" type="curve"/>
      <point x="324" y="175" type="line"/>
      <point x="292" y="131"/>
      <point x="282" y="118"/>
      <point x="260" y="118" type="curve" smooth="yes"/>
      <point x="233" y="118"/>
      <point x="204" y="155"/>
      <point x="188" y="182" type="curve"/>
      <point x="236" y="58" type="line"/>
      <point x="230" y="119"/>
      <point x="230" y="174"/>
      <point x="230" y="210" type="curve" smooth="yes"/>
      <point x="230" y="344"/>
      <point x="232" y="472"/>
      <point x="237" y="600" type="curve"/>
      <point x="87" y="600" type="line"/>
      <point x="89" y="462"/>
      <point x="90" y="388"/>
      <point x="91" y="297" type="curve" smooth="yes"/>
      <point x="91" y="228"/>
      <point x="89" y="137"/>
      <point x="86" y="67" type="curve"/>
      <point x="103" y="39"/>
      <point x="135" y="15"/>
      <point x="170" y="2" type="curve" smooth="yes"/>
      <point x="187" y="-4"/>
      <point x="214" y="-10"/>
    </contour>
    <contour>
      <point x="22" y="369" type="curve"/>
      <point x="96" y="381" type="line"/>
      <point x="225" y="381" type="line"/>
      <point x="362" y="369" type="line"/>
      <point x="392" y="419" type="line"/>
      <point x="391" y="446"/>
      <point x="387" y="479"/>
      <point x="382" y="500" type="curve"/>
      <point x="28" y="500" type="line"/>
      <point x="19" y="480"/>
      <point x="13" y="449"/>
      <point x="10" y="429" type="curve"/>
      <point x="12" y="419"/>
      <point x="16" y="379"/>
    </contour>
  </outline>
</glyph>
<glyph name="u" format="2">
  <advance width="475"/>
  <unicode hex="0075"/>
  <anchor x="201" y="0" name="bottom"/>
  <anchor x="377" y="0" name="ogonek"/>
  <anchor x="241" y="500" name="top"/>
  <anchor x="417" y="470" name="topright"/>
  <outline>
    <contour>
      <point x="30" y="73" type="curve"/>
      <point x="138" y="-10" type="line"/>
      <point x="238" y="0" type="line"/>
      <point x="275" y="75"/>
      <point x="322" y="299"/>
      <point x="322" y="357" type="curve"/>
      <point x="332" y="473" type="line"/>
      <point x="298" y="473" type="line"/>
      <point x="299" y="419"/>
      <point x="278" y="341"/>
      <point x="273" y="305" type="curve"/>
      <point x="242" y="207"/>
      <point x="192" y="66"/>
      <point x="151" y="14" type="curve"/>
      <point x="252" y="63" type="line"/>
      <point x="208" y="78"/>
      <point x="198" y="83"/>
      <point x="177" y="105" type="curve"/>
      <point x="166" y="211"/>
      <point x="176" y="434"/>
      <point x="180" y="500" type="curve"/>
      <point x="25" y="500" type="line"/>
      <point x="30" y="432"/>
      <point x="32" y="339"/>
      <point x="32" y="284" type="curve" smooth="yes"/>
      <point x="32" y="218"/>
      <point x="30" y="152"/>
    </contour>
    <component base="_part.barrai" xOffset="252"/>
  </outline>
</glyph>
<glyph name="v" format="2">
  <advance width="483"/>
  <unicode hex="0076"/>
  <anchor x="242" y="0" name="bottom"/>
  <anchor x="242" y="500" name="top"/>
  <outline>
    <contour>
      <point x="192" y="0" type="curve"/>
      <point x="358" y="0" type="line"/>
      <point x="394" y="155"/>
      <point x="431" y="333"/>
      <point x="478" y="500" type="curve"/>
      <point x="305" y="500" type="line"/>
      <point x="298" y="368"/>
      <point x="269" y="167"/>
    </contour>
    <contour>
      <point x="122" y="0" type="curve"/>
      <point x="288" y="0" type="line"/>
      <point x="211" y="167"/>
      <point x="185" y="368"/>
      <point x="178" y="500" type="curve"/>
      <point x="5" y="500" type="line"/>
      <point x="52" y="333"/>
      <point x="86" y="155"/>
    </contour>
  </outline>
</glyph>
<glyph name="w" format="2">
  <advance width="697"/>
  <unicode hex="0077"/>
  <anchor x="425" y="0" name="bottom"/>
  <anchor x="376" y="470" name="top"/>
  <outline>
    <contour>
      <point x="386" y="0" type="curve"/>
      <point x="573" y="0" type="line"/>
      <point x="573" y="114"/>
      <point x="625" y="334"/>
      <point x="692" y="500" type="curve"/>
      <point x="508" y="500" type="line"/>
      <point x="501" y="353"/>
      <point x="447" y="133"/>
    </contour>
    <contour>
      <point x="114" y="0" type="curve"/>
      <point x="302" y="0" type="line"/>
      <point x="235" y="144"/>
      <point x="190" y="347"/>
      <point x="190" y="500" type="curve"/>
      <point x="5" y="500" type="line"/>
      <point x="62" y="333"/>
      <point x="97" y="194"/>
    </contour>
    <contour>
      <point x="186" y="0" type="curve"/>
      <point x="302" y="0" type="line"/>
      <point x="307" y="82"/>
      <point x="335" y="171"/>
      <point x="348" y="224" type="curve"/>
      <point x="367" y="229" type="line"/>
      <point x="367" y="311"/>
      <point x="407" y="423"/>
      <point x="438" y="500" type="curve"/>
      <point x="280" y="500" type="line"/>
      <point x="293" y="341"/>
      <point x="249" y="121"/>
    </contour>
    <contour>
      <point x="386" y="0" type="curve"/>
      <point x="481" y="100" type="line"/>
      <point x="445" y="171"/>
      <point x="411" y="300"/>
      <point x="397" y="422" type="curve"/>
      <point x="317" y="271" type="line"/>
      <point x="351" y="177"/>
      <point x="382" y="99"/>
    </contour>
  </outline>
</glyph>
<glyph name="x" format="2">
  <advance width="500"/>
  <unicode hex="0078"/>
  <outline>
    <contour>
      <point x="310" y="0" type="curve"/>
      <point x="480" y="0" type="line"/>
      <point x="447" y="45"/>
      <point x="388" y="153"/>
      <point x="303" y="284" type="curve" smooth="yes"/>
      <point x="249" y="369"/>
      <point x="213" y="461"/>
      <point x="199" y="500" type="curve"/>
      <point x="24" y="500" type="line"/>
      <point x="141" y="336"/>
      <point x="190" y="226"/>
      <point x="190" y="226" type="curve" smooth="yes"/>
      <point x="206" y="202"/>
      <point x="266" y="111"/>
    </contour>
    <contour>
      <point x="20" y="0" type="curve"/>
      <point x="191" y="0" type="line"/>
      <point x="217" y="78"/>
      <point x="263" y="167"/>
      <point x="290" y="217" type="curve"/>
      <point x="326" y="226" type="line"/>
      <point x="385" y="328"/>
      <point x="426" y="427"/>
      <point x="480" y="500" type="curve"/>
      <point x="304" y="500" type="line"/>
      <point x="279" y="427"/>
      <point x="255" y="357"/>
      <point x="222" y="297" type="curve"/>
      <point x="190" y="284" type="line"/>
      <point x="154" y="219"/>
      <point x="93" y="112"/>
    </contour>
  </outline>
</glyph>
<glyph name="y" format="2">
  <advance width="512"/>
  <unicode hex="0079"/>
  <anchor x="256" y="0" name="bottom"/>
  <anchor x="256" y="500" name="top"/>
  <outline>
    <contour>
      <point x="78" y="-269" type="curve"/>
      <point x="243" y="-284" type="line"/>
      <point x="272" y="-188"/>
      <point x="302" y="-96"/>
      <point x="334" y="0" type="curve" smooth="yes"/>
      <point x="386" y="155"/>
      <point x="447" y="343"/>
      <point x="507" y="500" type="curve"/>
      <point x="341" y="500" type="line"/>
      <point x="323" y="425"/>
      <point x="264" y="222"/>
      <point x="222" y="99" type="curve"/>
      <point x="183" y="0" type="line"/>
      <point x="156" y="-89"/>
      <point x="118" y="-180"/>
    </contour>
    <contour>
      <point x="153" y="0" type="curve"/>
      <point x="266" y="0" type="line"/>
      <point x="294" y="52" type="line"/>
      <point x="224" y="202"/>
      <point x="192" y="382"/>
      <point x="168" y="500" type="curve"/>
      <point x="5" y="500" type="line"/>
      <point x="65" y="325"/>
      <point x="124" y="125"/>
    </contour>
  </outline>
</glyph>
<glyph name="z" format="2">
  <advance width="443"/>
  <unicode hex="007A"/>
  <anchor x="222" y="0" name="bottom"/>
  <anchor x="222" y="250" name="center"/>
  <anchor x="222" y="500" name="top"/>
  <outline>
    <contour>
      <point x="17" y="50" type="curve"/>
      <point x="28" y="0" type="line"/>
      <point x="169" y="0" type="line"/>
      <point x="205" y="74"/>
      <point x="235" y="138"/>
      <point x="280" y="211" type="curve" smooth="yes"/>
      <point x="322" y="279"/>
      <point x="383" y="382"/>
      <point x="418" y="433" type="curve"/>
      <point x="418" y="480" type="line"/>
      <point x="303" y="500" type="line"/>
      <point x="274" y="428"/>
      <point x="223" y="369"/>
      <point x="153" y="260" type="curve" smooth="yes"/>
      <point x="112" y="196"/>
      <point x="61" y="120"/>
    </contour>
    <contour>
      <point x="88" y="0" type="line"/>
      <point x="146" y="0"/>
      <point x="366" y="0"/>
      <point x="403" y="0" type="curve"/>
      <point x="418" y="86" type="line"/>
      <point x="418" y="126" type="line"/>
      <point x="88" y="104" type="line"/>
    </contour>
    <contour>
      <point x="60" y="369" type="line"/>
      <point x="156" y="381"/>
      <point x="256" y="381"/>
      <point x="303" y="381" type="curve"/>
      <point x="303" y="500" type="line"/>
      <point x="35" y="500" type="line"/>
      <point x="35" y="464" type="line"/>
    </contour>
  </outline>
</glyph>
<glyph name="braceleft" format="2">
  <advance width="366"/>
  <unicode hex="007B"/>
  <outline>
    <contour>
      <point x="140" y="-2" type="curve"/>
      <point x="163" y="-1"/>
      <point x="225" y="0"/>
      <point x="248" y="0" type="curve" smooth="yes"/>
      <point x="271" y="0"/>
      <point x="314" y="-1"/>
      <point x="322" y="-2" type="curve"/>
      <point x="351" y="134" type="line"/>
      <point x="197" y="124" type="line"/>
      <point x="265" y="47" type="line"/>
      <point x="239" y="115"/>
      <point x="221" y="132"/>
      <point x="208" y="166" type="curve"/>
      <point x="218" y="209"/>
      <point x="232" y="243"/>
      <point x="264" y="299" type="curve"/>
      <point x="237" y="314"/>
      <point x="208" y="326"/>
      <point x="172" y="338" type="curve"/>
      <point x="172" y="348" type="line"/>
      <point x="264" y="391" type="line"/>
      <point x="234" y="434"/>
      <point x="213" y="475"/>
      <point x="200" y="530" type="curve"/>
      <point x="267" y="598" type="line"/>
      <point x="192" y="573" type="line"/>
      <point x="312" y="565" type="line"/>
      <point x="341" y="700" type="line"/>
      <point x="171" y="700" type="line"/>
      <point x="158" y="691"/>
      <point x="93" y="616"/>
      <point x="61" y="562" type="curve"/>
      <point x="70" y="506"/>
      <point x="100" y="440"/>
      <point x="121" y="402" type="curve"/>
      <point x="25" y="374" type="line"/>
      <point x="25" y="311" type="line"/>
      <point x="130" y="295" type="line"/>
      <point x="106" y="250"/>
      <point x="79" y="188"/>
      <point x="66" y="137" type="curve"/>
      <point x="83" y="75"/>
      <point x="121" y="18"/>
    </contour>
  </outline>
</glyph>
<glyph name="bar" format="2">
  <advance width="318"/>
  <unicode hex="007C"/>
  <outline>
    <contour>
      <point x="81" y="-100" type="curve"/>
      <point x="237" y="-100" type="line"/>
      <point x="232" y="33"/>
      <point x="229" y="232"/>
      <point x="229" y="330" type="curve" smooth="yes"/>
      <point x="229" y="452"/>
      <point x="232" y="582"/>
      <point x="238" y="700" type="curve"/>
      <point x="80" y="700" type="line"/>
      <point x="86" y="582"/>
      <point x="89" y="452"/>
      <point x="89" y="330" type="curve" smooth="yes"/>
      <point x="89" y="232"/>
      <point x="86" y="33"/>
    </contour>
  </outline>
</glyph>
<glyph name="braceright" format="2">
  <advance width="376"/>
  <unicode hex="007D"/>
  <outline>
    <contour>
      <point x="236" y="-2" type="curve"/>
      <point x="255" y="18"/>
      <point x="293" y="75"/>
      <point x="310" y="137" type="curve"/>
      <point x="297" y="188"/>
      <point x="270" y="250"/>
      <point x="246" y="295" type="curve"/>
      <point x="351" y="311" type="line"/>
      <point x="351" y="374" type="line"/>
      <point x="255" y="402" type="line"/>
      <point x="276" y="440"/>
      <point x="306" y="506"/>
      <point x="315" y="562" type="curve"/>
      <point x="283" y="616"/>
      <point x="218" y="691"/>
      <point x="205" y="700" type="curve"/>
      <point x="35" y="700" type="line"/>
      <point x="64" y="565" type="line"/>
      <point x="184" y="573" type="line"/>
      <point x="109" y="598" type="line"/>
      <point x="176" y="530" type="line"/>
      <point x="163" y="475"/>
      <point x="142" y="434"/>
      <point x="112" y="391" type="curve"/>
      <point x="204" y="348" type="line"/>
      <point x="204" y="338" type="line"/>
      <point x="168" y="326"/>
      <point x="139" y="314"/>
      <point x="112" y="299" type="curve"/>
      <point x="144" y="243"/>
      <point x="158" y="209"/>
      <point x="168" y="166" type="curve"/>
      <point x="155" y="132"/>
      <point x="137" y="115"/>
      <point x="111" y="47" type="curve"/>
      <point x="179" y="124" type="line"/>
      <point x="25" y="134" type="line"/>
      <point x="54" y="-2" type="line"/>
      <point x="62" y="-1"/>
      <point x="105" y="0"/>
      <point x="128" y="0" type="curve" smooth="yes"/>
      <point x="151" y="0"/>
      <point x="213" y="-1"/>
    </contour>
  </outline>
</glyph>
<glyph name="asciitilde" format="2">
  <advance width="456"/>
  <unicode hex="007E"/>
  <outline>
    <contour>
      <point x="282" y="142" type="curve"/>
      <point x="312" y="148"/>
      <point x="363" y="172"/>
      <point x="386" y="196" type="curve"/>
      <point x="441" y="323" type="line"/>
      <point x="421" y="343" type="line"/>
      <point x="308" y="342" type="line"/>
      <point x="304" y="321"/>
      <point x="295" y="295"/>
      <point x="283" y="271" type="curve"/>
      <point x="238" y="300"/>
      <point x="175" y="327"/>
      <point x="106" y="348" type="curve"/>
      <point x="55" y="321" type="line"/>
      <point x="15" y="205" type="line"/>
      <point x="22" y="180" type="line"/>
      <point x="129" y="146" type="line"/>
      <point x="151" y="210" type="line"/>
      <point x="200" y="191"/>
      <point x="247" y="169"/>
    </contour>
  </outline>
</glyph>
<glyph name="cent" format="2">
  <advance width="414"/>
  <unicode hex="00A2"/>
  <outline>
    <contour>
      <point x="125" y="100" type="curve"/>
      <point x="353" y="100" type="line"/>
      <point x="372" y="131"/>
      <point x="385" y="160"/>
      <point x="394" y="201" type="curve"/>
      <point x="394" y="311" type="line"/>
      <point x="256" y="276" type="line"/>
      <point x="256" y="210" type="line"/>
      <point x="205" y="210" type="line"/>
      <point x="178" y="232"/>
      <point x="156" y="250"/>
      <point x="144" y="281" type="curve"/>
      <point x="152" y="358"/>
      <point x="168" y="416"/>
      <point x="199" y="490" type="curve"/>
      <point x="247" y="490" type="line"/>
      <point x="247" y="419" type="line"/>
      <point x="378" y="447" type="line"/>
      <point x="378" y="555" type="line"/>
      <point x="327" y="600" type="line"/>
      <point x="105" y="600" type="line"/>
      <point x="56" y="488"/>
      <point x="33" y="391"/>
      <point x="16" y="285" type="curve"/>
      <point x="16" y="219" type="line"/>
      <point x="44" y="176"/>
      <point x="82" y="135"/>
    </contour>
    <contour>
      <point x="162" y="0" type="curve"/>
      <point x="309" y="0" type="line"/>
      <point x="307" y="43"/>
      <point x="306" y="84"/>
      <point x="305" y="125" type="curve"/>
      <point x="166" y="125" type="line"/>
      <point x="165" y="85"/>
      <point x="164" y="43"/>
    </contour>
    <contour>
      <point x="168" y="530" type="curve"/>
      <point x="302" y="530" type="line"/>
      <point x="303" y="587"/>
      <point x="306" y="643"/>
      <point x="309" y="700" type="curve"/>
      <point x="162" y="700" type="line"/>
      <point x="165" y="641"/>
      <point x="167" y="586"/>
    </contour>
  </outline>
</glyph>
<glyph name="sterling" format="2">
  <advance width="488"/>
  <unicode hex="00A3"/>
  <outline>
    <contour>
      <point x="15" y="25" type="curve"/>
      <point x="26" y="0" type="line"/>
      <point x="179" y="0" type="line"/>
      <point x="179" y="39" type="line"/>
      <point x="183" y="55" type="line"/>
      <point x="205" y="101"/>
      <point x="225" y="180"/>
      <point x="239" y="249" type="curve"/>
      <point x="212" y="374"/>
      <point x="202" y="412"/>
      <point x="189" y="505" type="curve"/>
      <point x="203" y="544"/>
      <point x="236" y="575"/>
      <point x="275" y="596" type="curve"/>
      <point x="305" y="582"/>
      <point x="330" y="561"/>
      <point x="341" y="540" type="curve"/>
      <point x="330" y="428" type="line"/>
      <point x="467" y="458" type="line"/>
      <point x="467" y="565" type="line"/>
      <point x="442" y="604"/>
      <point x="394" y="661"/>
      <point x="328" y="700" type="curve"/>
      <point x="213" y="700" type="line"/>
      <point x="157" y="667"/>
      <point x="77" y="588"/>
      <point x="39" y="535" type="curve"/>
      <point x="39" y="517" type="line"/>
      <point x="59" y="408"/>
      <point x="76" y="364"/>
      <point x="100" y="259" type="curve"/>
      <point x="77" y="179"/>
      <point x="53" y="95"/>
    </contour>
    <contour>
      <point x="111" y="0" type="line"/>
      <point x="446" y="0" type="line"/>
      <point x="456" y="17"/>
      <point x="464" y="48"/>
      <point x="468" y="85" type="curve"/>
      <point x="454" y="142" type="line"/>
      <point x="111" y="122" type="line"/>
    </contour>
    <contour>
      <point x="375" y="233" type="line"/>
      <point x="388" y="240"/>
      <point x="397" y="246"/>
      <point x="405" y="254" type="curve"/>
      <point x="410" y="269"/>
      <point x="410" y="316"/>
      <point x="405" y="335" type="curve"/>
      <point x="47" y="335" type="line"/>
      <point x="39" y="317"/>
      <point x="32" y="284"/>
      <point x="29" y="264" type="curve"/>
      <point x="32" y="256"/>
      <point x="36" y="248"/>
      <point x="41" y="241" type="curve"/>
      <point x="205" y="246" type="line"/>
    </contour>
  </outline>
</glyph>
<glyph name="yen" format="2">
  <advance width="562"/>
  <unicode hex="00A5"/>
  <outline>
    <contour>
      <point x="224" y="221" type="curve"/>
      <point x="342" y="220" type="line"/>
      <point x="383" y="351"/>
      <point x="465" y="537"/>
      <point x="547" y="700" type="curve"/>
      <point x="374" y="700" type="line"/>
      <point x="352" y="586"/>
      <point x="313" y="451"/>
      <point x="272" y="333" type="curve"/>
      <point x="296" y="333" type="line"/>
      <point x="261" y="448"/>
      <point x="222" y="583"/>
      <point x="194" y="700" type="curve"/>
      <point x="15" y="700" type="line"/>
      <point x="106" y="512"/>
      <point x="189" y="326"/>
    </contour>
    <contour>
      <point x="442" y="38" type="line"/>
      <point x="453" y="44"/>
      <point x="466" y="57"/>
      <point x="472" y="69" type="curve"/>
      <point x="479" y="89"/>
      <point x="479" y="125"/>
      <point x="472" y="150" type="curve"/>
      <point x="104" y="150" type="line"/>
      <point x="98" y="136"/>
      <point x="90" y="105"/>
      <point x="86" y="79" type="curve"/>
      <point x="88" y="67"/>
      <point x="94" y="52"/>
      <point x="98" y="46" type="curve"/>
      <point x="252" y="51" type="line"/>
      <point x="305" y="51" type="line"/>
    </contour>
    <contour>
      <point x="205" y="0" type="curve"/>
      <point x="362" y="0" type="line"/>
      <point x="358" y="104"/>
      <point x="355" y="201"/>
      <point x="354" y="295" type="curve"/>
      <point x="212" y="295" type="line"/>
      <point x="211" y="204"/>
      <point x="209" y="108"/>
    </contour>
    <contour>
      <point x="442" y="184" type="line"/>
      <point x="453" y="190"/>
      <point x="466" y="203"/>
      <point x="472" y="215" type="curve"/>
      <point x="479" y="235"/>
      <point x="479" y="271"/>
      <point x="472" y="296" type="curve"/>
      <point x="104" y="296" type="line"/>
      <point x="98" y="282"/>
      <point x="90" y="251"/>
      <point x="86" y="225" type="curve"/>
      <point x="88" y="213"/>
      <point x="94" y="198"/>
      <point x="98" y="192" type="curve"/>
      <point x="252" y="197" type="line"/>
      <point x="305" y="197" type="line"/>
    </contour>
  </outline>
</glyph>
<glyph name="brokenbar" format="2">
  <advance width="320"/>
  <unicode hex="00A6"/>
  <outline>
    <contour>
      <point x="91" y="393" type="line"/>
      <point x="228" y="393" type="line"/>
      <point x="240" y="700" type="line"/>
      <point x="80" y="700" type="line"/>
    </contour>
    <contour>
      <point x="80" y="-100" type="line"/>
      <point x="240" y="-100" type="line"/>
      <point x="228" y="207" type="line"/>
      <point x="91" y="207" type="line"/>
    </contour>
  </outline>
</glyph>
<glyph name="section" format="2">
  <advance width="528"/>
  <unicode hex="00A7"/>
  <outline>
    <contour>
      <point x="331" y="206" type="line"/>
      <point x="361" y="207"/>
      <point x="477" y="245"/>
      <point x="493" y="305" type="curve"/>
      <point x="493" y="364"/>
      <point x="474" y="414"/>
      <point x="458" y="443" type="curve"/>
      <point x="420" y="470"/>
      <point x="313" y="495"/>
      <point x="280" y="508" type="curve" smooth="yes"/>
      <point x="249" y="520"/>
      <point x="220" y="531"/>
      <point x="202" y="547" type="curve"/>
      <point x="195" y="556"/>
      <point x="191" y="569"/>
      <point x="191" y="583" type="curve"/>
      <point x="195" y="591"/>
      <point x="209" y="605"/>
      <point x="232" y="615" type="curve"/>
      <point x="245" y="619"/>
      <point x="269" y="621"/>
      <point x="283" y="621" type="curve" smooth="yes"/>
      <point x="305" y="621"/>
      <point x="327" y="612"/>
      <point x="342" y="598" type="curve"/>
      <point x="341" y="528" type="line"/>
      <point x="488" y="558" type="line"/>
      <point x="478" y="684" type="line"/>
      <point x="443" y="704"/>
      <point x="356" y="718"/>
      <point x="300" y="725" type="curve"/>
      <point x="242" y="725"/>
      <point x="146" y="719"/>
      <point x="97" y="700" type="curve"/>
      <point x="66" y="665"/>
      <point x="44" y="625"/>
      <point x="35" y="585" type="curve"/>
      <point x="39" y="536"/>
      <point x="47" y="516"/>
      <point x="70" y="477" type="curve"/>
      <point x="108" y="450"/>
      <point x="196" y="414"/>
      <point x="239" y="401" type="curve" smooth="yes"/>
      <point x="271" y="391"/>
      <point x="318" y="379"/>
      <point x="336" y="363" type="curve"/>
      <point x="343" y="349"/>
      <point x="347" y="326"/>
      <point x="347" y="310" type="curve"/>
      <point x="331" y="279"/>
      <point x="300" y="259"/>
      <point x="255" y="259" type="curve" smooth="yes"/>
      <point x="236" y="259"/>
      <point x="190" y="285"/>
      <point x="182" y="301" type="curve"/>
      <point x="146" y="284" type="line"/>
    </contour>
    <contour>
      <point x="238" y="-25" type="curve"/>
      <point x="296" y="-25"/>
      <point x="362" y="-19"/>
      <point x="431" y="0" type="curve"/>
      <point x="472" y="45"/>
      <point x="484" y="75"/>
      <point x="493" y="115" type="curve"/>
      <point x="489" y="164"/>
      <point x="481" y="194"/>
      <point x="458" y="233" type="curve"/>
      <point x="420" y="260"/>
      <point x="332" y="276"/>
      <point x="299" y="289" type="curve" smooth="yes"/>
      <point x="268" y="301"/>
      <point x="210" y="321"/>
      <point x="192" y="337" type="curve"/>
      <point x="185" y="351"/>
      <point x="181" y="374"/>
      <point x="181" y="390" type="curve"/>
      <point x="197" y="421"/>
      <point x="248" y="441"/>
      <point x="293" y="441" type="curve" smooth="yes"/>
      <point x="312" y="441"/>
      <point x="338" y="415"/>
      <point x="346" y="399" type="curve"/>
      <point x="382" y="416" type="line"/>
      <point x="167" y="494" type="line"/>
      <point x="137" y="493"/>
      <point x="51" y="455"/>
      <point x="35" y="395" type="curve"/>
      <point x="35" y="336"/>
      <point x="54" y="286"/>
      <point x="80" y="247" type="curve"/>
      <point x="118" y="220"/>
      <point x="215" y="195"/>
      <point x="258" y="182" type="curve" smooth="yes"/>
      <point x="290" y="172"/>
      <point x="318" y="159"/>
      <point x="336" y="143" type="curve"/>
      <point x="343" y="134"/>
      <point x="347" y="127"/>
      <point x="347" y="117" type="curve"/>
      <point x="339" y="104"/>
      <point x="330" y="96"/>
      <point x="306" y="85" type="curve"/>
      <point x="293" y="81"/>
      <point x="269" y="79"/>
      <point x="255" y="79" type="curve" smooth="yes"/>
      <point x="233" y="79"/>
      <point x="201" y="88"/>
      <point x="186" y="92" type="curve"/>
      <point x="187" y="172" type="line"/>
      <point x="40" y="142" type="line"/>
      <point x="50" y="16" type="line"/>
      <point x="115" y="-4"/>
      <point x="172" y="-18"/>
    </contour>
  </outline>
</glyph>
<glyph name="copyright" format="2">
  <advance width="799"/>
  <unicode hex="00A9"/>
  <outline>
    <contour>
      <point x="405" y="-17" type="curve" smooth="yes"/>
      <point x="634" y="-17"/>
      <point x="769" y="141"/>
      <point x="769" y="360" type="curve" smooth="yes"/>
      <point x="769" y="549"/>
      <point x="616" y="718"/>
      <point x="405" y="718" type="curve" smooth="yes"/>
      <point x="188" y="718"/>
      <point x="30" y="549"/>
      <point x="30" y="360" type="curve"/>
      <point x="30" y="151"/>
      <point x="165" y="-17"/>
    </contour>
    <contour>
      <point x="405" y="88" type="curve" smooth="yes"/>
      <point x="345" y="88"/>
      <point x="313" y="98"/>
      <point x="286" y="107" type="curve"/>
      <point x="190" y="176"/>
      <point x="160" y="242"/>
      <point x="160" y="387" type="curve" smooth="yes"/>
      <point x="160" y="455"/>
      <point x="193" y="501"/>
      <point x="225" y="541" type="curve"/>
      <point x="292" y="589"/>
      <point x="342" y="603"/>
      <point x="405" y="603" type="curve" smooth="yes"/>
      <point x="475" y="603"/>
      <point x="525" y="589"/>
      <point x="587" y="541" type="curve"/>
      <point x="624" y="482"/>
      <point x="644" y="406"/>
      <point x="644" y="339" type="curve" smooth="yes"/>
      <point x="644" y="220"/>
      <point x="595" y="163"/>
      <point x="568" y="132" type="curve"/>
      <point x="512" y="100"/>
      <point x="465" y="88"/>
    </contour>
    <contour>
      <point x="394" y="144" type="line"/>
      <point x="522" y="144" type="line"/>
      <point x="539" y="172"/>
      <point x="550" y="197"/>
      <point x="558" y="233" type="curve"/>
      <point x="558" y="330" type="line"/>
      <point x="437" y="299" type="line"/>
      <point x="437" y="214" type="line"/>
      <point x="394" y="214" type="line"/>
    </contour>
    <contour>
      <point x="324" y="144" type="curve"/>
      <point x="508" y="145" type="line"/>
      <point x="508" y="249" type="line"/>
      <point x="382" y="249" type="line"/>
      <point x="362" y="265"/>
      <point x="355" y="274"/>
      <point x="347" y="295" type="curve"/>
      <point x="354" y="364"/>
      <point x="366" y="393"/>
      <point x="386" y="440" type="curve"/>
      <point x="507" y="440" type="line"/>
      <point x="543" y="514" type="line"/>
      <point x="498" y="554" type="line"/>
      <point x="303" y="554" type="line"/>
      <point x="260" y="455"/>
      <point x="242" y="400"/>
      <point x="227" y="307" type="curve"/>
      <point x="227" y="249" type="line"/>
      <point x="252" y="211"/>
      <point x="286" y="175"/>
    </contour>
    <contour>
      <point x="428" y="395" type="line"/>
      <point x="543" y="419" type="line"/>
      <point x="543" y="514" type="line"/>
      <point x="428" y="514" type="line"/>
    </contour>
  </outline>
</glyph>
<glyph name="guillemotleft" format="2">
  <advance width="423"/>
  <unicode hex="00AB"/>
  <outline>
    <contour>
      <point x="139" y="66" type="curve"/>
      <point x="218" y="125" type="line"/>
      <point x="184" y="162"/>
      <point x="151" y="204"/>
      <point x="136" y="242" type="curve"/>
      <point x="150" y="282"/>
      <point x="175" y="323"/>
      <point x="211" y="364" type="curve"/>
      <point x="138" y="421" type="line"/>
      <point x="85" y="362"/>
      <point x="63" y="326"/>
      <point x="35" y="262" type="curve"/>
      <point x="35" y="223" type="line"/>
      <point x="60" y="157"/>
      <point x="95" y="108"/>
    </contour>
    <contour>
      <point x="332" y="76" type="curve"/>
      <point x="398" y="145" type="line"/>
      <point x="357" y="178"/>
      <point x="324" y="211"/>
      <point x="306" y="242" type="curve"/>
      <point x="324" y="282"/>
      <point x="345" y="313"/>
      <point x="381" y="354" type="curve"/>
      <point x="308" y="411" type="line"/>
      <point x="255" y="352"/>
      <point x="237" y="326"/>
      <point x="205" y="262" type="curve"/>
      <point x="205" y="217" type="line"/>
      <point x="231" y="169"/>
      <point x="272" y="121"/>
    </contour>
  </outline>
</glyph>
<glyph name="logicalnot" format="2">
  <advance width="444"/>
  <unicode hex="00AC"/>
  <outline>
    <contour>
      <point x="35" y="198" type="curve"/>
      <point x="207" y="208" type="line"/>
      <point x="381" y="198" type="line"/>
      <point x="419" y="298" type="line"/>
      <point x="419" y="314"/>
      <point x="414" y="325"/>
      <point x="409" y="337" type="curve"/>
      <point x="63" y="334" type="line"/>
      <point x="25" y="254" type="line"/>
      <point x="25" y="238"/>
      <point x="30" y="210"/>
    </contour>
    <contour>
      <point x="273" y="98" type="line"/>
      <point x="419" y="118" type="line"/>
      <point x="419" y="298" type="line"/>
      <point x="281" y="270" type="line"/>
      <point x="273" y="126" type="line"/>
    </contour>
  </outline>
</glyph>
<glyph name="registered" format="2">
  <advance width="553"/>
  <unicode hex="00AE"/>
  <outline>
    <contour>
      <point x="281" y="245" type="curve" smooth="yes"/>
      <point x="432" y="245"/>
      <point x="533" y="349"/>
      <point x="533" y="506" type="curve" smooth="yes"/>
      <point x="533" y="655"/>
      <point x="432" y="755"/>
      <point x="281" y="755" type="curve" smooth="yes"/>
      <point x="124" y="755"/>
      <point x="20" y="655"/>
      <point x="20" y="506" type="curve"/>
      <point x="20" y="349"/>
      <point x="124" y="245"/>
    </contour>
    <contour>
      <point x="187" y="372" type="curve"/>
      <point x="245" y="372" type="line"/>
      <point x="243" y="420"/>
      <point x="242" y="453"/>
      <point x="242" y="486" type="curve" smooth="yes"/>
      <point x="242" y="546"/>
      <point x="243" y="576"/>
      <point x="246" y="618" type="curve"/>
      <point x="187" y="618" type="line"/>
      <point x="188" y="575"/>
      <point x="190" y="531"/>
      <point x="190" y="488" type="curve" smooth="yes"/>
      <point x="190" y="454"/>
      <point x="189" y="419"/>
    </contour>
    <contour>
      <point x="327" y="365" type="curve"/>
      <point x="378" y="393" type="line"/>
      <point x="367" y="401"/>
      <point x="337" y="424"/>
      <point x="330" y="432" type="curve" smooth="yes"/>
      <point x="322" y="441"/>
      <point x="307" y="463"/>
      <point x="299" y="481" type="curve"/>
      <point x="255" y="474" type="line"/>
      <point x="263" y="452"/>
      <point x="276" y="424"/>
      <point x="281" y="417" type="curve" smooth="yes"/>
      <point x="289" y="406"/>
      <point x="311" y="380"/>
    </contour>
    <contour>
      <point x="281" y="325" type="curve" smooth="yes"/>
      <point x="239" y="325"/>
      <point x="217" y="331"/>
      <point x="199" y="337" type="curve"/>
      <point x="145" y="375"/>
      <point x="115" y="445"/>
      <point x="115" y="525" type="curve" smooth="yes"/>
      <point x="115" y="570"/>
      <point x="136" y="601"/>
      <point x="157" y="628" type="curve"/>
      <point x="202" y="659"/>
      <point x="239" y="669"/>
      <point x="281" y="669" type="curve" smooth="yes"/>
      <point x="328" y="669"/>
      <point x="358" y="659"/>
      <point x="400" y="628" type="curve"/>
      <point x="424" y="589"/>
      <point x="437" y="538"/>
      <point x="437" y="493" type="curve" smooth="yes"/>
      <point x="437" y="413"/>
      <point x="405" y="375"/>
      <point x="387" y="354" type="curve"/>
      <point x="349" y="333"/>
      <point x="319" y="325"/>
    </contour>
    <contour>
      <point x="276" y="450" type="curve"/>
      <point x="311" y="461"/>
      <point x="338" y="476"/>
      <point x="366" y="503" type="curve"/>
      <point x="368" y="513"/>
      <point x="369" y="524"/>
      <point x="369" y="538" type="curve" smooth="yes"/>
      <point x="369" y="550"/>
      <point x="367" y="570"/>
      <point x="363" y="582" type="curve"/>
      <point x="346" y="602"/>
      <point x="331" y="619"/>
      <point x="294" y="636" type="curve"/>
      <point x="258" y="633"/>
      <point x="224" y="629"/>
      <point x="187" y="618" type="curve"/>
      <point x="192" y="566" type="line"/>
      <point x="222" y="575"/>
      <point x="250" y="580"/>
      <point x="283" y="585" type="curve"/>
      <point x="298" y="575"/>
      <point x="308" y="564"/>
      <point x="317" y="549" type="curve"/>
      <point x="317" y="527" type="line"/>
      <point x="303" y="511"/>
      <point x="292" y="505"/>
      <point x="276" y="498" type="curve"/>
      <point x="263" y="496"/>
      <point x="241" y="499"/>
      <point x="227" y="501" type="curve"/>
      <point x="227" y="457" type="line"/>
      <point x="240" y="453"/>
      <point x="260" y="449"/>
    </contour>
  </outline>
</glyph>
<glyph name="plusminus" format="2">
  <advance width="504"/>
  <unicode hex="00B1"/>
  <guideline x="241" y="163" angle="180"/>
  <outline>
    <contour>
      <point x="35" y="324" type="curve"/>
      <point x="257" y="334" type="line"/>
      <point x="419" y="324" type="line"/>
      <point x="451" y="324" type="line"/>
      <point x="489" y="423" type="line"/>
      <point x="489" y="439"/>
      <point x="484" y="451"/>
      <point x="479" y="463" type="curve"/>
      <point x="257" y="453" type="line"/>
      <point x="63" y="463" type="line"/>
      <point x="25" y="364" type="line"/>
      <point x="25" y="348"/>
      <point x="30" y="336"/>
    </contour>
    <contour>
      <point x="25" y="24" type="curve"/>
      <point x="227" y="34" type="line"/>
      <point x="441" y="24" type="line"/>
      <point x="479" y="123" type="line"/>
      <point x="479" y="139"/>
      <point x="474" y="151"/>
      <point x="469" y="163" type="curve"/>
      <point x="53" y="163" type="line"/>
      <point x="15" y="64" type="line"/>
      <point x="15" y="48"/>
      <point x="20" y="36"/>
    </contour>
    <contour>
      <point x="186" y="211" type="line"/>
      <point x="324" y="211" type="line"/>
      <point x="311" y="376" type="line"/>
      <point x="324" y="580" type="line"/>
      <point x="186" y="580" type="line"/>
      <point x="197" y="376" type="line"/>
    </contour>
  </outline>
</glyph>
<glyph name="paragraph" format="2">
  <advance width="634"/>
  <unicode hex="00B6"/>
  <outline>
    <contour>
      <point x="447" y="0" type="curve"/>
      <point x="598" y="0" type="line"/>
      <point x="593" y="125"/>
      <point x="590" y="241"/>
      <point x="590" y="359" type="curve" smooth="yes"/>
      <point x="590" y="469"/>
      <point x="593" y="579"/>
      <point x="599" y="700" type="curve"/>
      <point x="446" y="700" type="line"/>
      <point x="452" y="579"/>
      <point x="455" y="469"/>
      <point x="455" y="359" type="curve" smooth="yes"/>
      <point x="455" y="241"/>
      <point x="452" y="125"/>
    </contour>
    <contour>
      <point x="216" y="0" type="curve"/>
      <point x="367" y="0" type="line"/>
      <point x="362" y="125"/>
      <point x="359" y="241"/>
      <point x="359" y="359" type="curve" smooth="yes"/>
      <point x="359" y="469"/>
      <point x="362" y="579"/>
      <point x="368" y="700" type="curve"/>
      <point x="215" y="700" type="line"/>
      <point x="221" y="579"/>
      <point x="224" y="469"/>
      <point x="224" y="359" type="curve" smooth="yes"/>
      <point x="224" y="241"/>
      <point x="221" y="125"/>
    </contour>
    <contour>
      <point x="175" y="372" type="curve"/>
      <point x="265" y="373" type="line"/>
      <point x="265" y="499" type="line"/>
      <point x="215" y="700" type="line"/>
      <point x="164" y="700"/>
      <point x="102" y="687"/>
      <point x="57" y="654" type="curve"/>
      <point x="33" y="601"/>
      <point x="22" y="556"/>
      <point x="18" y="514" type="curve"/>
      <point x="33" y="460"/>
      <point x="59" y="419"/>
      <point x="93" y="391" type="curve"/>
      <point x="127" y="379"/>
      <point x="145" y="375"/>
    </contour>
    <contour>
      <point x="333" y="547" type="line"/>
      <point x="357" y="550"/>
      <point x="381" y="552"/>
      <point x="405" y="552" type="curve" smooth="yes"/>
      <point x="431" y="552"/>
      <point x="456" y="550"/>
      <point x="482" y="547" type="curve"/>
      <point x="482" y="700" type="line"/>
      <point x="333" y="700" type="line"/>
    </contour>
  </outline>
</glyph>
<glyph name="guillemotright" format="2">
  <advance width="600"/>
  <unicode hex="00BB"/>
  <outline>
    <contour>
      <point x="192" y="125" type="curve"/>
      <point x="271" y="66" type="line"/>
      <point x="315" y="108"/>
      <point x="350" y="157"/>
      <point x="375" y="223" type="curve"/>
      <point x="375" y="262" type="line"/>
      <point x="347" y="326"/>
      <point x="325" y="362"/>
      <point x="272" y="421" type="curve"/>
      <point x="199" y="364" type="line"/>
      <point x="235" y="323"/>
      <point x="260" y="282"/>
      <point x="274" y="242" type="curve"/>
      <point x="259" y="204"/>
      <point x="226" y="162"/>
    </contour>
    <contour>
      <point x="12" y="145" type="curve"/>
      <point x="78" y="76" type="line"/>
      <point x="138" y="121"/>
      <point x="179" y="169"/>
      <point x="205" y="217" type="curve"/>
      <point x="205" y="262" type="line"/>
      <point x="173" y="326"/>
      <point x="155" y="352"/>
      <point x="102" y="411" type="curve"/>
      <point x="29" y="354" type="line"/>
      <point x="65" y="313"/>
      <point x="86" y="282"/>
      <point x="104" y="242" type="curve"/>
      <point x="86" y="211"/>
      <point x="53" y="178"/>
    </contour>
  </outline>
</glyph>
<glyph name="AE" format="2">
  <advance width="786"/>
  <unicode hex="00C6"/>
  <guideline x="370" y="0" angle="90"/>
  <anchor x="393" y="0" name="bottom"/>
  <anchor x="393" y="700" name="top"/>
  <outline>
    <contour>
      <point x="15" y="0" type="curve"/>
      <point x="186" y="0" type="line"/>
      <point x="201" y="109"/>
      <point x="214" y="186"/>
      <point x="243" y="307" type="curve" smooth="yes"/>
      <point x="268" y="411"/>
      <point x="315" y="589"/>
      <point x="345" y="700" type="curve"/>
      <point x="199" y="700" type="line"/>
      <point x="185" y="609"/>
      <point x="156" y="503"/>
      <point x="126" y="384" type="curve" smooth="yes"/>
      <point x="81" y="207"/>
      <point x="57" y="133"/>
    </contour>
    <contour>
      <point x="428" y="160" type="line"/>
      <point x="428" y="283" type="line"/>
      <point x="184" y="283" type="line"/>
      <point x="184" y="167" type="line"/>
    </contour>
    <contour>
      <point x="432" y="0" type="line"/>
      <point x="737" y="0" type="line"/>
      <point x="747" y="17"/>
      <point x="755" y="48"/>
      <point x="759" y="85" type="curve"/>
      <point x="756" y="105"/>
      <point x="751" y="124"/>
      <point x="745" y="142" type="curve"/>
      <point x="432" y="122" type="line"/>
    </contour>
    <contour>
      <point x="679" y="274" type="line"/>
      <point x="698" y="299"/>
      <point x="710" y="330"/>
      <point x="717" y="363" type="curve"/>
      <point x="707" y="413" type="line"/>
      <point x="432" y="403" type="line"/>
      <point x="432" y="284" type="line"/>
    </contour>
    <contour>
      <point x="270" y="558" type="line"/>
      <point x="446" y="577" type="line"/>
      <point x="446" y="700" type="line"/>
      <point x="262" y="700" type="line"/>
    </contour>
    <contour>
      <point x="749" y="558" type="line"/>
      <point x="759" y="585"/>
      <point x="767" y="616"/>
      <point x="771" y="653" type="curve"/>
      <point x="757" y="700" type="line"/>
      <point x="429" y="700" type="line"/>
      <point x="427" y="578" type="line"/>
    </contour>
    <component base="_part.barra" xOffset="300"/>
  </outline>
</glyph>
<glyph name="multiply" format="2">
  <advance width="422"/>
  <unicode hex="00D7"/>
  <outline>
    <contour>
      <point x="133" y="35" type="curve"/>
      <point x="191" y="114"/>
      <point x="236" y="177"/>
      <point x="244" y="190" type="curve"/>
      <point x="264" y="202"/>
      <point x="332" y="254"/>
      <point x="412" y="318" type="curve"/>
      <point x="368" y="370" type="line"/>
      <point x="337" y="394"/>
      <point x="305" y="414"/>
      <point x="289" y="418" type="curve"/>
      <point x="259" y="378"/>
      <point x="214" y="315"/>
      <point x="178" y="263" type="curve"/>
      <point x="195" y="281"/>
      <point x="127" y="229"/>
      <point x="10" y="135" type="curve"/>
      <point x="54" y="83" type="line"/>
      <point x="85" y="59"/>
      <point x="117" y="39"/>
    </contour>
    <contour>
      <point x="289" y="35" type="curve"/>
      <point x="305" y="39"/>
      <point x="337" y="59"/>
      <point x="368" y="83" type="curve"/>
      <point x="412" y="135" type="line"/>
      <point x="339" y="194"/>
      <point x="292" y="224"/>
      <point x="244" y="263" type="curve"/>
      <point x="203" y="332"/>
      <point x="181" y="365"/>
      <point x="142" y="418" type="curve"/>
      <point x="126" y="414"/>
      <point x="94" y="394"/>
      <point x="63" y="370" type="curve"/>
      <point x="19" y="318" type="line"/>
      <point x="76" y="263"/>
      <point x="114" y="238"/>
      <point x="178" y="190" type="curve"/>
      <point x="218" y="135"/>
      <point x="236" y="107"/>
    </contour>
  </outline>
</glyph>
<glyph name="Oslash" format="2">
  <advance width="598"/>
  <unicode hex="00D8"/>
  <anchor x="300" y="0" name="bottom"/>
  <anchor x="300" y="700" name="top"/>
  <outline>
    <contour>
      <point x="20" y="14" type="curve"/>
      <point x="154" y="-58" type="line"/>
      <point x="189" y="27"/>
      <point x="294" y="218"/>
      <point x="345" y="301" type="curve" smooth="yes"/>
      <point x="406" y="401"/>
      <point x="512" y="578"/>
      <point x="578" y="658" type="curve"/>
      <point x="440" y="727" type="line"/>
      <point x="404" y="643"/>
      <point x="295" y="450"/>
      <point x="237" y="355" type="curve" smooth="yes"/>
      <point x="186" y="271"/>
      <point x="85" y="94"/>
    </contour>
    <contour>
      <point x="313" y="-6" type="curve" smooth="yes"/>
      <point x="361" y="-6"/>
      <point x="413" y="-2"/>
      <point x="462" y="10" type="curve"/>
      <point x="537" y="117"/>
      <point x="574" y="224"/>
      <point x="574" y="286" type="curve" smooth="yes"/>
      <point x="574" y="396"/>
      <point x="523" y="555"/>
      <point x="449" y="683" type="curve"/>
      <point x="396" y="700"/>
      <point x="354" y="710"/>
      <point x="314" y="710" type="curve" smooth="yes"/>
      <point x="254" y="710"/>
      <point x="193" y="699"/>
      <point x="162" y="683" type="curve"/>
      <point x="98" y="610"/>
      <point x="24" y="375"/>
      <point x="24" y="279" type="curve" smooth="yes"/>
      <point x="24" y="209"/>
      <point x="79" y="60"/>
      <point x="139" y="10" type="curve"/>
      <point x="163" y="5"/>
      <point x="233" y="-6"/>
    </contour>
    <contour>
      <point x="317" y="121" type="curve" smooth="yes"/>
      <point x="290" y="121"/>
      <point x="261" y="124"/>
      <point x="233" y="128" type="curve"/>
      <point x="196" y="182"/>
      <point x="170" y="229"/>
      <point x="164" y="294" type="curve"/>
      <point x="178" y="413"/>
      <point x="213" y="516"/>
      <point x="253" y="581" type="curve"/>
      <point x="265" y="586"/>
      <point x="282" y="590"/>
      <point x="302" y="590" type="curve" smooth="yes"/>
      <point x="315" y="590"/>
      <point x="329" y="588"/>
      <point x="340" y="586" type="curve"/>
      <point x="382" y="500"/>
      <point x="418" y="399"/>
      <point x="433" y="287" type="curve"/>
      <point x="427" y="234"/>
      <point x="406" y="187"/>
      <point x="370" y="127" type="curve"/>
      <point x="349" y="124"/>
      <point x="330" y="121"/>
    </contour>
  </outline>
</glyph>
<glyph name="Thorn" format="2">
  <advance width="523"/>
  <unicode hex="00DE"/>
  <outline>
    <contour>
      <point x="106" y="236" type="curve"/>
      <point x="106" y="98" type="line"/>
      <point x="167" y="88"/>
      <point x="328" y="101"/>
      <point x="385" y="121" type="curve"/>
      <point x="424" y="152"/>
      <point x="456" y="199"/>
      <point x="463" y="214" type="curve" smooth="yes"/>
      <point x="474" y="236"/>
      <point x="513" y="372"/>
      <point x="513" y="407" type="curve" smooth="yes"/>
      <point x="513" y="442"/>
      <point x="472" y="533"/>
      <point x="426" y="588" type="curve"/>
      <point x="361" y="602"/>
      <point x="169" y="605"/>
      <point x="87" y="609" type="curve"/>
      <point x="87" y="472" type="line"/>
      <point x="172" y="476"/>
      <point x="324" y="482"/>
      <point x="353" y="472" type="curve"/>
      <point x="286" y="545" type="line"/>
      <point x="325" y="489"/>
      <point x="354" y="447"/>
      <point x="364" y="409" type="curve"/>
      <point x="358" y="339"/>
      <point x="343" y="283"/>
      <point x="331" y="253" type="curve"/>
      <point x="320" y="241"/>
      <point x="307" y="232"/>
      <point x="294" y="224" type="curve"/>
      <point x="248" y="217"/>
      <point x="151" y="232"/>
    </contour>
    <component base="_part.barra" xOffset="-25"/>
  </outline>
</glyph>
<glyph name="germandbls" format="2">
  <advance width="503"/>
  <unicode hex="00DF"/>
  <outline>
    <contour>
      <point x="212" y="0" type="line"/>
      <point x="415" y="0" type="line"/>
      <point x="454" y="55"/>
      <point x="472" y="95"/>
      <point x="483" y="143" type="curve"/>
      <point x="483" y="230"/>
      <point x="470" y="307"/>
      <point x="453" y="356" type="curve"/>
      <point x="271" y="390" type="line"/>
      <point x="289" y="304" type="line"/>
      <point x="335" y="354"/>
      <point x="392" y="435"/>
      <point x="418" y="535" type="curve"/>
      <point x="392" y="601"/>
      <point x="359" y="664"/>
      <point x="283" y="710" type="curve"/>
      <point x="164" y="675" type="line"/>
      <point x="216" y="626"/>
      <point x="269" y="576"/>
      <point x="289" y="525" type="curve"/>
      <point x="278" y="485"/>
      <point x="256" y="422"/>
      <point x="202" y="337" type="curve"/>
      <point x="222" y="280" type="line"/>
      <point x="262" y="280"/>
      <point x="301" y="275"/>
      <point x="331" y="262" type="curve"/>
      <point x="339" y="238"/>
      <point x="343" y="204"/>
      <point x="343" y="177" type="curve"/>
      <point x="337" y="152"/>
      <point x="325" y="135"/>
      <point x="312" y="116" type="curve"/>
      <point x="232" y="126" type="line"/>
    </contour>
    <contour>
      <point x="31" y="0" type="curve"/>
      <point x="185" y="0" type="line"/>
      <point x="179" y="85"/>
      <point x="174" y="171"/>
      <point x="174" y="261" type="curve" smooth="yes"/>
      <point x="174" y="301"/>
      <point x="167" y="463"/>
      <point x="175" y="544" type="curve"/>
      <point x="203" y="561"/>
      <point x="235" y="572"/>
      <point x="283" y="584" type="curve"/>
      <point x="283" y="710" type="line"/>
      <point x="220" y="696"/>
      <point x="158" y="681"/>
      <point x="48" y="642" type="curve"/>
      <point x="31" y="526"/>
      <point x="30" y="264"/>
      <point x="30" y="95" type="curve" smooth="yes"/>
      <point x="30" y="60"/>
      <point x="30" y="28"/>
    </contour>
  </outline>
</glyph>
<glyph name="ae" format="2">
  <advance width="633"/>
  <unicode hex="00E6"/>
  <outline>
    <contour>
      <point x="444" y="-13" type="curve" smooth="yes"/>
      <point x="475" y="-13"/>
      <point x="522" y="-6"/>
      <point x="563" y="18" type="curve"/>
      <point x="589" y="55"/>
      <point x="604" y="109"/>
      <point x="605" y="165" type="curve"/>
      <point x="476" y="147" type="line"/>
      <point x="474" y="128"/>
      <point x="468" y="108"/>
      <point x="461" y="98" type="curve"/>
      <point x="455" y="95"/>
      <point x="446" y="93"/>
      <point x="439" y="93" type="curve" smooth="yes"/>
      <point x="434" y="93"/>
      <point x="426" y="95"/>
      <point x="419" y="98" type="curve"/>
      <point x="395" y="129"/>
      <point x="381" y="175"/>
      <point x="381" y="240" type="curve" smooth="yes"/>
      <point x="381" y="317"/>
      <point x="389" y="354"/>
      <point x="434" y="411" type="curve"/>
      <point x="448" y="407"/>
      <point x="458" y="403"/>
      <point x="469" y="394" type="curve"/>
      <point x="477" y="381"/>
      <point x="484" y="365"/>
      <point x="489" y="346" type="curve"/>
      <point x="484" y="325"/>
      <point x="477" y="306"/>
      <point x="461" y="285" type="curve"/>
      <point x="325" y="292" type="line"/>
      <point x="327" y="195" type="line"/>
      <point x="362" y="193"/>
      <point x="387" y="192"/>
      <point x="419" y="192" type="curve" smooth="yes"/>
      <point x="437" y="192"/>
      <point x="484" y="193"/>
      <point x="548" y="203" type="curve"/>
      <point x="581" y="231"/>
      <point x="604" y="296"/>
      <point x="617" y="344" type="curve"/>
      <point x="612" y="385"/>
      <point x="605" y="424"/>
      <point x="587" y="455" type="curve"/>
      <point x="550" y="477"/>
      <point x="471" y="503"/>
      <point x="426" y="510" type="curve"/>
      <point x="356" y="475" type="line"/>
      <point x="331" y="435"/>
      <point x="317" y="399"/>
      <point x="307" y="363" type="curve" smooth="yes"/>
      <point x="297" y="325"/>
      <point x="282" y="277"/>
      <point x="277" y="235" type="curve"/>
      <point x="287" y="145"/>
      <point x="305" y="65"/>
      <point x="359" y="0" type="curve"/>
      <point x="384" y="-8"/>
      <point x="412" y="-13"/>
    </contour>
    <contour>
      <point x="216" y="-17" type="curve"/>
      <point x="286" y="18" type="line"/>
      <point x="309" y="55"/>
      <point x="333" y="93"/>
      <point x="343" y="127" type="curve" smooth="yes"/>
      <point x="355" y="168"/>
      <point x="360" y="218"/>
      <point x="365" y="262" type="curve"/>
      <point x="355" y="362"/>
      <point x="347" y="432"/>
      <point x="293" y="497" type="curve"/>
      <point x="271" y="505"/>
      <point x="240" y="510"/>
      <point x="208" y="510" type="curve" smooth="yes"/>
      <point x="167" y="510"/>
      <point x="137" y="503"/>
      <point x="96" y="479" type="curve"/>
      <point x="70" y="445"/>
      <point x="55" y="381"/>
      <point x="54" y="331" type="curve"/>
      <point x="177" y="331" type="line"/>
      <point x="177" y="380"/>
      <point x="188" y="409"/>
      <point x="205" y="442" type="curve"/>
      <point x="91" y="363" type="line"/>
      <point x="127" y="385"/>
      <point x="184" y="400"/>
      <point x="215" y="400" type="curve" smooth="yes"/>
      <point x="243" y="400"/>
      <point x="271" y="395"/>
      <point x="296" y="380" type="curve"/>
      <point x="220" y="442" type="line"/>
      <point x="237" y="403"/>
      <point x="261" y="333"/>
      <point x="261" y="257" type="curve" smooth="yes"/>
      <point x="261" y="190"/>
      <point x="242" y="141"/>
      <point x="196" y="85" type="curve"/>
      <point x="175" y="90"/>
      <point x="165" y="94"/>
      <point x="153" y="103" type="curve"/>
      <point x="145" y="116"/>
      <point x="138" y="132"/>
      <point x="133" y="151" type="curve"/>
      <point x="138" y="172"/>
      <point x="141" y="181"/>
      <point x="157" y="202" type="curve"/>
      <point x="317" y="195" type="line"/>
      <point x="315" y="292" type="line"/>
      <point x="274" y="294"/>
      <point x="255" y="295"/>
      <point x="223" y="295" type="curve" smooth="yes"/>
      <point x="205" y="295"/>
      <point x="168" y="294"/>
      <point x="104" y="284" type="curve"/>
      <point x="52" y="246"/>
      <point x="29" y="198"/>
      <point x="15" y="153" type="curve"/>
      <point x="19" y="116"/>
      <point x="43" y="53"/>
      <point x="55" y="28" type="curve"/>
      <point x="92" y="6"/>
      <point x="138" y="-10"/>
    </contour>
  </outline>
</glyph>
<glyph name="eth" format="2">
  <advance width="468"/>
  <unicode hex="00F0"/>
  <outline>
    <contour>
      <point x="238" y="0" type="curve"/>
      <point x="370" y="0" type="line"/>
      <point x="415" y="99"/>
      <point x="441" y="184"/>
      <point x="448" y="253" type="curve"/>
      <point x="425" y="399"/>
      <point x="356" y="627"/>
      <point x="304" y="769" type="curve"/>
      <point x="174" y="743" type="line"/>
      <point x="222" y="629"/>
      <point x="299" y="383"/>
      <point x="316" y="258" type="curve"/>
      <point x="310" y="197"/>
      <point x="284" y="110"/>
    </contour>
    <contour>
      <point x="100" y="0" type="curve"/>
      <point x="263" y="0" type="line"/>
      <point x="208" y="76"/>
      <point x="178" y="112"/>
      <point x="143" y="191" type="curve"/>
      <point x="153" y="277"/>
      <point x="166" y="316"/>
      <point x="187" y="371" type="curve"/>
      <point x="333" y="371" type="line"/>
      <point x="333" y="500" type="line"/>
      <point x="112" y="500" type="line"/>
      <point x="78" y="473" type="line"/>
      <point x="53" y="428"/>
      <point x="27" y="330"/>
      <point x="15" y="214" type="curve"/>
      <point x="15" y="152" type="line"/>
      <point x="41" y="84"/>
      <point x="60" y="47"/>
    </contour>
    <contour>
      <point x="160" y="0" type="line"/>
      <point x="218" y="0"/>
      <point x="272" y="0"/>
      <point x="309" y="0" type="curve"/>
      <point x="324" y="66" type="line"/>
      <point x="324" y="136" type="line"/>
      <point x="134" y="114" type="line"/>
    </contour>
    <contour>
      <point x="67" y="538" type="line"/>
      <point x="292" y="566" type="line"/>
      <point x="421" y="538" type="line"/>
      <point x="434" y="545"/>
      <point x="443" y="551"/>
      <point x="451" y="559" type="curve"/>
      <point x="451" y="680" type="line"/>
      <point x="73" y="680" type="line"/>
      <point x="55" y="569" type="line"/>
    </contour>
  </outline>
</glyph>
<glyph name="divide" format="2">
  <advance width="484"/>
  <unicode hex="00F7"/>
  <guideline x="333" y="343" angle="180"/>
  <outline>
    <contour>
      <point x="35" y="204" type="curve"/>
      <point x="217" y="214" type="line"/>
      <point x="421" y="204" type="line"/>
      <point x="459" y="303" type="line"/>
      <point x="459" y="319"/>
      <point x="454" y="331"/>
      <point x="449" y="343" type="curve"/>
      <point x="63" y="343" type="line"/>
      <point x="25" y="244" type="line"/>
      <point x="25" y="228"/>
      <point x="30" y="216"/>
    </contour>
    <component base="_part.dot" xOffset="143" yOffset="-547"/>
    <component base="_part.dot" xOffset="143" yOffset="-157"/>
  </outline>
</glyph>
<glyph name="oslash" format="2">
  <advance width="459"/>
  <unicode hex="00F8"/>
  <outline>
    <contour>
      <point x="-10" y="-1" type="curve"/>
      <point x="101" y="-78" type="line"/>
      <point x="140" y="5"/>
      <point x="194" y="101"/>
      <point x="249" y="181" type="curve" smooth="yes"/>
      <point x="315" y="278"/>
      <point x="399" y="394"/>
      <point x="469" y="471" type="curve"/>
      <point x="354" y="545" type="line"/>
      <point x="314" y="463"/>
      <point x="226" y="330"/>
      <point x="164" y="238" type="curve" smooth="yes"/>
      <point x="109" y="156"/>
      <point x="59" y="75"/>
    </contour>
    <contour>
      <point x="234" y="-10" type="curve" smooth="yes"/>
      <point x="264" y="-10"/>
      <point x="326" y="-3"/>
      <point x="360" y="10" type="curve"/>
      <point x="405" y="76"/>
      <point x="435" y="145"/>
      <point x="444" y="207" type="curve"/>
      <point x="436" y="299"/>
      <point x="400" y="417"/>
      <point x="360" y="483" type="curve"/>
      <point x="344" y="499"/>
      <point x="267" y="510"/>
      <point x="234" y="510" type="curve" smooth="yes"/>
      <point x="201" y="510"/>
      <point x="120" y="499"/>
      <point x="99" y="483" type="curve"/>
      <point x="48" y="400"/>
      <point x="20" y="291"/>
      <point x="15" y="207" type="curve"/>
      <point x="26" y="139"/>
      <point x="62" y="45"/>
      <point x="99" y="8" type="curve"/>
      <point x="134" y="-3"/>
      <point x="199" y="-10"/>
    </contour>
    <contour>
      <point x="234" y="93" type="curve" smooth="yes"/>
      <point x="220" y="93"/>
      <point x="198" y="95"/>
      <point x="186" y="98" type="curve"/>
      <point x="160" y="124"/>
      <point x="131" y="173"/>
      <point x="129" y="222" type="curve"/>
      <point x="138" y="284"/>
      <point x="163" y="356"/>
      <point x="184" y="404" type="curve"/>
      <point x="191" y="406"/>
      <point x="216" y="407"/>
      <point x="234" y="407" type="curve" smooth="yes"/>
      <point x="251" y="407"/>
      <point x="272" y="406"/>
      <point x="277" y="404" type="curve"/>
      <point x="293" y="362"/>
      <point x="315" y="289"/>
      <point x="325" y="222" type="curve"/>
      <point x="318" y="171"/>
      <point x="300" y="122"/>
      <point x="282" y="98" type="curve"/>
      <point x="271" y="95"/>
      <point x="246" y="93"/>
    </contour>
  </outline>
</glyph>
<glyph name="thorn" format="2">
  <advance width="476"/>
  <unicode hex="00FE"/>
  <outline>
    <contour>
      <point x="28" y="-240" type="curve"/>
      <point x="182" y="-240" type="line"/>
      <point x="176" y="89"/>
      <point x="173" y="169"/>
      <point x="173" y="236" type="curve" smooth="yes"/>
      <point x="173" y="310"/>
      <point x="177" y="368"/>
      <point x="185" y="730" type="curve"/>
      <point x="25" y="730" type="line"/>
      <point x="34" y="373"/>
      <point x="38" y="310"/>
      <point x="38" y="238" type="curve" smooth="yes"/>
      <point x="38" y="170"/>
      <point x="34" y="93"/>
    </contour>
    <component base="_part.arcobp" xOffset="46"/>
  </outline>
</glyph>
<glyph name="dcaron" format="2">
  <advance width="599"/>
  <unicode hex="010F"/>
  <outline>
    <contour>
      <point x="583" y="481" type="line"/>
      <point x="627" y="608" type="line"/>
      <point x="629" y="700" type="line"/>
      <point x="580" y="700" type="line"/>
      <point x="511" y="677" type="line"/>
      <point x="517" y="584" type="line"/>
      <point x="483" y="487" type="line"/>
    </contour>
    <component base="d"/>
  </outline>
</glyph>
<glyph name="dcroat" format="2">
  <advance width="483"/>
  <unicode hex="0111"/>
  <outline>
    <contour>
      <point x="183" y="548" type="curve"/>
      <point x="345" y="561" type="line"/>
      <point x="398" y="561" type="line"/>
      <point x="496" y="556" type="line"/>
      <point x="500" y="562"/>
      <point x="505" y="577"/>
      <point x="508" y="594" type="curve"/>
      <point x="505" y="621"/>
      <point x="498" y="652"/>
      <point x="490" y="670" type="curve"/>
      <point x="153" y="670" type="line"/>
      <point x="145" y="641"/>
      <point x="145" y="607"/>
      <point x="153" y="584" type="curve"/>
      <point x="160" y="568"/>
      <point x="172" y="554"/>
    </contour>
    <component base="d"/>
  </outline>
</glyph>
<glyph name="Hbar" format="2">
  <advance width="692"/>
  <unicode hex="0126"/>
  <outline>
    <contour>
      <point x="15" y="499" type="curve"/>
      <point x="29" y="485" type="line"/>
      <point x="324" y="491" type="line"/>
      <point x="628" y="485" type="line"/>
      <point x="651" y="507"/>
      <point x="673" y="567"/>
      <point x="677" y="596" type="curve"/>
      <point x="662" y="610" type="line"/>
      <point x="360" y="606" type="line"/>
      <point x="58" y="610" type="line"/>
      <point x="36" y="589"/>
      <point x="15" y="535"/>
    </contour>
    <component base="H" xOffset="38"/>
  </outline>
</glyph>
<glyph name="hbar" format="2">
  <advance width="483"/>
  <unicode hex="0127"/>
  <outline>
    <contour>
      <point x="300" y="548" type="line"/>
      <point x="311" y="554"/>
      <point x="323" y="568"/>
      <point x="330" y="584" type="curve"/>
      <point x="338" y="607"/>
      <point x="338" y="641"/>
      <point x="330" y="670" type="curve"/>
      <point x="-7" y="670" type="line"/>
      <point x="-15" y="652"/>
      <point x="-22" y="621"/>
      <point x="-25" y="594" type="curve"/>
      <point x="-22" y="577"/>
      <point x="-17" y="562"/>
      <point x="-13" y="556" type="curve"/>
      <point x="85" y="561" type="line"/>
      <point x="138" y="561" type="line"/>
    </contour>
    <component base="h"/>
  </outline>
</glyph>
<glyph name="Lslash" format="2">
  <advance width="454"/>
  <unicode hex="0141"/>
  <outline>
    <contour>
      <point x="-20" y="269" type="curve"/>
      <point x="28" y="188" type="line"/>
      <point x="54" y="188" type="line"/>
      <point x="102" y="213"/>
      <point x="307" y="368"/>
      <point x="360" y="411" type="curve"/>
      <point x="287" y="500" type="line"/>
      <point x="222" y="449"/>
      <point x="53" y="318"/>
    </contour>
    <component base="L" xOffset="10"/>
  </outline>
</glyph>
<glyph name="Eng" format="2">
  <advance width="600"/>
  <unicode hex="014A"/>
  <anchor x="299" y="0" name="bottom"/>
  <anchor x="299" y="700" name="top"/>
  <outline>
    <contour>
      <point x="421" y="-56" type="line"/>
      <point x="552" y="0" type="line"/>
      <point x="353" y="382" type="line"/>
      <point x="211" y="700" type="line"/>
      <point x="67" y="662" type="line"/>
      <point x="260" y="293" type="line"/>
    </contour>
    <contour>
      <point x="298" y="-109" type="curve"/>
      <point x="401" y="-222" type="line"/>
      <point x="473" y="-187"/>
      <point x="515" y="-148"/>
      <point x="555" y="-109" type="curve"/>
      <point x="446" y="-50" type="line"/>
      <point x="420" y="-79"/>
      <point x="380" y="-96"/>
    </contour>
    <contour>
      <point x="399" y="-116" type="curve"/>
      <point x="555" y="-109" type="line"/>
      <point x="551" y="26"/>
      <point x="548" y="230"/>
      <point x="548" y="324" type="curve" smooth="yes"/>
      <point x="548" y="454"/>
      <point x="551" y="574"/>
      <point x="558" y="700" type="curve"/>
      <point x="398" y="700" type="line"/>
      <point x="404" y="574"/>
      <point x="407" y="452"/>
      <point x="407" y="330" type="curve" smooth="yes"/>
      <point x="407" y="232"/>
      <point x="404" y="17"/>
    </contour>
    <component base="_part.barra" xOffset="-16"/>
  </outline>
</glyph>
<glyph name="eng" format="2">
  <advance width="489"/>
  <unicode hex="014B"/>
  <outline>
    <contour>
      <point x="303" y="-80" type="curve"/>
      <point x="458" y="-40" type="line"/>
      <point x="453" y="18"/>
      <point x="451" y="161"/>
      <point x="451" y="216" type="curve" smooth="yes"/>
      <point x="451" y="282"/>
      <point x="453" y="351"/>
      <point x="453" y="430" type="curve"/>
      <point x="348" y="510" type="line"/>
      <point x="234" y="500" type="line"/>
      <point x="189" y="409"/>
      <point x="131" y="120"/>
      <point x="121" y="47" type="curve"/>
      <point x="185" y="47" type="line"/>
      <point x="181" y="119"/>
      <point x="197" y="154"/>
      <point x="201" y="192" type="curve"/>
      <point x="222" y="268"/>
      <point x="239" y="332"/>
      <point x="280" y="378" type="curve"/>
      <point x="289" y="375"/>
      <point x="300" y="368"/>
      <point x="306" y="362" type="curve"/>
      <point x="310" y="327"/>
      <point x="311" y="277"/>
      <point x="311" y="233" type="curve" smooth="yes"/>
      <point x="311" y="144"/>
      <point x="306" y="-29"/>
    </contour>
    <contour>
      <point x="213" y="-49" type="curve"/>
      <point x="306" y="-152" type="line"/>
      <point x="362" y="-125"/>
      <point x="413" y="-87"/>
      <point x="459" y="-40" type="curve"/>
      <point x="401" y="30" type="line"/>
      <point x="365" y="11"/>
      <point x="285" y="-26"/>
    </contour>
    <contour>
      <point x="30" y="0" type="curve"/>
      <point x="188" y="0" type="line"/>
      <point x="180" y="110"/>
      <point x="179" y="191"/>
      <point x="179" y="245" type="curve" smooth="yes"/>
      <point x="179" y="298"/>
      <point x="180" y="407"/>
      <point x="183" y="500" type="curve"/>
      <point x="35" y="500" type="line"/>
      <point x="38" y="407"/>
      <point x="39" y="298"/>
      <point x="39" y="245" type="curve" smooth="yes"/>
      <point x="39" y="191"/>
      <point x="38" y="110"/>
    </contour>
  </outline>
</glyph>
<glyph name="OE" format="2">
  <advance width="742"/>
  <unicode hex="0152"/>
  <outline>
    <contour>
      <point x="705" y="558" type="line"/>
      <point x="715" y="585"/>
      <point x="723" y="616"/>
      <point x="727" y="653" type="curve"/>
      <point x="713" y="700" type="line"/>
      <point x="395" y="700" type="line"/>
      <point x="393" y="578" type="line"/>
    </contour>
    <contour>
      <point x="398" y="0" type="line"/>
      <point x="693" y="0" type="line"/>
      <point x="703" y="17"/>
      <point x="711" y="48"/>
      <point x="715" y="85" type="curve"/>
      <point x="701" y="142" type="line"/>
      <point x="398" y="122" type="line"/>
    </contour>
    <contour>
      <point x="635" y="274" type="line"/>
      <point x="654" y="299"/>
      <point x="666" y="330"/>
      <point x="673" y="363" type="curve"/>
      <point x="663" y="413" type="line"/>
      <point x="398" y="403" type="line"/>
      <point x="398" y="284" type="line"/>
    </contour>
    <component base="_part.cg" xOffset="-4"/>
    <component base="_part.barra" xOffset="266"/>
  </outline>
</glyph>
<glyph name="oe" format="2">
  <advance width="694"/>
  <unicode hex="0153"/>
  <outline>
    <contour>
      <point x="481" y="-11" type="curve" smooth="yes"/>
      <point x="524" y="-11"/>
      <point x="568" y="-2"/>
      <point x="608" y="18" type="curve"/>
      <point x="634" y="55"/>
      <point x="649" y="119"/>
      <point x="650" y="175" type="curve"/>
      <point x="518" y="157" type="line"/>
      <point x="518" y="138"/>
      <point x="515" y="122"/>
      <point x="510" y="107" type="curve"/>
      <point x="498" y="105"/>
      <point x="488" y="105"/>
      <point x="481" y="105" type="curve" smooth="yes"/>
      <point x="469" y="105"/>
      <point x="460" y="106"/>
      <point x="451" y="107" type="curve"/>
      <point x="432" y="138"/>
      <point x="417" y="178"/>
      <point x="417" y="225" type="curve" smooth="yes"/>
      <point x="417" y="292"/>
      <point x="437" y="356"/>
      <point x="482" y="412" type="curve"/>
      <point x="508" y="399"/>
      <point x="526" y="390"/>
      <point x="526" y="390" type="curve"/>
      <point x="533" y="379"/>
      <point x="541" y="358"/>
      <point x="546" y="339" type="curve"/>
      <point x="542" y="325"/>
      <point x="536" y="311"/>
      <point x="526" y="297" type="curve"/>
      <point x="504" y="293"/>
      <point x="497" y="291"/>
      <point x="465" y="291" type="curve" smooth="yes"/>
      <point x="439" y="291"/>
      <point x="412" y="293"/>
      <point x="382" y="297" type="curve"/>
      <point x="364" y="215" type="line"/>
      <point x="395" y="202"/>
      <point x="445" y="198"/>
      <point x="475" y="198" type="curve" smooth="yes"/>
      <point x="505" y="198"/>
      <point x="559" y="202"/>
      <point x="603" y="210" type="curve"/>
      <point x="639" y="240"/>
      <point x="669" y="290"/>
      <point x="678" y="324" type="curve"/>
      <point x="673" y="365"/>
      <point x="666" y="404"/>
      <point x="648" y="435" type="curve"/>
      <point x="611" y="477"/>
      <point x="528" y="513"/>
      <point x="473" y="520" type="curve"/>
      <point x="374" y="486" type="line"/>
      <point x="351" y="387"/>
      <point x="304" y="282"/>
      <point x="303" y="225" type="curve"/>
      <point x="309" y="172"/>
      <point x="330" y="85"/>
      <point x="357" y="8" type="curve"/>
      <point x="392" y="-3"/>
      <point x="430" y="-11"/>
    </contour>
    <contour>
      <point x="215" y="-10" type="curve" smooth="yes"/>
      <point x="245" y="-10"/>
      <point x="277" y="-3"/>
      <point x="311" y="10" type="curve"/>
      <point x="342" y="74"/>
      <point x="376" y="161"/>
      <point x="384" y="215" type="curve"/>
      <point x="379" y="339"/>
      <point x="358" y="387"/>
      <point x="331" y="486" type="curve"/>
      <point x="315" y="502"/>
      <point x="248" y="510"/>
      <point x="215" y="510" type="curve" smooth="yes"/>
      <point x="182" y="510"/>
      <point x="131" y="502"/>
      <point x="110" y="486" type="curve"/>
      <point x="59" y="403"/>
      <point x="21" y="291"/>
      <point x="16" y="207" type="curve"/>
      <point x="27" y="139"/>
      <point x="73" y="45"/>
      <point x="110" y="8" type="curve"/>
      <point x="145" y="-3"/>
      <point x="180" y="-10"/>
    </contour>
    <contour>
      <point x="215" y="100" type="curve" smooth="yes"/>
      <point x="201" y="100"/>
      <point x="205" y="102"/>
      <point x="194" y="105" type="curve"/>
      <point x="176" y="133"/>
      <point x="158" y="180"/>
      <point x="149" y="223" type="curve"/>
      <point x="158" y="282"/>
      <point x="177" y="341"/>
      <point x="197" y="387" type="curve"/>
      <point x="207" y="389"/>
      <point x="204" y="392"/>
      <point x="221" y="392" type="curve" smooth="yes"/>
      <point x="237" y="392"/>
      <point x="241" y="389"/>
      <point x="251" y="387" type="curve"/>
      <point x="266" y="347"/>
      <point x="283" y="287"/>
      <point x="293" y="223" type="curve"/>
      <point x="286" y="178"/>
      <point x="268" y="131"/>
      <point x="248" y="105" type="curve"/>
      <point x="238" y="102"/>
      <point x="226" y="100"/>
    </contour>
  </outline>
</glyph>
<glyph name="Tbar" format="2">
  <advance width="530"/>
  <unicode hex="0166"/>
  <outline>
    <contour>
      <point x="88" y="284" type="line"/>
      <point x="145" y="286"/>
      <point x="224" y="295"/>
      <point x="262" y="295" type="curve" smooth="yes"/>
      <point x="296" y="295"/>
      <point x="371" y="286"/>
      <point x="414" y="284" type="curve"/>
      <point x="451" y="359" type="line"/>
      <point x="437" y="407" type="line"/>
      <point x="386" y="403"/>
      <point x="295" y="398"/>
      <point x="262" y="398" type="curve"/>
      <point x="224" y="398"/>
      <point x="159" y="404"/>
      <point x="114" y="407" type="curve"/>
      <point x="76" y="341" type="line"/>
    </contour>
    <component base="T"/>
  </outline>
</glyph>
<glyph name="uni018F" format="2">
  <advance width="576"/>
  <unicode hex="018F"/>
  <outline>
    <contour>
      <point x="287" y="-15" type="curve" smooth="yes"/>
      <point x="336" y="-15"/>
      <point x="395" y="-9"/>
      <point x="440" y="0" type="curve"/>
      <point x="515" y="107"/>
      <point x="556" y="224"/>
      <point x="556" y="286" type="curve" smooth="yes"/>
      <point x="556" y="396"/>
      <point x="514" y="572"/>
      <point x="440" y="700" type="curve"/>
      <point x="346" y="571" type="line"/>
      <point x="384" y="494"/>
      <point x="391" y="389"/>
      <point x="405" y="288" type="curve"/>
      <point x="400" y="240"/>
      <point x="372" y="171"/>
      <point x="339" y="115" type="curve"/>
      <point x="320" y="112"/>
      <point x="310" y="110"/>
      <point x="287" y="110" type="curve" smooth="yes"/>
      <point x="267" y="110"/>
      <point x="247" y="112"/>
      <point x="228" y="115" type="curve"/>
      <point x="198" y="160"/>
      <point x="186" y="200"/>
      <point x="179" y="250" type="curve"/>
      <point x="22" y="250" type="line"/>
      <point x="30" y="179"/>
      <point x="73" y="63"/>
      <point x="127" y="0" type="curve"/>
      <point x="169" y="-9"/>
      <point x="229" y="-15"/>
    </contour>
    <contour>
      <point x="20" y="325" type="curve"/>
      <point x="402" y="325" type="line"/>
      <point x="407" y="337"/>
      <point x="412" y="349"/>
      <point x="412" y="365" type="curve"/>
      <point x="394" y="454" type="line"/>
      <point x="55" y="445" type="line"/>
      <point x="170" y="379" type="line"/>
      <point x="176" y="425"/>
      <point x="199" y="498"/>
      <point x="223" y="562" type="curve"/>
      <point x="361" y="561" type="line"/>
      <point x="440" y="700" type="line"/>
      <point x="186" y="700" type="line"/>
      <point x="133" y="659"/>
      <point x="125" y="653"/>
      <point x="95" y="624" type="curve"/>
      <point x="67" y="560"/>
      <point x="20" y="425"/>
    </contour>
  </outline>
</glyph>
<glyph name="uni0190" format="2">
  <advance width="568"/>
  <unicode hex="0190"/>
  <outline>
    <contour>
      <point x="144" y="343" type="curve"/>
      <point x="257" y="396" type="line"/>
      <point x="203" y="436"/>
      <point x="173" y="468"/>
      <point x="168" y="538" type="curve"/>
      <point x="198" y="572"/>
      <point x="234" y="585"/>
      <point x="281" y="585" type="curve" smooth="yes"/>
      <point x="321" y="585"/>
      <point x="350" y="576"/>
      <point x="380" y="553" type="curve"/>
      <point x="506" y="649" type="line"/>
      <point x="445" y="695"/>
      <point x="338" y="710"/>
      <point x="274" y="710" type="curve"/>
      <point x="187" y="710"/>
      <point x="60" y="669"/>
      <point x="25" y="583" type="curve"/>
      <point x="25" y="445"/>
      <point x="98" y="366"/>
    </contour>
    <contour>
      <point x="270" y="-10" type="curve" smooth="yes"/>
      <point x="344" y="-10"/>
      <point x="420" y="-2"/>
      <point x="458" y="5" type="curve"/>
      <point x="389" y="135" type="line"/>
      <point x="338" y="125"/>
      <point x="304" y="122"/>
      <point x="275" y="122" type="curve" smooth="yes"/>
      <point x="228" y="122"/>
      <point x="204" y="127"/>
      <point x="150" y="140" type="curve"/>
      <point x="244" y="61" type="line"/>
      <point x="197" y="107"/>
      <point x="172" y="138"/>
      <point x="172" y="199" type="curve" smooth="yes"/>
      <point x="172" y="248"/>
      <point x="231" y="289"/>
      <point x="248" y="301" type="curve"/>
      <point x="147" y="388" type="line"/>
      <point x="111" y="352"/>
      <point x="29" y="288"/>
      <point x="29" y="183" type="curve" smooth="yes"/>
      <point x="29" y="126"/>
      <point x="52" y="53"/>
      <point x="94" y="18" type="curve"/>
      <point x="130" y="-2"/>
      <point x="192" y="-10"/>
    </contour>
    <contour>
      <point x="380" y="72" type="curve"/>
      <point x="458" y="5" type="line"/>
      <point x="490" y="36"/>
      <point x="527" y="95"/>
      <point x="533" y="135" type="curve"/>
      <point x="532" y="162"/>
      <point x="529" y="205"/>
      <point x="526" y="226" type="curve"/>
      <point x="375" y="200" type="line"/>
      <point x="387" y="162"/>
      <point x="388" y="92"/>
    </contour>
    <contour>
      <point x="359" y="281" type="line"/>
      <point x="378" y="306"/>
      <point x="390" y="357"/>
      <point x="397" y="410" type="curve"/>
      <point x="172" y="403" type="line"/>
      <point x="172" y="304" type="line"/>
    </contour>
    <contour>
      <point x="369" y="493" type="line"/>
      <point x="516" y="533" type="line"/>
      <point x="506" y="649" type="line"/>
      <point x="370" y="593" type="line"/>
    </contour>
  </outline>
</glyph>
<glyph name="uni0194" format="2">
  <advance width="639"/>
  <unicode hex="0194"/>
  <outline>
    <contour>
      <point x="314" y="-107" type="curve" smooth="yes"/>
      <point x="361" y="-107"/>
      <point x="398" y="-92"/>
      <point x="422" y="-71" type="curve"/>
      <point x="451" y="-46"/>
      <point x="471" y="-19"/>
      <point x="480" y="9" type="curve"/>
      <point x="482" y="36"/>
      <point x="481" y="64"/>
      <point x="479" y="91" type="curve"/>
      <point x="415" y="240"/>
      <point x="387" y="311"/>
      <point x="337" y="410" type="curve" smooth="yes"/>
      <point x="291" y="501"/>
      <point x="250" y="586"/>
      <point x="191" y="700" type="curve"/>
      <point x="15" y="699" type="line"/>
      <point x="88" y="573"/>
      <point x="161" y="448"/>
      <point x="208" y="355" type="curve" smooth="yes"/>
      <point x="276" y="221"/>
      <point x="326" y="118"/>
      <point x="344" y="71" type="curve" smooth="yes"/>
      <point x="347" y="63"/>
      <point x="350" y="47"/>
      <point x="350" y="37" type="curve"/>
      <point x="348" y="25"/>
      <point x="337" y="9"/>
      <point x="323" y="2" type="curve"/>
      <point x="311" y="2"/>
      <point x="293" y="14"/>
      <point x="287" y="26" type="curve"/>
      <point x="287" y="76"/>
      <point x="377" y="244"/>
      <point x="434" y="355" type="curve" smooth="yes"/>
      <point x="503" y="489"/>
      <point x="552" y="587"/>
      <point x="624" y="700" type="curve"/>
      <point x="467" y="700" type="line"/>
      <point x="411" y="613"/>
      <point x="368" y="517"/>
      <point x="311" y="410" type="curve" smooth="yes"/>
      <point x="245" y="286"/>
      <point x="199" y="165"/>
      <point x="171" y="89" type="curve" smooth="yes"/>
      <point x="160" y="59"/>
      <point x="157" y="37"/>
      <point x="157" y="20" type="curve"/>
      <point x="163" y="2"/>
      <point x="178" y="-40"/>
      <point x="204" y="-71" type="curve"/>
      <point x="230" y="-92"/>
      <point x="267" y="-107"/>
    </contour>
  </outline>
</glyph>
<glyph name="uni0259" format="2">
  <advance width="447"/>
  <unicode hex="0259"/>
  <outline>
    <contour>
      <point x="230" y="-20" type="curve"/>
      <point x="297" y="-17"/>
      <point x="350" y="-8"/>
      <point x="385" y="10" type="curve"/>
      <point x="421" y="112"/>
      <point x="426" y="177"/>
      <point x="431" y="284" type="curve"/>
      <point x="421" y="374"/>
      <point x="401" y="456"/>
      <point x="347" y="501" type="curve"/>
      <point x="312" y="512"/>
      <point x="274" y="520"/>
      <point x="223" y="520" type="curve" smooth="yes"/>
      <point x="170" y="520"/>
      <point x="136" y="511"/>
      <point x="96" y="491" type="curve"/>
      <point x="70" y="454"/>
      <point x="45" y="390"/>
      <point x="44" y="334" type="curve"/>
      <point x="176" y="352" type="line"/>
      <point x="179" y="389"/>
      <point x="186" y="416"/>
      <point x="205" y="444" type="curve"/>
      <point x="124" y="397" type="line"/>
      <point x="158" y="411"/>
      <point x="195" y="414"/>
      <point x="223" y="414" type="curve" smooth="yes"/>
      <point x="252" y="414"/>
      <point x="273" y="411"/>
      <point x="303" y="398" type="curve"/>
      <point x="236" y="446" type="line"/>
      <point x="270" y="416"/>
      <point x="287" y="359"/>
      <point x="287" y="284" type="curve" smooth="yes"/>
      <point x="287" y="217"/>
      <point x="287" y="175"/>
      <point x="269" y="84" type="curve"/>
      <point x="254" y="79"/>
      <point x="230" y="77"/>
      <point x="215" y="77" type="curve" smooth="yes"/>
      <point x="200" y="77"/>
      <point x="183" y="80"/>
      <point x="172" y="84" type="curve"/>
      <point x="164" y="97"/>
      <point x="153" y="151"/>
      <point x="148" y="170" type="curve"/>
      <point x="152" y="184"/>
      <point x="158" y="198"/>
      <point x="168" y="212" type="curve"/>
      <point x="190" y="216"/>
      <point x="207" y="218"/>
      <point x="239" y="218" type="curve" smooth="yes"/>
      <point x="265" y="218"/>
      <point x="316" y="212"/>
      <point x="346" y="208" type="curve"/>
      <point x="346" y="294" type="line"/>
      <point x="315" y="307"/>
      <point x="259" y="311"/>
      <point x="229" y="311" type="curve" smooth="yes"/>
      <point x="189" y="311"/>
      <point x="135" y="307"/>
      <point x="91" y="299" type="curve"/>
      <point x="55" y="269"/>
      <point x="25" y="219"/>
      <point x="16" y="185" type="curve"/>
      <point x="21" y="144"/>
      <point x="48" y="41"/>
      <point x="66" y="10" type="curve"/>
      <point x="116" y="-11"/>
      <point x="157" y="-17"/>
    </contour>
  </outline>
</glyph>
<glyph name="uni025B" format="2">
  <advance width="467"/>
  <unicode hex="025B"/>
  <outline>
    <contour>
      <point x="284" y="-13" type="curve" smooth="yes"/>
      <point x="331" y="-13"/>
      <point x="425" y="16"/>
      <point x="435" y="41" type="curve"/>
      <point x="451" y="191" type="line"/>
      <point x="303" y="161" type="line"/>
      <point x="316" y="18" type="line"/>
      <point x="360" y="132" type="line"/>
      <point x="340" y="120"/>
      <point x="316" y="112"/>
      <point x="299" y="112" type="curve" smooth="yes"/>
      <point x="230" y="112"/>
      <point x="156" y="149"/>
      <point x="116" y="204" type="curve"/>
      <point x="141" y="51" type="line"/>
      <point x="138" y="130"/>
      <point x="172" y="205"/>
      <point x="210" y="227" type="curve"/>
      <point x="161" y="195" type="line"/>
      <point x="192" y="190"/>
      <point x="249" y="184"/>
      <point x="317" y="190" type="curve"/>
      <point x="363" y="294" type="line"/>
      <point x="345" y="298"/>
      <point x="268" y="322"/>
      <point x="149" y="285" type="curve"/>
      <point x="228" y="274" type="line"/>
      <point x="170" y="284"/>
      <point x="152" y="334"/>
      <point x="163" y="398" type="curve"/>
      <point x="131" y="336" type="line"/>
      <point x="154" y="374"/>
      <point x="204" y="399"/>
      <point x="256" y="399" type="curve" smooth="yes"/>
      <point x="298" y="399"/>
      <point x="329" y="383"/>
      <point x="360" y="359" type="curve"/>
      <point x="320" y="429" type="line"/>
      <point x="320" y="334" type="line"/>
      <point x="451" y="362" type="line"/>
      <point x="451" y="500" type="line"/>
      <point x="421" y="509"/>
      <point x="343" y="515"/>
      <point x="305" y="515" type="curve" smooth="yes"/>
      <point x="194" y="517"/>
      <point x="20" y="471"/>
      <point x="20" y="383" type="curve" smooth="yes"/>
      <point x="20" y="295"/>
      <point x="80" y="236"/>
      <point x="152" y="236" type="curve"/>
      <point x="152" y="255" type="line"/>
      <point x="78" y="250"/>
      <point x="20" y="197"/>
      <point x="20" y="122" type="curve" smooth="yes"/>
      <point x="20" y="49"/>
      <point x="186" y="-13"/>
    </contour>
  </outline>
</glyph>
<glyph name="uni0263" format="2">
  <advance width="501"/>
  <unicode hex="0263"/>
  <guideline x="393" y="59" angle="0"/>
  <outline>
    <contour>
      <point x="244" y="-143" type="curve" smooth="yes"/>
      <point x="347" y="-143"/>
      <point x="416" y="-86"/>
      <point x="416" y="0" type="curve"/>
      <point x="366" y="127"/>
      <point x="259" y="379"/>
      <point x="175" y="500" type="curve"/>
      <point x="5" y="500" type="line"/>
      <point x="124" y="328"/>
      <point x="243" y="87"/>
      <point x="280" y="-12" type="curve"/>
      <point x="262" y="-31" type="line"/>
      <point x="231" y="-31" type="line"/>
      <point x="222" y="-27"/>
      <point x="213" y="-19"/>
      <point x="207" y="-12" type="curve"/>
      <point x="214" y="47"/>
      <point x="338" y="285"/>
      <point x="496" y="500" type="curve"/>
      <point x="333" y="500" type="line"/>
      <point x="251" y="381"/>
      <point x="133" y="142"/>
      <point x="75" y="0" type="curve"/>
      <point x="77" y="-86"/>
      <point x="145" y="-143"/>
    </contour>
  </outline>
</glyph>
<glyph name="uni02BB" format="2">
  <advance width="197"/>
  <unicode hex="02BB"/>
  <outline>
    <contour>
      <point x="38" y="504" type="line"/>
      <point x="57" y="504" type="line"/>
      <point x="156" y="537" type="line"/>
      <point x="130" y="623" type="line"/>
      <point x="177" y="700" type="line"/>
      <point x="77" y="706" type="line"/>
      <point x="20" y="599" type="line"/>
    </contour>
  </outline>
</glyph>
<glyph name="gravecomb" format="2">
  <advance width="0"/>
  <unicode hex="0300"/>
  <anchor x="172" y="470" name="_top"/>
  <anchor x="172" y="690" name="top"/>
  <outline>
    <contour>
      <point x="196" y="509" type="curve"/>
      <point x="222" y="509" type="line"/>
      <point x="270" y="590" type="line"/>
      <point x="221" y="617"/>
      <point x="156" y="658"/>
      <point x="113" y="691" type="curve"/>
      <point x="50" y="602" type="line"/>
      <point x="103" y="559"/>
      <point x="138" y="534"/>
    </contour>
  </outline>
</glyph>
<glyph name="acutecomb" format="2">
  <advance width="0"/>
  <unicode hex="0301"/>
  <anchor x="157" y="470" name="_top"/>
  <anchor x="157" y="690" name="top"/>
  <outline>
    <contour>
      <point x="50" y="590" type="curve"/>
      <point x="98" y="509" type="line"/>
      <point x="124" y="509" type="line"/>
      <point x="182" y="534"/>
      <point x="217" y="559"/>
      <point x="270" y="602" type="curve"/>
      <point x="207" y="691" type="line"/>
      <point x="164" y="658"/>
      <point x="99" y="617"/>
    </contour>
  </outline>
</glyph>
<glyph name="uni0302" format="2">
  <advance width="0"/>
  <unicode hex="0302"/>
  <anchor x="216" y="470" name="_top"/>
  <outline>
    <contour>
      <point x="263" y="517" type="curve"/>
      <point x="287" y="507" type="line"/>
      <point x="361" y="553" type="line"/>
      <point x="329" y="590"/>
      <point x="289" y="648"/>
      <point x="271" y="689" type="curve"/>
      <point x="189" y="682" type="line"/>
      <point x="211" y="622"/>
      <point x="228" y="559"/>
    </contour>
    <contour>
      <point x="70" y="553" type="curve"/>
      <point x="140" y="507" type="line"/>
      <point x="164" y="517" type="line"/>
      <point x="199" y="559"/>
      <point x="221" y="622"/>
      <point x="243" y="682" type="curve"/>
      <point x="271" y="689" type="line"/>
      <point x="160" y="689" type="line"/>
      <point x="142" y="648"/>
      <point x="102" y="590"/>
    </contour>
  </outline>
</glyph>
<glyph name="tildecomb" format="2">
  <advance width="0"/>
  <unicode hex="0303"/>
  <anchor x="217" y="470" name="_top"/>
  <anchor x="217" y="700" name="top"/>
  <outline>
    <contour>
      <point x="264" y="524" type="curve"/>
      <point x="313" y="533"/>
      <point x="341" y="543"/>
      <point x="363" y="562" type="curve"/>
      <point x="408" y="672" type="line"/>
      <point x="383" y="692" type="line"/>
      <point x="314" y="691" type="line"/>
      <point x="309" y="664"/>
      <point x="301" y="640"/>
      <point x="287" y="620" type="curve"/>
      <point x="242" y="661"/>
      <point x="208" y="683"/>
      <point x="170" y="700" type="curve"/>
      <point x="85" y="660" type="line"/>
      <point x="30" y="542" type="line"/>
      <point x="121" y="527" type="line"/>
      <point x="155" y="606" type="line"/>
      <point x="191" y="589"/>
      <point x="225" y="562"/>
    </contour>
  </outline>
</glyph>
<glyph name="uni0304" format="2">
  <advance width="0"/>
  <unicode hex="0304"/>
  <anchor x="236" y="500" name="_top"/>
  <anchor x="236" y="656" name="top"/>
  <outline>
    <contour>
      <point x="60" y="569" type="curve"/>
      <point x="74" y="555" type="line"/>
      <point x="219" y="561" type="line"/>
      <point x="373" y="555" type="line"/>
      <point x="396" y="577"/>
      <point x="418" y="603"/>
      <point x="432" y="642" type="curve"/>
      <point x="417" y="656" type="line"/>
      <point x="255" y="652" type="line"/>
      <point x="113" y="656" type="line"/>
      <point x="91" y="635"/>
      <point x="69" y="605"/>
    </contour>
  </outline>
</glyph>
<glyph name="uni0306" format="2">
  <advance width="0"/>
  <unicode hex="0306"/>
  <anchor x="167" y="470" name="_top"/>
  <anchor x="167" y="665" name="top"/>
  <outline>
    <contour>
      <point x="157" y="511" type="curve" smooth="yes"/>
      <point x="204" y="511"/>
      <point x="311" y="563"/>
      <point x="311" y="617" type="curve" smooth="yes"/>
      <point x="311" y="665" type="line"/>
      <point x="215" y="665" type="line"/>
      <point x="195" y="603" type="line"/>
      <point x="182" y="603"/>
      <point x="150" y="604"/>
      <point x="140" y="614" type="curve" smooth="yes"/>
      <point x="132" y="622"/>
      <point x="128" y="645"/>
      <point x="128" y="668" type="curve"/>
      <point x="20" y="645" type="line"/>
      <point x="20" y="619"/>
      <point x="29" y="578"/>
      <point x="36" y="569" type="curve" smooth="yes"/>
      <point x="47" y="555"/>
      <point x="110" y="511"/>
    </contour>
  </outline>
</glyph>
<glyph name="uni0308" format="2">
  <advance width="0"/>
  <unicode hex="0308"/>
  <anchor x="194.5" y="500" name="_top"/>
  <anchor x="195" y="685" name="top"/>
  <outline>
    <contour>
      <point x="230" y="570" type="line"/>
      <point x="339" y="570" type="line"/>
      <point x="339" y="685" type="line"/>
      <point x="235" y="677" type="line"/>
    </contour>
    <contour>
      <point x="50" y="570" type="line"/>
      <point x="159" y="570" type="line"/>
      <point x="159" y="685" type="line"/>
      <point x="55" y="677" type="line"/>
    </contour>
  </outline>
</glyph>
<glyph name="uni030A" format="2">
  <advance width="0"/>
  <unicode hex="030A"/>
  <anchor x="175" y="470" name="_top"/>
  <anchor x="175" y="727" name="top"/>
  <outline>
    <contour>
      <point x="168" y="512" type="curve" smooth="yes"/>
      <point x="238" y="512"/>
      <point x="309" y="567"/>
      <point x="309" y="642" type="curve" smooth="yes"/>
      <point x="309" y="692"/>
      <point x="250" y="727"/>
      <point x="195" y="727" type="curve" smooth="yes"/>
      <point x="119" y="727"/>
      <point x="40" y="683"/>
      <point x="40" y="602" type="curve" smooth="yes"/>
      <point x="40" y="551"/>
      <point x="99" y="512"/>
    </contour>
    <contour>
      <point x="180" y="576" type="curve" smooth="yes"/>
      <point x="158" y="576"/>
      <point x="139" y="601"/>
      <point x="139" y="624" type="curve" smooth="yes"/>
      <point x="139" y="650"/>
      <point x="158" y="673"/>
      <point x="171" y="673" type="curve" smooth="yes"/>
      <point x="191" y="673"/>
      <point x="212" y="650"/>
      <point x="212" y="624" type="curve" smooth="yes"/>
      <point x="212" y="599"/>
      <point x="198" y="576"/>
    </contour>
  </outline>
</glyph>
